<svg width="201" height="201" viewBox="0 0 201 201" fill="none" xmlns="http://www.w3.org/2000/svg">
<path d="M46.1952 1.15771H6.09375V41.3033H46.1952V1.15771Z" fill="#A8A8A8"/>
<path d="M43.4764 1.15771H3.375V41.3033H43.4764V1.15771Z" fill="#1C3B8D"/>
<path d="M38.0927 6.55078H8.77347V35.9014H38.0927V6.55078Z" fill="#FAFAFA"/>
<path d="M8.7681 36.0986C8.55237 36.3944 8.30721 36.6694 8.03606 36.9196C7.56378 37.3732 6.90259 38.0308 6.14694 38.7339C5.39129 39.4369 4.73009 40.0583 4.25781 40.4983C4.00237 40.7528 3.72248 40.9837 3.42188 41.1877C3.62914 40.8909 3.86815 40.6158 4.13502 40.3667C4.6073 39.9132 5.26849 39.251 6.02414 38.5525C6.77979 37.854 7.44099 37.228 7.93688 36.7835C8.18704 36.5267 8.46578 36.297 8.7681 36.0986Z" fill="#A8A8A8"/>
<path d="M38.086 36.0083C38.3858 36.2166 38.6641 36.4521 38.9172 36.7113C39.3895 37.1649 40.0743 37.7999 40.8063 38.5256C41.5383 39.2513 42.1806 39.8863 42.6435 40.3399C42.9099 40.584 43.1504 40.8529 43.3613 41.1427C43.0592 40.9389 42.7806 40.7048 42.5301 40.4442C42.0579 39.9907 41.373 39.3557 40.641 38.6299C39.909 37.9042 39.2667 37.2692 38.8038 36.8157C38.5356 36.5716 38.295 36.301 38.086 36.0083Z" fill="#A8A8A8"/>
<path d="M38 6.63524C38.2152 6.34594 38.4604 6.07846 38.7321 5.83696C39.2043 5.38338 39.8608 4.72571 40.5976 4.02267C41.3343 3.31963 42.0144 2.69824 42.5103 2.25828C42.7666 2.00287 43.0482 1.77198 43.351 1.56885C43.1349 1.85603 42.8897 2.12192 42.6189 2.3626C42.1467 2.81617 41.4902 3.47838 40.7298 4.17688C39.9694 4.87538 39.313 5.50131 38.8124 5.94581C38.5665 6.20137 38.2943 6.43236 38 6.63524Z" fill="#A8A8A8"/>
<path d="M8.68944 6.71158C8.38965 6.50324 8.11131 6.26782 7.85823 6.00854C7.38595 5.55497 6.69642 4.91997 5.9691 4.19426C5.24179 3.46854 4.59004 2.83354 4.12721 2.37997C3.86126 2.13673 3.62227 1.86769 3.41406 1.57715C3.71272 1.78342 3.98955 2.01738 4.24055 2.27565C4.71284 2.72922 5.40237 3.36422 6.12968 4.08993C6.85699 4.81565 7.50874 5.45065 7.97158 5.90422C8.23983 6.14829 8.48045 6.41891 8.68944 6.71158Z" fill="#A8A8A8"/>
<path d="M38.0129 35.9067C38.0129 35.9067 38.0129 35.8568 38.0129 35.7661C38.0129 35.6754 38.0129 35.5302 38.0129 35.3579C38.0129 34.9905 38.0129 34.4507 38.0129 33.7749C38.0129 32.387 38.0129 30.3641 38.0129 27.7923C38.0129 22.6533 37.9846 15.3282 37.961 6.55608L38.0602 6.6468H8.82123L8.92985 6.54247C8.92985 17.3148 8.92985 27.4068 8.92985 35.8931L8.83539 35.8024L30.0125 35.8477L35.9538 35.8749H37.5265H35.9774H30.0503L8.79761 35.9203H8.70316V35.8296C8.70316 27.3297 8.70316 17.2332 8.70316 6.47898V6.37012H8.8165H38.0554H38.1499V6.46537C38.1499 15.2601 38.1121 22.608 38.1027 27.7832C38.1027 30.3459 38.1027 32.3598 38.0743 33.7432C38.0743 34.4235 38.0743 34.9497 38.0743 35.308C38.0743 35.4803 38.0743 35.6119 38.0743 35.7071C38.0743 35.8024 38.0129 35.9067 38.0129 35.9067Z" fill="#A8A8A8"/>
<path d="M16.5112 18.8174C16.5112 18.8174 15.883 26.0745 24.0677 26.0745C24.0771 22.2056 20.7475 19.144 16.5112 18.8174Z" fill="#1C3B8D"/>
<path d="M31.5018 18.8198C31.5018 18.8198 23.9453 18.2165 23.9453 26.0769C27.9739 26.0905 31.1618 22.8883 31.5018 18.8198Z" fill="#1C3B8D"/>
<path d="M23.7043 14.8462C23.7043 14.8462 17.5221 20.1757 24.0443 26.0857C27.0764 23.0014 26.8025 18.1618 23.7043 14.8462Z" fill="#A8A8A8"/>
<path d="M149.435 148.166C146.939 146.668 144.12 145.737 141.193 145.445C139.847 145.313 138.36 145.349 137.292 146.134C137.168 146.204 137.066 146.305 136.996 146.425C136.925 146.545 136.889 146.681 136.891 146.819C136.958 147.009 137.094 147.17 137.273 147.273C140.626 149.726 145.699 150.039 149.435 148.157" fill="#A8A8A8"/>
<path d="M149.236 147.942C147.327 146.598 145.546 145.093 143.913 143.447C142.274 141.79 141.122 139.744 140.574 137.519C140.432 136.843 140.39 136.072 140.838 135.537C145.089 138.712 148.395 142.835 149.236 147.942Z" fill="#A8A8A8"/>
<path d="M149.391 148.133C148.997 145.909 149.029 143.634 149.485 141.42C150.019 139.23 151.261 137.134 153.211 135.882C153.943 137.529 153.627 139.425 153.112 141.144C152.312 143.809 151.065 146.33 149.419 148.61" fill="#A8A8A8"/>
<path d="M153.562 155.31C151.04 155.604 148.839 156.883 146.95 158.521C145.058 160.179 143.739 162.354 143.172 164.753C145.651 164.608 147.753 162.939 149.274 161.052C150.795 159.165 151.857 157.106 153.524 155.346" fill="#A8A8A8"/>
<path d="M154.46 156.433C153.467 154.01 153.119 151.386 153.449 148.801C153.779 146.216 154.776 143.75 156.349 141.629C157.79 146.541 157.261 152.093 154.46 156.433Z" fill="#A8A8A8"/>
<path d="M159.956 162.723C157.648 162.584 155.349 163.102 153.345 164.21C151.342 165.318 149.722 166.968 148.688 168.955C148.546 169.222 148.423 169.562 148.612 169.803C148.709 169.893 148.828 169.96 148.958 169.996C149.088 170.032 149.226 170.038 149.358 170.012C151.578 169.875 153.548 168.592 155.172 167.131C156.797 165.671 158.214 163.979 160.008 162.718" fill="#A8A8A8"/>
<path d="M159.779 162.38C158.597 158.721 158.525 154.815 159.571 151.118C159.982 149.667 160.676 148.143 162.074 147.462C162.13 147.426 162.193 147.402 162.259 147.391C162.325 147.38 162.392 147.383 162.457 147.399C162.569 147.456 162.655 147.551 162.698 147.666C163.166 148.68 163.368 149.789 163.288 150.896C163.204 151.998 163.027 153.091 162.759 154.166C162.32 156.166 162.089 158.316 160.946 160.04C160.675 160.454 160.432 160.884 160.218 161.328C160.001 161.781 160.001 161.922 159.803 162.271" fill="#A8A8A8"/>
<path d="M174.318 164.462C173.241 160.52 174.384 155.748 176.967 152.519C177.161 152.283 177.411 152.029 177.723 152.065C178.195 152.106 178.323 152.719 178.299 153.177C178.105 157.226 176.725 161.141 174.318 164.471" fill="#A8A8A8"/>
<path d="M175.633 165.319C180.615 166.567 186.33 165.356 190.472 162.421C187.989 161.226 185.153 160.893 182.443 161.478C179.761 162.067 177.309 163.219 175.638 165.319" fill="#A8A8A8"/>
<path d="M176.742 162.702C179.533 158.334 184.88 155.486 190.212 155.228C189.598 157.309 187.812 158.924 185.805 159.904C183.798 160.884 181.555 161.305 179.34 161.718C178.48 161.877 177.3 162.054 176.742 162.702Z" fill="#A8A8A8"/>
<path d="M174.599 149.98C175.355 147.494 176.115 144.99 176.323 142.405C176.53 139.82 176.143 137.13 174.75 134.912C172.143 139.756 171.883 145.412 174.519 150.238" fill="#A8A8A8"/>
<path d="M183.375 145.718C186.421 140.398 192.636 136.152 198.927 135.554C196.5 141.359 189.883 145.841 183.375 145.718Z" fill="#A8A8A8"/>
<path d="M181.461 146.762C186.004 147.425 189.877 150.214 194.123 151.901C195.012 152.316 195.999 152.497 196.985 152.428C197.444 152.425 197.892 152.287 198.267 152.032C198.642 151.777 198.927 151.417 199.081 151.002C199.236 150.586 199.254 150.135 199.132 149.709C199.011 149.283 198.756 148.904 198.402 148.622C197.8 148.089 197.093 147.678 196.324 147.411C191.695 145.56 186.736 145.515 181.862 146.635" fill="#A8A8A8"/>
<path d="M178.828 149.826C179.858 150.107 180.207 150.62 181.024 151.287C183.802 153.554 187.088 155.175 190.626 156.022C190.994 156.108 191.471 156.144 191.655 155.827C191.839 155.509 191.613 155.21 191.405 154.965C189.863 153.227 187.861 151.92 185.61 151.182C183.39 150.393 181.473 149.436 178.828 149.64" fill="#A8A8A8"/>
<path d="M175.852 131.333C177.717 132.981 179.92 134.235 182.32 135.017C184.721 135.798 187.265 136.088 189.789 135.868C190.02 135.873 190.245 135.795 190.421 135.651C190.771 135.283 190.351 134.716 189.949 134.412C185.85 131.346 180.891 130.072 175.856 131.314" fill="#A8A8A8"/>
<path d="M179.375 130.092C181.842 128.348 184.703 127.189 187.725 126.71C190.747 126.23 193.845 126.444 196.764 127.334C194.573 129.407 191.536 130.509 188.476 130.827C185.421 131.096 182.34 130.847 179.375 130.092Z" fill="#A8A8A8"/>
<path d="M177.981 121.605C177.579 117.677 177.839 114.579 177.556 110.633C177.556 110.315 177.466 109.939 177.159 109.825C176.729 109.667 176.375 110.17 176.214 110.587C175.619 112.417 175.466 114.352 175.768 116.247C176.07 118.141 176.819 119.944 177.957 121.518" fill="#A8A8A8"/>
<path d="M177.695 122.039C180.468 120.393 182.546 118.248 184.468 115.721C185.804 113.961 186.933 111.857 186.631 109.698C184.742 109.661 182.966 110.655 181.743 112.029C180.577 113.452 179.73 115.09 179.254 116.841C178.711 118.57 178.333 120.343 177.695 122.039Z" fill="#A8A8A8"/>
<path d="M184.335 120.264C190.431 118.096 196.076 114.899 201.002 110.825C199.014 110.054 196.751 110.517 194.744 111.279C190.196 113.043 186.479 116.019 184.25 120.21" fill="#A8A8A8"/>
<path d="M179.555 124.187C182.634 124.509 185.76 124.722 188.811 124.232C191.862 123.742 194.649 122.608 197.449 121.474C197.699 121.401 197.91 121.239 198.04 121.021C198.083 120.896 198.086 120.761 198.048 120.635C198.01 120.509 197.933 120.396 197.827 120.313C197.612 120.148 197.36 120.035 197.091 119.982C194.044 119.161 190.753 119.528 187.754 120.517C184.896 121.448 182.148 122.664 179.555 124.146" fill="#A8A8A8"/>
<path d="M161.993 131.466C159.896 127.383 160.033 122.648 161.842 118.453C163.122 120.321 163.259 122.698 163.042 124.925C162.825 127.152 162.097 129.434 162.06 131.67" fill="#A8A8A8"/>
<path d="M153.596 127.399C150.968 127.366 148.362 127.86 145.944 128.85C143.526 129.839 141.35 131.303 139.555 133.146C142.171 133.54 144.863 132.892 147.243 131.785C149.624 130.678 151.74 129.104 153.855 127.549" fill="#A8A8A8"/>
<path d="M147.968 125.595C145.403 125.396 142.933 125.092 140.468 125.818C138.002 126.543 135.745 128.19 134.758 130.471C137.177 130.658 139.604 130.218 141.785 129.197C143.954 128.176 146.023 126.97 147.968 125.595Z" fill="#A8A8A8"/>
<path d="M156.306 125.677C154.001 124.225 151.631 122.751 148.948 122.148C146.265 121.545 143.148 121.989 141.273 123.935C143.451 125.16 146.086 125.296 148.608 125.296C151.13 125.296 154.219 125.264 156.594 126.071" fill="#A8A8A8"/>
<path d="M156.325 125.802C152.382 122.083 150.889 115.402 152.476 110.322C155.588 114.898 156.949 120.37 156.325 125.802Z" fill="#A8A8A8"/>
<path d="M167.164 115.257C167.91 113.597 168.43 111.855 169.1 110.163C169.708 108.448 170.641 106.856 171.854 105.469C173.089 104.075 174.844 103.202 176.742 103.038C176.134 105.599 174.978 108.011 173.346 110.12C171.714 112.228 169.642 113.987 167.263 115.284" fill="#A8A8A8"/>
<path d="M165.209 117.447C163.976 115.824 162.555 113.615 160.888 112.399C159.221 111.184 157.043 110.449 155.008 110.916C156.063 112.691 157.534 114.205 159.305 115.339C161.076 116.473 163.097 117.195 165.209 117.447Z" fill="#A8A8A8"/>
<path d="M165.603 115.387C164.796 113.418 163.983 111.427 163.657 109.336C163.332 107.245 163.53 105.009 164.645 103.186C166.808 107.113 167.507 111.35 165.712 115.432" fill="#A8A8A8"/>
<path d="M167.195 103.195C168.423 99.2991 172.135 96.428 176.145 95.1126C176.643 94.9188 177.182 94.8411 177.718 94.8858C177.984 94.9155 178.235 95.0194 178.441 95.1846C178.647 95.3498 178.797 95.5692 178.875 95.8156C179.021 96.4778 178.45 97.072 177.93 97.512C174.795 100.082 171.149 102.015 167.214 103.195" fill="#A8A8A8"/>
<path d="M167.23 100.006C167.386 97.4973 167.547 94.9483 168.397 92.567C169.247 90.1858 170.89 87.9542 173.275 86.9155C173.682 89.451 172.515 91.9729 171.108 94.1727C169.7 96.3725 168.009 98.4136 167.164 100.849" fill="#A8A8A8"/>
<path d="M167.17 101.74C166.159 98.9007 166.05 95.2948 164.284 92.8183C163.047 91.0902 161.063 89.9109 159.996 88.083C159.352 89.8383 159.442 91.7648 160.246 93.4578C161.05 95.1337 162.158 96.6588 163.519 97.9618C164.832 99.3225 165.951 100.316 167.17 101.74Z" fill="#A8A8A8"/>
<path d="M167.19 185.344C167.115 185.344 167.044 166.403 167.039 143.048C167.035 119.694 167.091 100.744 167.172 100.744C167.252 100.744 167.318 119.68 167.323 143.048C167.327 166.416 167.271 185.344 167.19 185.344Z" fill="#A8A8A8"/>
<path d="M184.417 128.606C184.179 128.718 183.931 128.807 183.676 128.874L181.636 129.536C179.916 130.099 177.55 130.897 174.986 131.922C172.421 132.947 170.051 133.818 168.686 134.952C168.142 135.39 167.71 135.94 167.42 136.562C167.226 137.016 167.193 137.279 167.165 137.274C167.153 137.208 167.153 137.141 167.165 137.075C167.196 136.886 167.245 136.701 167.311 136.521C167.569 135.861 167.992 135.272 168.544 134.807C169.368 134.139 170.289 133.59 171.278 133.178C172.369 132.689 173.583 132.176 174.868 131.668C177.442 130.657 179.827 129.854 181.565 129.35C182.434 129.092 183.142 128.897 183.638 128.77C183.892 128.692 184.153 128.637 184.417 128.606Z" fill="#A8A8A8"/>
<path d="M190.074 115.288C190.074 115.288 190.012 115.369 189.866 115.501L189.233 116.072L186.872 118.132L179.008 124.858C175.938 127.48 173.289 129.988 171.452 131.875C170.531 132.818 169.803 133.598 169.307 134.143C169.081 134.397 168.892 134.596 168.736 134.769C168.58 134.941 168.533 134.986 168.523 134.977C168.572 134.892 168.629 134.812 168.693 134.737C168.812 134.583 168.986 134.356 169.222 134.075C169.695 133.508 170.398 132.714 171.3 131.743C173.674 129.253 176.183 126.887 178.819 124.654C181.898 122.032 184.704 119.665 186.739 117.986L189.162 115.991L189.828 115.46C189.903 115.394 189.985 115.336 190.074 115.288Z" fill="#A8A8A8"/>
<path d="M175.694 127.527C175.614 127.491 176.252 126.072 176.894 124.271C177.536 122.47 177.839 120.955 177.924 120.969C178.009 120.982 177.815 122.538 177.163 124.362C176.891 125.133 176.576 125.89 176.219 126.629C176.09 126.951 175.913 127.254 175.694 127.527Z" fill="#A8A8A8"/>
<path d="M167.209 138.982C167.033 138.823 166.874 138.647 166.737 138.456L165.523 136.964C164.507 135.698 163.1 133.956 161.523 132.047C159.945 130.137 158.495 128.418 157.447 127.189L156.214 125.724C156.052 125.551 155.91 125.363 155.789 125.162C155.976 125.309 156.147 125.475 156.299 125.656C156.616 125.983 157.064 126.468 157.607 127.071C158.698 128.282 160.177 129.974 161.754 131.888C163.331 133.802 164.72 135.562 165.698 136.855C166.17 137.503 166.571 138.029 166.836 138.401C166.977 138.584 167.102 138.778 167.209 138.982Z" fill="#A8A8A8"/>
<path d="M163.433 134.323C163.386 134.373 162.38 133.221 161.851 131.479C161.553 130.55 161.431 129.578 161.492 128.608H161.614C161.562 128.826 161.52 128.944 161.496 128.939C161.473 128.935 161.473 128.812 161.496 128.59H161.624C161.683 129.535 161.852 130.471 162.129 131.379C162.635 133.076 163.508 134.278 163.433 134.323Z" fill="#A8A8A8"/>
<path d="M158.573 128.431C158.234 128.181 157.862 127.974 157.468 127.814C156.474 127.528 155.427 127.448 154.398 127.578C153.357 127.655 152.323 127.816 151.31 128.059C150.894 128.187 150.47 128.284 150.039 128.35C150.418 128.134 150.829 127.973 151.258 127.873C152.272 127.57 153.32 127.38 154.379 127.306C155.446 127.169 156.531 127.282 157.544 127.633C157.974 127.774 158.339 128.057 158.573 128.431Z" fill="#A8A8A8"/>
<path d="M157.39 127.012C157.39 127.053 156.747 126.762 155.699 126.418C152.956 125.514 150.018 125.3 147.165 125.796C146.074 125.982 145.413 126.177 145.398 126.132C145.537 126.048 145.688 125.987 145.847 125.95C146.266 125.809 146.693 125.694 147.127 125.605C150.008 124.997 153.012 125.216 155.765 126.236C156.179 126.388 156.582 126.564 156.974 126.762C157.253 126.908 157.399 126.994 157.39 127.012Z" fill="#A8A8A8"/>
<path d="M167.159 120.962C167.083 120.962 166.531 119.147 165.926 116.843C165.322 114.539 164.887 112.675 164.982 112.657C165.076 112.639 165.61 114.471 166.214 116.775C166.819 119.079 167.234 120.944 167.159 120.962Z" fill="#A8A8A8"/>
<path d="M167.253 120.959C167.168 120.986 166.81 119.753 165.884 118.492C165.303 117.747 164.626 117.076 163.867 116.496C164.155 116.565 164.421 116.697 164.646 116.882C165.218 117.284 165.715 117.776 166.115 118.338C166.726 119.101 167.119 120.005 167.253 120.959Z" fill="#A8A8A8"/>
<path d="M167.185 175.258C167.157 175.258 167.095 174.804 166.873 173.997C166.548 172.865 166.107 171.766 165.556 170.717C164.196 168.046 161.716 164.653 158.566 161.26C157.003 159.546 155.491 157.931 154.207 156.385C153.053 155.022 152.009 153.577 151.085 152.062C150.467 151.04 149.941 149.968 149.512 148.86C149.366 148.461 149.262 148.157 149.201 147.953C149.16 147.835 149.135 147.713 149.125 147.59C149.153 147.59 149.295 148.043 149.621 148.796C150.088 149.883 150.637 150.935 151.264 151.944C152.206 153.435 153.259 154.858 154.415 156.203C155.704 157.732 157.22 159.342 158.783 161.056C161.943 164.463 164.417 167.892 165.745 170.613C166.283 171.68 166.7 172.799 166.987 173.951C167.065 174.264 167.124 174.58 167.161 174.899C167.184 175.018 167.192 175.138 167.185 175.258Z" fill="#A8A8A8"/>
<path d="M182.771 158.352C182.509 158.518 182.236 158.67 181.954 158.805C181.216 159.209 180.508 159.664 179.838 160.166C178.846 160.906 177.916 161.721 177.057 162.602C176.079 163.59 175.073 164.742 174.048 165.972C171.998 168.444 170.081 170.63 168.933 172.376C168.348 173.242 167.923 173.973 167.644 174.485C167.515 174.759 167.365 175.023 167.195 175.274C167.209 175.197 167.234 175.122 167.271 175.052C167.332 174.911 167.417 174.698 167.545 174.44C167.905 173.695 168.31 172.971 168.759 172.272C169.878 170.485 171.781 168.267 173.826 165.799C174.856 164.565 175.871 163.413 176.868 162.425C177.741 161.547 178.689 160.74 179.701 160.012C180.39 159.523 181.121 159.093 181.888 158.728C182.157 158.596 182.36 158.515 182.526 158.456C182.599 158.405 182.683 158.37 182.771 158.352Z" fill="#A8A8A8"/>
<path d="M183.063 163.839C182.496 163.961 181.92 164.041 181.339 164.079C179.955 164.217 178.586 164.475 177.25 164.85C175.929 165.264 174.69 165.888 173.585 166.696C172.739 167.327 172.343 167.844 172.305 167.812C172.364 167.671 172.45 167.541 172.56 167.431C172.828 167.101 173.128 166.798 173.457 166.524C174.549 165.65 175.806 164.987 177.16 164.569C178.515 164.183 179.91 163.946 181.321 163.861C181.9 163.802 182.483 163.795 183.063 163.839Z" fill="#A8A8A8"/>
<path d="M172.804 167.21C172.714 167.16 173.494 166.017 174.093 164.488C174.693 162.96 174.792 161.586 174.896 161.599C174.941 161.901 174.931 162.208 174.868 162.506C174.782 163.221 174.612 163.924 174.363 164.602C174.102 165.274 173.766 165.917 173.361 166.52C173.216 166.778 173.028 167.011 172.804 167.21Z" fill="#A8A8A8"/>
<path d="M187.81 143.644C187.722 143.698 187.629 143.745 187.532 143.784L186.719 144.138C186.365 144.283 185.935 144.469 185.449 144.714C184.963 144.959 184.396 145.204 183.801 145.549L182.856 146.061C182.53 146.243 182.204 146.456 181.864 146.66C181.17 147.068 180.476 147.567 179.734 148.07C176.558 150.349 173.786 153.106 171.526 156.235C171.026 156.965 170.53 157.65 170.133 158.33C169.93 158.666 169.717 158.983 169.543 159.301L169.037 160.208C168.702 160.789 168.466 161.342 168.23 161.818C167.993 162.294 167.809 162.725 167.672 163.061L167.332 163.85C167.298 163.946 167.252 164.037 167.195 164.122C167.209 164.023 167.236 163.925 167.276 163.832C167.356 163.619 167.45 163.351 167.568 163.02C167.718 162.592 167.89 162.171 168.083 161.759C168.305 161.274 168.532 160.711 168.858 160.122L169.33 159.187C169.5 158.865 169.708 158.543 169.911 158.199C170.298 157.509 170.789 156.838 171.29 156.08C173.54 152.912 176.335 150.134 179.555 147.866C180.311 147.358 181.014 146.864 181.718 146.465C182.067 146.261 182.393 146.052 182.724 145.875L183.669 145.372C184.268 145.041 184.849 144.8 185.345 144.573C185.766 144.372 186.198 144.192 186.639 144.034L187.475 143.73C187.582 143.686 187.695 143.657 187.81 143.644Z" fill="#A8A8A8"/>
<path d="M175.484 151.569C175.6 151.187 175.836 150.85 176.16 150.603C176.918 149.967 177.887 149.61 178.894 149.596C179.879 149.589 180.856 149.773 181.766 150.136C182.151 150.253 182.517 150.422 182.852 150.639C182.464 150.565 182.085 150.456 181.719 150.313C180.817 150.016 179.871 149.863 178.918 149.859C177.974 149.878 177.06 150.186 176.311 150.739C176.015 150.997 175.739 151.274 175.484 151.569Z" fill="#A8A8A8"/>
<path d="M173.639 153.399C173.559 153.358 174.253 152.379 174.414 150.977C174.574 149.576 174.154 148.469 174.239 148.446C174.324 148.423 174.428 148.691 174.56 149.154C174.897 150.373 174.74 151.67 174.121 152.782C173.88 153.2 173.687 153.417 173.639 153.399Z" fill="#A8A8A8"/>
<path d="M153.57 177.984C153.995 185.242 156.267 192.585 159.762 200.028H174.951C178.285 192.635 180.396 185.287 180.774 177.984H153.57Z" fill="#A8A8A8"/>
<path d="M178.312 189.671C178.312 189.748 173.311 189.812 167.138 189.812C160.966 189.812 155.969 189.748 155.969 189.671C155.969 189.594 160.97 189.535 167.138 189.535C173.306 189.535 178.312 189.599 178.312 189.671Z" fill="#FAFAFA"/>
<path d="M177.969 192.294C177.969 192.371 173.279 192.435 167.499 192.435C161.718 192.435 157.023 192.371 157.023 192.294C157.023 192.217 161.713 192.158 167.499 192.158C173.284 192.158 177.969 192.222 177.969 192.294Z" fill="#FAFAFA"/>
<path d="M159.993 182.711C160.182 184.948 160.182 187.196 159.993 189.433C159.913 189.433 159.852 187.928 159.852 186.072C159.852 184.217 159.927 182.711 159.993 182.711Z" fill="#FAFAFA"/>
<path d="M168.134 182.711C168.214 182.711 168.276 184.267 168.276 186.19C168.276 188.113 168.214 189.669 168.134 189.669C168.054 189.669 167.992 188.113 167.992 186.19C167.992 184.267 168.054 182.711 168.134 182.711Z" fill="#FAFAFA"/>
<path d="M175.782 182.654C175.863 182.654 175.924 184.242 175.924 186.201C175.924 188.161 175.863 189.753 175.782 189.753C175.702 189.753 175.641 188.165 175.641 186.201C175.641 184.237 175.702 182.654 175.782 182.654Z" fill="#FAFAFA"/>
<path d="M180.288 182.716C180.288 182.793 174.422 182.852 167.187 182.852C159.952 182.852 154.086 182.793 154.086 182.716C154.086 182.639 159.947 182.58 167.187 182.58C174.427 182.58 180.288 182.639 180.288 182.716Z" fill="#FAFAFA"/>
<path d="M172.137 110.511H0V115.604H172.137V110.511Z" fill="#1C3B8D"/>
<path d="M14.8902 114.967L1.99219 199.998H4.75976L20.6662 115.593L14.8902 114.967Z" fill="#1C3B8D"/>
<path d="M159.984 114.433L173.59 200.003H170.827L154.203 115.213L159.984 114.433Z" fill="#1C3B8D"/>
<path d="M6.5399 89.9902V101.457H4.54688V102.69H6.5399V110.365H43.8123V103.38H41.0542V101.856H43.8123V99.5878H45.0403V98.5537H43.5762V89.9902H6.5399Z" fill="#F5F5F5"/>
<path d="M33.9063 90.0054V110.23H43.8006V103.25H41.0425V101.857L43.8006 101.903V99.6211H45.0521L45.0285 98.4418L43.5739 98.4101V89.9736L33.9063 90.0054Z" fill="#A8A8A8"/>
<path d="M34.6096 102.524C34.6096 102.596 27.8701 102.651 19.5532 102.651C11.2364 102.651 4.49219 102.596 4.49219 102.524C4.49219 102.451 11.2364 102.396 19.5532 102.396C27.8701 102.396 34.6096 102.455 34.6096 102.524Z" fill="#A8A8A8"/>
<path d="M34.6096 101.356C34.6096 101.429 27.8701 101.483 19.5532 101.483C11.2364 101.483 4.49219 101.429 4.49219 101.356C4.49219 101.283 11.2364 101.229 19.5532 101.229C27.8701 101.229 34.6096 101.288 34.6096 101.356Z" fill="#A8A8A8"/>
<path d="M36.5392 98.2154C36.5392 98.2881 29.7951 98.3425 21.4829 98.3425C13.1708 98.3425 6.42188 98.2881 6.42188 98.2154C6.42188 98.1428 13.1613 98.0884 21.4829 98.0884C29.8045 98.0884 36.5392 98.1474 36.5392 98.2154Z" fill="#A8A8A8"/>
<path d="M36.7189 106.774C36.7189 106.847 29.9795 106.906 21.6626 106.906C13.3457 106.906 6.60156 106.847 6.60156 106.774C6.60156 106.701 13.341 106.647 21.6626 106.647C29.9842 106.647 36.7189 106.697 36.7189 106.774Z" fill="#A8A8A8"/>
<path d="M46.5689 82.2949H40.0703V89.7154H46.5689V82.2949Z" fill="#F5F5F5"/>
<path d="M40.2805 81.8101H10.9141V90.1785H40.2805V81.8101Z" fill="#A8A8A8"/>
<path d="M46.7512 82.5122H39.4922V81.8179H46.7512C46.8489 81.8179 46.9426 81.8552 47.0117 81.9215C47.0808 81.9879 47.1196 82.078 47.1196 82.1718C47.1159 82.2633 47.0755 82.3499 47.0068 82.4134C46.9381 82.4769 46.8465 82.5123 46.7512 82.5122Z" fill="#A8A8A8"/>
<path d="M46.7512 90.1884H39.4922V89.4805H46.7512C46.8489 89.4805 46.9426 89.5178 47.0117 89.5841C47.0808 89.6505 47.1196 89.7406 47.1196 89.8344C47.1196 89.9283 47.0808 90.0184 47.0117 90.0847C46.9426 90.1511 46.8489 90.1884 46.7512 90.1884Z" fill="#A8A8A8"/>
<path d="M37.9791 81.8101H34.5078V90.1785H37.9791V81.8101Z" fill="#1C3B8D"/>
<path d="M17.19 81.9004H13.7188V90.2688H17.19V81.9004Z" fill="#1C3B8D"/>
<path d="M46.5595 83.5277C46.5595 83.5277 45.1427 83.564 43.4189 83.564C41.695 83.564 40.2735 83.564 40.2735 83.5277C40.2735 83.4914 41.6903 83.4868 43.4189 83.4868C45.1474 83.4868 46.5595 83.505 46.5595 83.5277Z" fill="#A8A8A8"/>
<path d="M46.5595 84.6335C46.5595 84.6335 45.1427 84.6698 43.4189 84.6698C41.695 84.6698 40.2735 84.6698 40.2735 84.6335C40.2735 84.5972 41.6903 84.5972 43.4189 84.5972C45.1474 84.5972 46.5595 84.6108 46.5595 84.6335Z" fill="#A8A8A8"/>
<path d="M46.5595 86.006C46.5595 86.006 45.1427 86.0423 43.4189 86.0423C41.695 86.0423 40.2735 86.0423 40.2735 86.006C40.2735 85.9697 41.6903 85.9697 43.4189 85.9697C45.1474 85.9697 46.5595 85.9833 46.5595 86.006Z" fill="#A8A8A8"/>
<path d="M46.5595 87.3791C46.5595 87.3791 45.1427 87.4154 43.4189 87.4154C41.695 87.4154 40.2735 87.4154 40.2735 87.3791C40.2735 87.3428 41.6903 87.3428 43.4189 87.3428C45.1474 87.3428 46.5595 87.3564 46.5595 87.3791Z" fill="#A8A8A8"/>
<path d="M46.5595 88.7438C46.5595 88.7438 45.1427 88.7801 43.4189 88.7801C41.695 88.7801 40.2735 88.7801 40.2735 88.7438C40.2735 88.7075 41.6903 88.7075 43.4189 88.7075C45.1474 88.7075 46.5595 88.7211 46.5595 88.7438Z" fill="#A8A8A8"/>
<path d="M32.6394 85.2549H19.4297V86.7616H32.6394V85.2549Z" fill="#1C3B8D"/>
<path d="M34.1181 73.687L37.7735 81.9329H35.4216L33.7969 77.5288L34.1181 73.687Z" fill="#A8A8A8"/>
<path d="M22.8965 66.2305L21.4844 81.9331H33.4284L34.7413 66.2305H22.8965Z" fill="#1C3B8D"/>
<path d="M24.0655 67.4746L22.8282 80.6281L31.7968 80.7415L33.0058 67.3975L24.0655 67.4746Z" fill="#FAFAFA"/>
<path d="M25.9694 69.2969L25.2657 78.3456H30.0499L30.8905 69.2969H25.9694Z" fill="#A8A8A8"/>
<path d="M163.228 7.85987L158.813 7.88281L158.931 28.9872L163.347 28.9642L163.228 7.85987Z" fill="#A8A8A8"/>
<path d="M131.985 7.91371L120.547 7.97314L120.613 19.6252L132.051 19.5658L131.985 7.91371Z" fill="#1C3B8D"/>
<path d="M143.36 7.86439L131.922 7.92383L131.988 19.5759L143.426 19.5165L143.36 7.86439Z" fill="#F5F5F5"/>
<path d="M120.56 11.2058C128.159 11.2693 135.782 11.2058 143.381 11.1059C143.409 11.1006 143.434 11.0862 143.452 11.0651C143.47 11.044 143.48 11.0175 143.48 10.9902C143.48 10.9629 143.47 10.9365 143.452 10.9154C143.434 10.8943 143.409 10.8798 143.381 10.8745C135.783 10.8321 128.178 10.876 120.565 11.0061C120.537 11.0061 120.511 11.0166 120.491 11.0353C120.472 11.0541 120.461 11.0795 120.461 11.1059C120.461 11.1324 120.472 11.1578 120.491 11.1765C120.511 11.1953 120.537 11.2058 120.565 11.2058H120.56Z" fill="#A8A8A8"/>
<path d="M134.194 19.3837L113.414 19.4917L113.468 28.9848L134.248 28.8768L134.194 19.3837Z" fill="#1C3B8D"/>
<path d="M154.882 19.2768L134.102 19.3848L134.155 28.8779L154.935 28.7699L154.882 19.2768Z" fill="#F5F5F5"/>
<path d="M113.424 22.1291C127.229 22.2789 141.081 22.1291 154.886 21.934C154.918 21.934 154.95 21.9216 154.973 21.8994C154.996 21.8773 155.009 21.8473 155.009 21.816C155.009 21.7847 154.996 21.7547 154.973 21.7326C154.95 21.7105 154.918 21.698 154.886 21.698C141.081 21.6299 127.224 21.6345 113.424 21.9295C113.397 21.9295 113.37 21.94 113.351 21.9587C113.331 21.9774 113.32 22.0028 113.32 22.0293C113.32 22.0558 113.331 22.0812 113.351 22.0999C113.37 22.1186 113.397 22.1291 113.424 22.1291Z" fill="#A8A8A8"/>
<path d="M186.169 28.9873H105.664V32.3891H186.169V28.9873Z" fill="#A8A8A8"/>
<path d="M122.104 30.6313H118.836V42.2382H122.104V30.6313Z" fill="#A8A8A8"/>
<path d="M170.885 30.6313H167.617V42.2382H170.885V30.6313Z" fill="#A8A8A8"/>
<path d="M167.525 3.87047e-06L163.109 0.0229492L163.273 29.0511L167.689 29.0282L167.525 3.87047e-06Z" fill="#1C3B8D"/>
<path d="M174.432 5.39696L167.57 5.43262L167.703 28.9545L174.565 28.9188L174.432 5.39696Z" fill="#F5F5F5"/>
<path d="M174.386 9.93669C173.245 10.0504 172.098 10.0883 170.952 10.0501C169.808 10.0884 168.662 10.0504 167.523 9.93669C169.808 9.78543 172.101 9.78543 174.386 9.93669Z" fill="#A8A8A8"/>
<path d="M174.386 8.94988C173.245 9.06354 172.098 9.10145 170.952 9.06333C169.808 9.10154 168.662 9.06363 167.523 8.94988C169.808 8.79861 172.101 8.79861 174.386 8.94988Z" fill="#A8A8A8"/>
<path d="M174.386 25.3927C172.101 25.544 169.808 25.544 167.523 25.3927C169.808 25.2415 172.101 25.2415 174.386 25.3927Z" fill="#A8A8A8"/>
<path d="M174.386 24.3981C172.101 24.5494 169.808 24.5494 167.523 24.3981C169.808 24.2469 172.101 24.2469 174.386 24.3981Z" fill="#A8A8A8"/>
<path d="M171.06 22.2484C170.994 22.2484 170.938 19.8762 170.938 16.9462C170.938 14.0161 170.994 11.6484 171.06 11.6484C171.126 11.6484 171.178 14.0206 171.178 16.9462C171.178 19.8717 171.122 22.2484 171.06 22.2484Z" fill="#A8A8A8"/>
<path d="M181.932 11.188H174.461V28.9453H181.932V11.188Z" fill="#1C3B8D"/>
<path d="M166.525 4.96313C166.526 5.20464 166.452 5.44098 166.313 5.64222C166.174 5.84346 165.976 6.00055 165.744 6.09359C165.512 6.18664 165.257 6.21145 165.01 6.16488C164.763 6.11832 164.536 6.00247 164.358 5.83202C164.18 5.66156 164.059 5.44417 164.009 5.20737C163.96 4.97057 163.985 4.72502 164.081 4.50181C164.177 4.2786 164.34 4.08777 164.549 3.9535C164.758 3.81923 165.003 3.74756 165.255 3.74756C165.591 3.74756 165.913 3.87548 166.151 4.10331C166.39 4.33115 166.524 4.64032 166.525 4.96313Z" fill="#A8A8A8"/>
<path d="M165.643 8.31055H164.859V25.578H165.643V8.31055Z" fill="#A8A8A8"/>
<path d="M200.404 200.01C200.404 200.074 156.009 200.128 101.3 200.128C46.5914 200.128 2.1875 200.074 2.1875 200.01C2.1875 199.947 46.5536 199.892 101.3 199.892C156.047 199.892 200.404 199.942 200.404 200.01Z" fill="#263238"/>
<path d="M120.378 142.561L139.85 200.019H136.303L113.492 142.561H120.378Z" fill="#A8A8A8"/>
<path d="M120.369 142.56H119.897H118.574L113.464 142.587L113.511 142.519C117.422 152.303 125.852 173.462 135.619 197.955C135.883 198.626 136.148 199.316 136.412 199.955L136.299 199.883H139.841L139.723 200.037C134.287 183.93 129.437 169.575 125.947 159.243C124.209 154.067 122.811 149.903 121.847 147.023C121.375 145.585 120.997 144.47 120.742 143.708L120.459 142.841C120.397 142.646 120.369 142.542 120.369 142.542C120.369 142.542 120.407 142.633 120.473 142.823L120.77 143.671C121.03 144.429 121.413 145.531 121.904 146.955C122.886 149.826 124.303 153.977 126.069 159.129C129.588 169.475 134.476 183.844 139.954 199.951L140.006 200.105H136.228L136.195 200.028C135.935 199.365 135.666 198.699 135.402 198.027C125.696 173.498 117.313 152.316 113.445 142.547V142.479H113.521L118.659 142.506H119.968C120.232 142.551 120.369 142.56 120.369 142.56Z" fill="#263238"/>
<path d="M82.0503 142.561L62.5782 200.019H66.1203L88.9362 142.561H82.0503Z" fill="#A8A8A8"/>
<path d="M82.0452 142.555C82.0452 142.555 82.1916 142.555 82.4844 142.555H83.7926L88.9311 142.528H89.0066L88.9783 142.596C85.115 152.366 76.732 173.548 67.0267 198.077L66.2285 200.077L66.2002 200.154H62.4219L62.4739 200L76.3636 159.178L80.5292 147.005C81.0015 145.58 81.4029 144.478 81.6626 143.721L81.9602 142.873C82.0263 142.682 82.0641 142.591 82.0641 142.591C82.0641 142.591 82.0357 142.696 81.9744 142.891L81.691 143.757C81.4359 144.519 81.0628 145.635 80.5858 147.073C79.6177 149.953 78.2244 154.117 76.4864 159.292C72.9916 169.624 68.146 183.98 62.71 200.086L62.5919 199.932H66.134L66.0207 200.004L66.8141 198.004C76.5809 173.511 85.0111 152.334 88.898 142.573L88.9499 142.641L83.8351 142.614H82.5175L82.0452 142.555Z" fill="#263238"/>
<path d="M113.989 143.818C113.882 143.905 113.769 143.984 113.649 144.054L112.648 144.689L108.959 147.012C105.847 148.98 101.554 151.711 96.8357 154.749L84.7548 162.574L81.0899 164.937L80.0933 165.544C79.9808 165.625 79.8606 165.695 79.7344 165.753C79.8384 165.664 79.9489 165.582 80.065 165.508L81.0379 164.841L84.6603 162.419C87.7254 160.387 91.9807 157.598 96.7035 154.559C101.426 151.52 105.729 148.808 108.869 146.875C110.437 145.914 111.703 145.138 112.6 144.608L113.625 144.009C113.741 143.937 113.863 143.873 113.989 143.818Z" fill="#263238"/>
<path d="M76.6186 81.3023C76.6186 81.3023 70.5168 81.9056 69.6289 85.4343C68.741 88.9631 65.8506 132.606 69.6289 138.788C73.4071 144.97 122.052 144.108 125.429 143.26C128.806 142.412 130.397 140.307 130.053 137.736C129.708 135.164 96.582 131.975 96.582 131.975L98.6033 86.4277C98.6033 86.4277 86.6924 80.6673 76.6186 81.3023Z" fill="#263238"/>
<path d="M130.089 138.836H129.942H129.508L127.841 138.877C126.391 138.913 124.294 138.931 121.701 138.927C116.506 138.927 109.351 138.754 101.459 138.21C97.5156 137.934 93.761 137.584 90.3558 137.212C86.9507 136.84 83.8903 136.432 81.3305 136.047C80.0459 135.865 78.8936 135.67 77.8782 135.507C76.8628 135.344 75.989 135.194 75.2759 135.053L73.6371 134.749L73.212 134.668L73.0703 134.632C73.1189 134.625 73.1682 134.625 73.2167 134.632L73.6465 134.69L75.2948 134.949C76.0079 135.067 76.8817 135.208 77.9018 135.353C78.9219 135.498 80.0743 135.688 81.3542 135.856C83.9186 136.224 86.979 136.6 90.3794 136.972C93.7799 137.344 97.5345 137.675 101.478 137.952C109.365 138.496 116.52 138.682 121.701 138.736C124.289 138.764 126.386 138.768 127.841 138.764H129.947L130.089 138.836Z" fill="#1C3B8D"/>
<path d="M122.947 166.401C122.909 166.455 115.202 161.253 105.737 154.789C96.2727 148.326 88.6264 143.033 88.6642 142.996C88.702 142.96 96.4096 148.144 105.879 154.612C115.348 161.08 122.985 166.346 122.947 166.401Z" fill="#263238"/>
<path d="M120.155 42.105L116.259 35.5146C118.665 31.7621 119.523 27.2809 118.664 22.9518C117.805 18.6227 115.291 14.7588 111.616 12.1196C107.941 9.48036 103.371 8.25675 98.8038 8.68926C94.2371 9.12178 90.004 11.1791 86.9366 14.4569C83.8692 17.7347 82.1893 21.9958 82.2272 26.4027C82.2651 30.8096 84.018 35.0436 87.1413 38.2723C90.2646 41.501 94.5325 43.491 99.106 43.851C103.68 44.2111 108.228 42.9152 111.857 40.2181L120.155 42.105Z" fill="white"/>
<path d="M120.147 42.1071L111.826 40.2928H111.712L111.783 40.2021L111.887 40.3019C109.329 42.2214 106.286 43.4548 103.07 43.876C102.106 44.0075 101.133 44.0561 100.16 44.0211C99.6598 43.9939 99.1498 43.9803 98.635 43.9395L97.0812 43.7173C92.451 42.8448 88.3406 40.3115 85.5858 36.6325C84.056 34.6032 82.9949 32.2837 82.4735 29.8289C81.9444 27.2252 82.0186 24.5416 82.6907 21.9685C83.3864 19.283 84.7383 16.7953 86.6343 14.7114C88.5592 12.5723 90.9879 10.9054 93.7185 9.84907C96.3377 8.85579 99.1558 8.44036 101.965 8.63349C104.617 8.80921 107.197 9.5432 109.521 10.7834C113.698 13.0025 116.829 16.6766 118.268 21.0477C118.835 22.9136 119.104 24.8512 119.066 26.7945C118.966 29.8943 118.016 32.9138 116.312 35.5484V35.4759L120.147 42.1025C119.892 41.6853 118.693 39.6941 116.19 35.5439V35.5121V35.4759C117.856 32.8536 118.777 29.8567 118.858 26.7854C118.889 24.8669 118.615 22.955 118.046 21.1158C116.624 16.7946 113.533 13.1605 109.408 10.9603C107.115 9.7418 104.57 9.02326 101.955 8.85574C99.1893 8.66718 96.4148 9.07795 93.8366 10.0577C91.1494 11.0992 88.7597 12.7412 86.8657 14.8474C84.998 16.8997 83.6671 19.3503 82.9836 21.9957C82.317 24.5278 82.2412 27.1701 82.7616 29.7336C83.2665 32.1622 84.3068 34.4588 85.8125 36.4692C88.524 40.1075 92.5773 42.6166 97.1473 43.4859L98.6822 43.7127C99.1923 43.7535 99.6929 43.7672 100.189 43.7989C101.15 43.836 102.112 43.792 103.065 43.6674C106.252 43.2634 109.272 42.0604 111.821 40.1794L112.293 39.8392L111.939 40.2928L111.897 40.1839L120.147 42.1071Z" fill="#263238"/>
<path d="M97.4673 23.9254H98.6291L101.161 20.5327V18.3056C101.161 18.3056 102.955 18.2013 102.747 21.1132C102.54 24.0252 102.747 23.2859 102.747 23.2859C102.747 23.2859 106.559 23.2859 106.875 23.6215C107.107 23.8483 107.21 27.4859 107.248 29.4544C107.275 29.9302 107.134 30.4006 106.849 30.7905C106.564 31.1803 106.151 31.4669 105.676 31.6044C105.542 31.6402 105.404 31.6585 105.265 31.6588C104.32 31.6588 99.4604 30.9149 99.4604 30.9149H97.4532L97.4673 23.9254Z" fill="#1C3B8D"/>
<path d="M94.1407 23.3037L94.8585 30.9282H96.8468V23.4579L94.1407 23.3037Z" fill="#1C3B8D"/>
<path d="M124.472 119.924C124.472 119.924 135.401 119.924 135.85 129.703C136.298 139.482 104.037 191.072 104.037 191.072L93.8213 186.413L115.726 136.353L68.1953 131.862L69.5413 120.378L124.472 119.924Z" fill="#FFBE9D"/>
<path d="M106.191 188.098L105.875 188.792C105.875 188.792 115.887 198.68 114.99 200.957L90.8516 190.525L94.7951 182.95C97.6336 186.103 101.308 187.908 106.191 188.098Z" fill="#1C3B8D"/>
<g opacity="0.6">
<path d="M96.0949 186.479C95.8309 186.447 95.5638 186.51 95.3444 186.654C95.1251 186.799 94.9686 187.016 94.9047 187.264C94.861 187.517 94.92 187.776 95.0694 187.988C95.2188 188.2 95.4473 188.349 95.7076 188.403C95.9872 188.436 96.2696 188.369 96.5006 188.214C96.7316 188.059 96.8949 187.827 96.9592 187.564C96.9776 187.296 96.8868 187.032 96.706 186.828C96.5253 186.624 96.2687 186.496 95.991 186.47" fill="white"/>
</g>
<g opacity="0.6">
<path d="M90.8516 190.533L91.7962 188.718L114.584 199.382C114.584 199.382 115.448 200.289 114.985 200.969L90.8516 190.533Z" fill="white"/>
</g>
<path d="M105.927 188.897C105.87 189.006 105.256 188.806 104.51 188.919C103.764 189.033 103.225 189.373 103.136 189.283C103.046 189.192 103.532 188.611 104.444 188.488C105.355 188.366 106.002 188.801 105.927 188.897Z" fill="#263238"/>
<path d="M107.995 190.986C107.972 191.104 107.367 191.076 106.744 191.385C106.12 191.694 105.766 192.147 105.653 192.093C105.539 192.038 105.761 191.362 106.545 190.995C107.329 190.627 108.043 190.877 107.995 190.986Z" fill="#263238"/>
<path d="M108.065 194.521C107.947 194.521 108.065 193.863 108.636 193.372C109.208 192.882 109.897 192.878 109.902 192.991C109.907 193.105 109.43 193.291 108.957 193.699C108.485 194.108 108.188 194.561 108.065 194.521Z" fill="#263238"/>
<path d="M103.797 83.0596L105.738 88.761L95.1546 89.5547L93.9219 86.5022L103.797 83.0596Z" fill="#FFBE9D"/>
<path d="M133.845 90.5327C134.048 90.9228 134.577 90.9863 134.983 91.1904C135.361 91.3984 135.671 91.7043 135.877 92.0731C136.083 92.442 136.178 92.859 136.149 93.2768C136.081 94.1123 135.794 94.9176 135.313 95.6173C135.166 95.9016 134.951 96.1486 134.685 96.3384C134.551 96.4282 134.391 96.4763 134.227 96.4763C134.063 96.4763 133.903 96.4282 133.769 96.3384C133.457 96.089 133.495 95.6263 133.561 95.2408C133.811 93.7939 133.486 91.966 133.84 90.5373" fill="#FFBE9D"/>
<path d="M63.4617 19.0439C63.372 18.4078 63.5337 17.7626 63.9149 17.2353C64.296 16.7081 64.869 16.3371 65.5209 16.1955L77.2051 9.05625C81.6587 8.09468 87.2694 15.2384 88.0676 19.5474C88.8741 24.2833 89.1905 29.0844 89.0121 33.8802C88.691 41.2553 83.6565 42.0445 83.6565 42.0445L87.4347 66.5691L69.2283 55.7877L63.4617 19.0439Z" fill="#FFBE9D"/>
<path d="M85.6437 25.667C85.6749 25.9084 85.607 26.1519 85.4545 26.3459C85.3019 26.5399 85.0767 26.6692 84.8266 26.7063C84.5805 26.75 84.3264 26.6982 84.1201 26.562C83.9138 26.4259 83.7721 26.2166 83.7262 25.9802C83.695 25.7389 83.7629 25.4954 83.9154 25.3013C84.0679 25.1073 84.2932 24.978 84.5433 24.9409C84.7894 24.8972 85.0435 24.9491 85.2498 25.0852C85.4561 25.2214 85.5978 25.4306 85.6437 25.667Z" fill="#263238"/>
<path d="M87.1335 23.0175C87.039 23.1173 86.2645 23.1037 85.2869 23.4713C84.3093 23.8389 83.6622 24.329 83.5394 24.3018C83.4166 24.2746 83.5394 24.143 83.837 23.9161C84.2472 23.594 84.7121 23.3422 85.2113 23.1718C85.6876 22.9957 86.1934 22.9049 86.7037 22.9041C87.0438 22.895 87.1807 22.9721 87.1335 23.0175Z" fill="#263238"/>
<path d="M75.9567 26.1192C75.9866 26.361 75.9176 26.6045 75.7643 26.7983C75.611 26.9922 75.3854 27.1213 75.1349 27.1584C74.8896 27.2009 74.6367 27.1483 74.4314 27.0123C74.2261 26.8763 74.0852 26.6678 74.0393 26.4323C74.0068 26.1908 74.0742 25.9467 74.2269 25.7524C74.3797 25.5581 74.6057 25.4291 74.8563 25.3931C75.1024 25.3493 75.3565 25.4012 75.5629 25.5374C75.7692 25.6735 75.9108 25.8828 75.9567 26.1192Z" fill="#263238"/>
<path d="M76.9901 24.9175C76.8484 24.972 76.1211 24.5545 74.9924 24.3956C73.8636 24.2368 72.9805 24.3956 72.8718 24.323C72.7632 24.2504 72.9805 24.1733 73.3441 24.087C73.9107 23.9789 74.4927 23.9682 75.0632 24.0553C75.6161 24.128 76.1497 24.3004 76.6359 24.5635C76.9712 24.7496 77.0799 24.8948 76.9901 24.9175Z" fill="#263238"/>
<path d="M81.5892 31.0872C82.1163 30.8581 82.6718 30.695 83.2422 30.6018C83.5019 30.5474 83.7475 30.4703 83.7711 30.2889C83.7628 30.0231 83.6687 29.7663 83.5019 29.5541C83.1871 28.9493 82.847 28.331 82.4818 27.699C81.065 25.0547 79.9882 22.8685 80.1204 22.814C80.2526 22.7596 81.4806 24.8596 82.9069 27.504L83.8939 29.3727C84.0991 29.6626 84.1911 30.0128 84.1537 30.3615C84.1257 30.4556 84.0759 30.5425 84.0081 30.6155C83.9402 30.6886 83.8559 30.7459 83.7617 30.7833C83.6189 30.837 83.4698 30.8735 83.3177 30.8921C82.7523 31.0261 82.1716 31.0917 81.5892 31.0872Z" fill="#263238"/>
<path d="M83.648 42.0634C80.1203 42.5643 76.5171 42.0924 73.2578 40.7026C73.2578 40.7026 76.3607 45.8008 83.8228 44.2768L83.648 42.0634Z" fill="#EB996E"/>
<path d="M81.7044 33.5375C81.4504 33.2198 81.1256 32.9607 80.7537 32.7794C80.3819 32.5981 79.9724 32.4991 79.5555 32.4897C79.3145 32.4946 79.0806 32.5696 78.885 32.7048C78.6893 32.8401 78.5411 33.0292 78.4598 33.2472C78.3782 33.5288 78.3687 33.8251 78.432 34.111C78.4953 34.3969 78.6296 34.6638 78.8234 34.8891C79.0138 35.1276 79.2726 35.3074 79.5679 35.4065C79.8633 35.5056 80.1823 35.5197 80.4859 35.447C80.9786 35.2518 81.3983 34.9183 81.6902 34.49C81.796 34.381 81.8723 34.2485 81.9122 34.1045C81.9294 34.0136 81.9257 33.9201 81.9012 33.8308C81.8767 33.7414 81.8321 33.6583 81.7705 33.5874" fill="#EB996E"/>
<path d="M78.6058 32.1286C78.7758 32.0969 78.9081 33.1809 79.966 33.8431C81.0239 34.5053 82.214 34.2513 82.2424 34.401C82.2424 34.469 82.0015 34.6414 81.4914 34.714C80.8319 34.7965 80.1632 34.6536 79.6023 34.3103C79.0638 33.9779 78.681 33.4574 78.535 32.8589C78.4358 32.3917 78.5302 32.1286 78.6058 32.1286Z" fill="#263238"/>
<path d="M77.3031 20.465C77.2039 20.7373 76.1554 20.6238 74.9417 20.7872C73.7279 20.9506 72.7267 21.2819 72.5567 21.0414C72.4811 20.9234 72.6511 20.6647 73.029 20.3924C73.5572 20.0573 74.1579 19.8422 74.7856 19.7636C75.4133 19.6849 76.0514 19.7448 76.6513 19.9386C77.1142 20.1428 77.3456 20.3334 77.3031 20.465Z" fill="#263238"/>
<path d="M87.2009 20.7854C86.9978 21.035 86.0815 20.8988 85.0095 21.0032C83.9374 21.1076 83.0495 21.3708 82.8134 21.1529C82.7047 21.0486 82.8134 20.8035 83.1959 20.5494C83.7159 20.2291 84.3088 20.0346 84.9239 19.9825C85.5391 19.9303 86.1583 20.0221 86.7286 20.2498C87.1347 20.445 87.2859 20.6628 87.2009 20.7854Z" fill="#263238"/>
<path d="M58.3281 37.8929C58.517 34.6045 59.0648 24.0772 61.2751 18.3349C63.4854 12.5927 66.5977 10.021 69.7998 8.80993C71.0092 8.31367 72.3314 8.12557 73.6387 8.26383C74.9459 8.40209 76.1939 8.86203 77.2618 9.59915C78.9054 10.7149 79.8594 14.3889 79.8594 14.3889C79.8594 14.3889 72.0903 16.9651 69.9415 21.646C67.4525 26.9982 67.0086 29.6017 67.0086 29.6017L66.338 32.4546C66.338 32.4546 67.7973 44.8553 68.4538 47.4225L57.9219 57.2015C58.2667 53.9721 58.1392 41.1768 58.3281 37.8929Z" fill="#263238"/>
<path d="M80.0912 14.4111C80.0912 14.4111 84.5921 13.4359 86.8637 18.1939C87.8933 20.3484 88.9134 26.8707 88.9134 26.8707C88.9134 26.8707 89.296 21.5413 88.7009 18.6429C88.1058 15.7446 86.1459 12.2068 83.5672 10.4152C80.9886 8.62354 79.0333 7.94772 75 8.62808C76.2145 8.91972 77.3172 9.53811 78.1785 10.4106C78.7877 11.0955 79.09 11.7033 80.0912 14.4111Z" fill="#263238"/>
<path d="M67.0989 29.9558C66.825 28.3592 64.8792 27.4884 63.5285 28.4545C62.787 28.9806 62.2864 29.9331 62.5603 31.6295C63.2971 36.1652 67.864 34.5051 67.8499 34.3781C67.8357 34.2511 67.4201 31.82 67.0989 29.9558Z" fill="#FFBE9D"/>
<path d="M66.1409 32.8804C66.1409 32.8804 66.0701 32.9485 65.9426 33.0301C65.7587 33.1374 65.5396 33.1747 65.3286 33.1344C64.8044 33.0346 64.266 32.3361 64.1101 31.5288C64.0346 31.1433 64.0507 30.7463 64.1573 30.3676C64.1767 30.2195 64.2338 30.0783 64.3236 29.9564C64.4134 29.8346 64.5331 29.7359 64.6721 29.6691C64.7629 29.6325 64.8641 29.6269 64.9586 29.6533C65.0532 29.6798 65.1355 29.7366 65.1916 29.8143C65.2766 29.9322 65.2577 30.0229 65.2861 30.0275C65.3144 30.032 65.3758 29.9367 65.2861 29.7553C65.242 29.6474 65.1602 29.5576 65.0547 29.5013C64.9095 29.4275 64.7399 29.4112 64.5824 29.456C64.3948 29.522 64.2279 29.6329 64.0974 29.7782C63.9668 29.9234 63.8769 30.0982 63.8362 30.286C63.7006 30.7059 63.6747 31.1514 63.7606 31.5832C63.9354 32.4904 64.5588 33.2705 65.2719 33.3567C65.4034 33.3727 65.537 33.3603 65.6629 33.3202C65.7887 33.2802 65.9037 33.2136 65.9992 33.1254C66.1504 32.9893 66.1598 32.885 66.1409 32.8804Z" fill="#EB996E"/>
<path d="M71.6641 8.3126C71.6641 8.34889 72.3158 8.25817 73.3549 8.27631C73.9628 8.28777 74.5651 8.39031 75.1401 8.58021C75.8384 8.82822 76.48 9.20408 77.0292 9.68692C78.0457 10.5593 78.8378 11.6461 79.3434 12.8619C79.7307 13.7691 79.8157 14.4131 79.8723 14.4041C79.8655 14.2587 79.8434 14.1143 79.8062 13.9732C79.4297 12.2739 78.4962 10.7351 77.1426 9.5826C76.5761 9.07864 75.9094 8.68985 75.1826 8.4396C74.5921 8.24987 73.9727 8.15636 73.3501 8.16292C72.9332 8.16275 72.5168 8.18851 72.1033 8.24003C71.9551 8.2525 71.8082 8.27677 71.6641 8.3126Z" fill="#1C3B8D"/>
<path d="M63.1248 33.7164C63.1266 33.6907 63.1266 33.665 63.1248 33.6393L63.0587 33.4352C63.0256 33.3399 62.9925 33.2265 62.95 33.0995L62.8225 32.646C62.5651 31.6544 62.4569 30.6326 62.5014 29.6116C62.5614 28.097 62.949 26.6111 63.6396 25.2482C64.5222 23.5982 65.7815 22.1609 67.3234 21.0436C68.1146 20.4571 68.9427 19.9178 69.8028 19.4289C70.6341 18.9481 71.47 18.5489 72.2445 18.1044C73.599 17.3108 74.8875 16.4177 76.0983 15.4329C77.1326 14.5938 77.9308 13.8726 78.4598 13.3646C78.729 13.1106 78.932 12.9111 79.069 12.7705L79.2249 12.6117C79.2579 12.5754 79.2768 12.5573 79.2721 12.5527L79.2154 12.5981L79.0454 12.7478L78.422 13.3329C77.8694 13.8273 77.0618 14.5348 76.0181 15.3558C74.8028 16.3243 73.5147 17.2051 72.1642 17.9911C71.3992 18.4446 70.5538 18.8211 69.7178 19.3064C68.8493 19.7952 68.0148 20.3376 67.2195 20.9302C65.6516 22.0582 64.3723 23.5148 63.479 25.1892C62.7862 26.5711 62.4063 28.0784 62.3644 29.6116C62.3319 30.6412 62.4576 31.6697 62.7375 32.6641L62.8792 33.1177C62.9311 33.2447 62.9737 33.3535 63.0067 33.4488L63.0917 33.6529C63.1106 33.6937 63.1201 33.7164 63.1248 33.7164Z" fill="#1C3B8D"/>
<path d="M61.8124 32.1204C61.8124 32.1204 61.8124 32.0932 61.8124 32.0479L61.784 31.8302C61.784 31.6397 61.7085 31.3766 61.6707 31.0001C61.5594 29.9785 61.5421 28.9494 61.6188 27.9249C61.7341 26.4075 62.0515 24.9106 62.5633 23.4708C63.2026 21.7123 64.1357 20.0654 65.3262 18.5949C66.552 17.1417 67.9826 15.8593 69.5767 14.7849C70.9935 13.7689 72.4104 12.9706 73.5391 12.254C74.6679 11.5374 75.6077 10.9885 76.2359 10.5713C76.5523 10.3717 76.7884 10.2039 76.949 10.0905L77.1332 9.96347L77.1946 9.91357C77.1946 9.91357 77.1663 9.91358 77.1237 9.94986L76.9301 10.0633L76.1981 10.5168C75.5652 10.9114 74.6301 11.4693 73.473 12.1497C72.3159 12.83 70.9369 13.6465 69.4822 14.6625C67.8847 15.7381 66.4537 17.0254 65.2317 18.4861C64.0176 19.9707 63.068 21.6382 62.4216 23.4209C61.9039 24.8748 61.5863 26.3874 61.4771 27.9204C61.4114 28.9494 61.4478 29.9822 61.5857 31.0047C61.6329 31.3675 61.699 31.6442 61.7321 31.8347C61.7321 31.9209 61.7652 31.9934 61.7793 32.0479C61.7935 32.1023 61.8077 32.1204 61.8124 32.1204Z" fill="#1C3B8D"/>
<path d="M87.0313 49.5903C87.0313 49.5903 93.119 51.9671 94.2855 55.0105C95.452 58.054 104.303 83.1864 104.303 83.1864L94.0305 86.9692L89.3455 66.2863L87.0313 49.5903Z" fill="#1C3B8D"/>
<path d="M55.5661 120.961C55.5661 120.961 118.38 118.19 122.323 119.187C126.267 120.185 128.623 122.095 129.407 126.635C130.191 131.175 142.301 191.328 142.301 191.328L131.287 194.44C131.287 194.44 115.834 160.558 115.177 154.888C114.521 149.218 112.344 137.598 112.344 137.598C112.344 137.598 88.4652 137.974 70.8822 137.598C53.2992 137.221 55.6606 121.591 55.6606 121.591L55.5661 120.961Z" fill="#FFBE9D"/>
<path d="M131.136 194.71L131.056 194.528C130.423 193.141 115.584 160.551 114.932 154.909C114.328 149.707 112.424 139.351 112.141 137.823C109.779 137.859 87.4075 138.177 70.8729 137.823C65.4086 137.705 61.2951 136.113 58.6361 133.097C54.6123 128.529 55.3301 122.134 55.4199 121.594L55.2735 120.746H55.5379C58.1072 120.633 118.441 117.984 122.37 118.982C126.782 120.102 128.883 122.311 129.629 126.606C130.404 131.087 142.381 190.696 142.523 191.299L142.56 191.499L131.136 194.71ZM112.533 137.365L112.571 137.555C112.594 137.669 114.753 149.248 115.404 154.859C116.023 160.216 130.182 191.467 131.41 194.161L142.022 191.167C141.248 187.317 129.922 131.024 129.167 126.67C128.458 122.587 126.456 120.474 122.252 119.412C118.531 118.465 60.2844 120.986 55.8308 121.181L55.9016 121.594V121.626C55.9016 121.694 54.957 128.221 59.0092 132.811C61.5784 135.723 65.5739 137.256 70.8918 137.374C88.267 137.746 112.103 137.374 112.344 137.374L112.533 137.365Z" fill="#EB996E"/>
<path d="M59.7981 88.431L61.3802 97.829C61.3802 97.829 54.5086 110.334 53.734 121.084C53.3656 126.191 56.4166 136.65 56.4166 136.65C56.4166 136.65 80.6163 139.204 93.6701 138.877L107.598 138.292L110.054 117.396L94.421 115.228L94.6572 86.7528C94.6572 86.7528 97.4909 79.2552 97.7081 77.0373C98.2087 72.3564 98.0009 67.6211 93.1317 61.5523L87.0298 49.5962L84.9943 48.689L85.9625 63.1716L68.422 47.165L59.5384 50.2266L57.0211 61.634L59.7981 88.431Z" fill="#1C3B8D"/>
<g opacity="0.3">
<path d="M90.2085 118.686C89.0703 118.877 80.8573 118.99 79.7191 119.181C79.5255 119.238 79.3217 119.256 79.1204 119.235C78.919 119.214 78.7242 119.154 78.5479 119.058C78.4057 118.929 78.3072 118.762 78.2651 118.578C78.223 118.395 78.2392 118.203 78.3117 118.029C78.4623 117.677 78.6988 117.366 79.0012 117.121C80.9896 115.307 83.5729 114.259 86.0855 113.234C86.8883 112.912 87.7573 112.581 88.598 112.781C89.0102 112.912 89.383 113.137 89.6842 113.437C89.9853 113.738 90.2058 114.104 90.3266 114.504C90.566 115.304 90.665 116.136 90.6194 116.967" fill="black"/>
</g>
<g opacity="0.3">
<path d="M60.4479 94.9761C63.3808 94.3184 65.2227 91.5425 66.4128 88.8846C67.603 86.2267 68.5853 83.2921 70.9184 81.4596C72.628 80.0989 74.9186 79.5002 76.3969 77.9218C77.0995 77.1486 77.5654 76.2036 77.743 75.1917C77.9205 74.1797 77.8028 73.1403 77.4028 72.1886C76.9778 71.218 76.1229 70.3018 75.0414 70.2473C73.7663 70.1838 72.7745 71.2452 71.9952 72.2204C68.431 76.7047 65.07 81.3311 61.912 86.0997C60.2165 88.6623 58.5257 91.7739 59.7064 94.5905" fill="black"/>
</g>
<path d="M60.4735 51.7197C60.4735 51.7197 55.5098 53.2347 53.7151 56.2237C51.9205 59.2127 48.9451 73.727 48.2272 77.6368C47.5093 81.5466 44.0381 97.6348 48.2272 100.166C52.4163 102.697 57.9232 98.805 59.3589 96.4872C60.7946 94.1695 66.6556 82.1181 66.6556 82.1181L61.3897 77.8681C61.3897 77.8681 62.3343 66.3746 61.9895 63.9571C61.6447 61.5396 60.4735 51.7197 60.4735 51.7197Z" fill="#FFBE9D"/>
<path d="M44.9063 81.5603L56.4252 82.2814L61.6864 76.3487L63.1411 67.0051L62.7538 49.1299C62.7538 49.1299 52.4722 51.5383 50.2478 59.045C48.5995 64.5921 44.9063 81.5603 44.9063 81.5603Z" fill="#1C3B8D"/>
<path d="M65.2908 60.4163C64.6296 60.3301 63.7842 61.0785 64.3462 62.8837C64.8185 64.3896 65.7064 65.8546 65.6403 66.6937C65.5741 67.5328 65.2341 69.2791 65.2341 70.1862C65.193 71.0731 65.1031 71.9573 64.9649 72.8351L57.125 81.9065L63.9117 87.6578L69.2816 79.557C69.2816 79.557 70.9015 79.8156 71.8413 78.7814L73.2582 77.2257C73.2582 77.2257 76.8947 75.933 76.1532 74.0507C76.1532 74.0507 77.23 73.0664 76.2524 71.488C76.2524 71.488 76.7625 69.8461 76.021 68.88C76.021 68.88 75.9549 66.6801 75.3456 66.2901C74.7364 65.9 68.4362 65.8365 68.4362 65.8365C68.0931 64.8307 67.6974 63.8422 67.2507 62.8747C66.5612 61.7816 66.2117 60.5342 65.2908 60.4163Z" fill="#FFBE9D"/>
<path d="M67.971 69.3412C67.971 69.3639 67.8057 69.2777 67.6593 69.0645C67.4686 68.7772 67.3852 68.4362 67.423 68.0974C67.4607 67.7587 67.6174 67.4423 67.8671 67.2003C68.056 67.0234 68.2166 66.969 68.2308 66.9917C67.9499 67.3183 67.7569 67.7061 67.6688 68.1211C67.6692 68.5448 67.7727 68.9626 67.971 69.3412Z" fill="#EB996E"/>
<path d="M75.7455 68.7134C74.7957 68.9794 73.8186 69.1453 72.8315 69.208C71.8527 69.3448 70.8612 69.3767 69.875 69.3033C70.8455 69.1409 71.8247 69.0303 72.8079 68.9721C73.7811 68.8319 74.762 68.7456 75.7455 68.7134Z" fill="#EB996E"/>
<path d="M76.3122 71.3066C75.5294 71.612 74.703 71.8018 73.861 71.8693C73.0309 72.017 72.1824 72.0445 71.3438 71.951C71.3438 71.8829 72.4584 71.8148 73.828 71.6333C75.1976 71.4518 76.298 71.243 76.3122 71.3066Z" fill="#EB996E"/>
<path d="M76.1689 73.9766C74.9469 74.3367 73.6624 74.4586 72.3907 74.3351C73.012 74.2045 73.6442 74.1271 74.2798 74.1037C74.9045 74.0087 75.5366 73.9662 76.1689 73.9766Z" fill="#EB996E"/>
<path d="M70.2144 74.789C70.2144 74.8162 70.0822 74.789 69.9216 74.7028C69.7099 74.5641 69.5613 74.3531 69.506 74.1128C69.4455 73.8752 69.4791 73.6244 69.6004 73.4094C69.6949 73.2505 69.7988 73.187 69.8224 73.2052C69.846 73.2233 69.6288 73.6 69.7421 74.0583C69.8555 74.5167 70.2475 74.73 70.2144 74.789Z" fill="#EB996E"/>
<path d="M68.664 72.6319C68.664 72.6546 68.5081 72.5775 68.3617 72.3824C68.1738 72.1248 68.0657 71.8212 68.05 71.507C68.0306 71.192 68.1025 70.878 68.2578 70.5999C68.3853 70.3912 68.5081 70.3005 68.5318 70.3187C68.3873 70.6938 68.3076 71.0891 68.2956 71.4889C68.3559 71.8859 68.4802 72.2716 68.664 72.6319Z" fill="#EB996E"/>
<path d="M74.2419 76.8397C73.8994 77.0141 73.5232 77.1191 73.1368 77.1483C72.7626 77.2517 72.3699 77.278 71.9844 77.2254C72.3261 77.049 72.7027 76.9439 73.0895 76.9168C73.4632 76.8107 73.8565 76.7844 74.2419 76.8397Z" fill="#EB996E"/>
<path d="M71.2039 65.8781C71.2039 65.9462 70.2593 65.9462 69.0644 66.0596C67.8696 66.1731 66.9486 66.3501 66.9297 66.2865C67.5991 66.014 68.3144 65.8603 69.0408 65.8327C69.7589 65.7247 70.4913 65.74 71.2039 65.8781Z" fill="#EB996E"/>
<path d="M91.9397 87.6802H130.978C131.667 87.6802 132.328 87.943 132.815 88.4108C133.302 88.8787 133.576 89.5132 133.576 90.1748V116.75H89.3516V90.1703C89.3528 89.511 89.6258 88.879 90.1107 88.4124C90.5957 87.9458 91.2532 87.6826 91.9397 87.6802Z" fill="#A8A8A8"/>
<path d="M133.576 118.683H81.625C81.625 118.175 81.835 117.688 82.2088 117.328C82.5825 116.969 83.0895 116.768 83.6181 116.768H133.576V118.683Z" fill="#A8A8A8"/>
<path d="M131.944 89.5464H90.6953V116.765H131.944V89.5464Z" fill="white"/>
<path d="M131.935 116.747C131.935 116.747 131.935 116.575 131.935 116.248C131.935 115.922 131.935 115.432 131.935 114.806C131.935 113.541 131.935 111.69 131.907 109.322C131.907 104.587 131.879 97.797 131.855 89.5284L131.954 89.6237H90.71L90.8328 89.5058C90.8328 99.2258 90.8328 108.456 90.8328 116.72L90.7242 116.611L120.435 116.666L128.936 116.697H131.199H131.78H131.983H131.794H131.222H128.984L120.525 116.725L90.7384 116.779H90.625V116.747C90.625 108.479 90.625 99.2485 90.625 89.533V89.415H90.7478H131.992H132.091V89.533C132.091 97.8243 132.054 104.637 132.039 109.386C132.039 111.744 132.039 113.586 132.039 114.829C132.039 115.45 132.039 115.926 132.039 116.253C132.039 116.579 131.935 116.747 131.935 116.747Z" fill="#263238"/>
<path d="M133.351 116.746C133.351 116.814 122.2 116.864 108.447 116.864C94.6944 116.864 83.5391 116.814 83.5391 116.746C83.5391 116.678 94.6897 116.628 108.447 116.628C122.205 116.628 133.351 116.701 133.351 116.746Z" fill="#263238"/>
<path d="M111.308 113.572C117.294 113.572 122.147 108.911 122.147 103.162C122.147 97.4134 117.294 92.7529 111.308 92.7529C105.322 92.7529 100.469 97.4134 100.469 103.162C100.469 108.911 105.322 113.572 111.308 113.572Z" fill="#1C3B8D"/>
<path d="M104.57 103.421L106.866 101.334L110.035 104.137L116.273 98.4995L118.54 100.559L110.002 108.342L104.57 103.421Z" fill="white"/>
<path d="M64.9686 72.8324C65.0205 72.8732 61.7665 76.6469 57.7002 81.2552C53.6338 85.8635 50.2948 89.5646 50.2428 89.5329C50.1909 89.5011 53.4449 85.7229 57.5112 81.11C61.5776 76.4972 64.9166 72.7915 64.9686 72.8324Z" fill="#EB996E"/>
<path d="M64.404 66.9951C64.2978 68.311 64.1101 69.6196 63.842 70.914C63.656 72.2225 63.3879 73.5191 63.0391 74.7966C63.1451 73.4792 63.3328 72.1691 63.6011 70.8732C63.7901 69.5666 64.0582 68.2717 64.404 66.9951Z" fill="#263238"/>
<path d="M94.6624 86.7479C94.6793 86.6553 94.7045 86.5642 94.7379 86.4758L94.993 85.7138C95.2197 85.0561 95.555 84.1036 95.9375 82.9198C96.3943 81.5367 96.7758 80.1318 97.0805 78.7106C97.461 76.9755 97.6305 75.2038 97.5858 73.4311C97.4151 70.2035 96.4713 67.0572 94.8277 64.2372C94.3396 63.3785 93.8035 62.5457 93.2219 61.7425C93.0236 61.4568 92.8535 61.2436 92.7496 61.0939C92.6889 61.0194 92.6366 60.9388 92.5938 60.8535C92.6659 60.9162 92.7308 60.9862 92.7874 61.0622C92.9102 61.2073 93.0944 61.4114 93.3069 61.6926C93.9208 62.4788 94.4824 63.3014 94.9883 64.1555C95.74 65.4271 96.3585 66.7672 96.8349 68.156C97.4274 69.8573 97.7691 71.6298 97.8503 73.422C97.8979 75.2139 97.7203 77.0049 97.3213 78.756C97.0034 80.1809 96.6029 81.5876 96.1217 82.9697C95.7156 84.149 95.3566 85.0969 95.1016 85.7455C94.9788 86.0479 94.8796 86.2974 94.8041 86.4939C94.7678 86.5838 94.7202 86.6691 94.6624 86.7479Z" fill="#263238"/>
<path d="M84.6187 72.6187C84.6381 72.8299 84.6381 73.0424 84.6187 73.2536C84.618 73.5026 84.5991 73.7511 84.5621 73.9975C84.528 74.3265 84.476 74.6535 84.4062 74.9772C84.3306 75.3699 84.2297 75.7577 84.1039 76.1384C83.9709 76.5801 83.8132 77.0146 83.6317 77.4401C83.1958 78.3999 82.6543 79.3123 82.0165 80.1615C81.3627 81.0092 80.6135 81.785 79.7826 82.4748C79.4184 82.7735 79.0368 83.0522 78.6397 83.3093C78.2999 83.5411 77.9449 83.7517 77.577 83.9398C77.272 84.1091 76.9565 84.2606 76.6325 84.3934C76.4004 84.502 76.1605 84.5944 75.9146 84.67C75.7102 84.7509 75.4983 84.8132 75.2817 84.856C75.2581 84.8061 76.1649 84.5385 77.4684 83.8083C77.8249 83.6115 78.1702 83.3965 78.5027 83.1642C78.8711 82.9283 79.2253 82.629 79.6125 82.3251C81.2399 80.9501 82.5301 79.2462 83.3908 77.3358C83.5709 76.9206 83.7286 76.4967 83.8631 76.0658C83.9936 75.6909 84.1024 75.3093 84.189 74.9228C84.5809 73.5258 84.5715 72.6187 84.6187 72.6187Z" fill="#263238"/>
<path d="M97.6165 76.7464C97.5896 76.7214 97.5673 76.6923 97.5504 76.6602L97.3851 76.3835C97.2293 76.1341 97.0167 75.7939 96.7475 75.3721C96.4783 74.9503 96.058 74.4332 95.6188 73.8435C95.1796 73.2539 94.6223 72.6098 94.0319 71.8886C91.6044 69.0402 88.0198 65.2983 83.9109 61.3023C79.8021 57.3063 75.9435 53.8229 73.1146 51.3237L71.1877 49.6682C70.6209 49.1874 70.1298 48.761 69.7189 48.4345L68.7743 47.6679L68.5334 47.4638C68.5024 47.4426 68.4752 47.4166 68.4532 47.3867C68.487 47.4027 68.5187 47.4225 68.5476 47.4457C68.6185 47.4956 68.7035 47.5545 68.8026 47.6316L69.7755 48.3619L71.2727 49.5684C71.8536 50.0492 72.5053 50.598 73.2232 51.2013C76.0899 53.6505 79.9579 57.1294 84.0857 61.1209C88.2134 65.1123 91.7697 68.886 94.1641 71.7662C94.7498 72.4964 95.2787 73.1541 95.7321 73.7438L96.8278 75.304C97.0781 75.7576 97.3001 76.0842 97.4276 76.3427L97.5787 76.6149C97.6102 76.7026 97.6228 76.7464 97.6165 76.7464Z" fill="#263238"/>
<path d="M88.4445 97.7284C88.3577 97.7575 88.2671 97.7744 88.1753 97.7783L87.4055 97.8827C86.7348 97.9689 85.7572 98.0688 84.5718 98.1732C82.1584 98.3819 78.8099 98.5498 75.1261 98.509C71.4423 98.4681 68.0797 98.2095 65.6805 97.9462C64.4762 97.8146 63.5033 97.6876 62.8468 97.5832L62.077 97.4652C61.9867 97.4557 61.8979 97.4359 61.8125 97.4062C61.9035 97.3952 61.9955 97.3952 62.0865 97.4062L62.861 97.4834C63.5316 97.5605 64.5093 97.6603 65.6947 97.7693C68.0986 97.9916 71.4376 98.2231 75.1403 98.2639C78.843 98.3048 82.1726 98.1595 84.5859 97.9962C85.7903 97.9145 86.7679 97.8419 87.4196 97.7829L88.1942 97.7239C88.2775 97.717 88.3614 97.7185 88.4445 97.7284Z" fill="#263238"/>
<path d="M108.891 87.6439C108.891 87.6439 116.627 84.7455 117.359 84.5142C118.091 84.2829 124.854 83.7749 124.854 83.7749L133.572 86.7821C133.572 86.7821 133.652 88.5011 131.617 88.2698C129.822 87.9787 128.053 87.5603 126.323 87.0179L125.099 87.7164L108.891 87.6439Z" fill="#FFBE9D"/>
<path d="M133.155 88.7536C133.358 89.1482 133.887 89.2071 134.293 89.4158C134.669 89.6266 134.976 89.933 135.182 90.3011C135.388 90.6693 135.484 91.085 135.46 91.5022C135.392 92.3363 135.104 93.1401 134.624 93.8381C134.476 94.1199 134.263 94.3652 134 94.5547C133.866 94.6445 133.706 94.6926 133.542 94.6926C133.378 94.6926 133.218 94.6445 133.084 94.5547C132.955 94.4039 132.868 94.2239 132.832 94.0318C132.795 93.8397 132.811 93.6419 132.876 93.4571C133.126 92.0102 132.801 90.1778 133.155 88.749" fill="#FFBE9D"/>
<path d="M141.914 189.083L142.179 189.791C142.179 189.791 156.536 190.33 157.519 192.571L132.544 200.998L129.961 192.902C134.282 193.301 138.235 192.176 141.914 189.083Z" fill="#1C3B8D"/>
<g opacity="0.6">
<path d="M133.427 194.592C133.212 194.745 133.062 194.967 133.008 195.218C132.953 195.469 132.996 195.731 133.129 195.953C133.28 196.169 133.511 196.32 133.776 196.375C134.04 196.43 134.316 196.385 134.546 196.248C134.774 196.088 134.932 195.852 134.988 195.586C135.045 195.32 134.997 195.044 134.853 194.81C134.673 194.606 134.418 194.476 134.141 194.449C133.863 194.421 133.586 194.497 133.365 194.661" fill="white"/>
</g>
<g opacity="0.6">
<path d="M132.548 200.996L131.93 199.05L156.092 191.684C156.092 191.684 157.372 191.775 157.508 192.591L132.548 200.996Z" fill="white"/>
</g>
<path d="M142.292 189.83C142.33 189.948 141.74 190.207 141.277 190.787C140.814 191.368 140.677 191.966 140.55 191.957C140.422 191.948 140.351 191.209 140.923 190.519C141.494 189.83 142.278 189.712 142.292 189.83Z" fill="#263238"/>
<path d="M145.293 189.985C145.364 190.089 144.906 190.466 144.674 191.101C144.443 191.736 144.514 192.303 144.391 192.339C144.268 192.375 143.947 191.736 144.254 190.951C144.561 190.166 145.251 189.876 145.293 189.985Z" fill="#263238"/>
<path d="M147.883 192.496C147.784 192.559 147.41 192.042 147.477 191.285C147.543 190.527 148.034 190.092 148.119 190.169C148.204 190.246 147.982 190.713 147.925 191.326C147.869 191.938 148.001 192.441 147.883 192.496Z" fill="#263238"/>
</svg>
