<svg width="311" height="313" viewBox="0 0 311 313" fill="none" xmlns="http://www.w3.org/2000/svg">
<g clip-path="url(#clip0_54_2113)">
<path d="M275.499 216.852H295.094V208.571H275.499V216.852Z" fill="#646464"/>
<path d="M286.44 227.29L296.319 227.083L301.188 227.001C302.809 226.964 304.422 227.001 306.035 226.957L305.702 227.29V219.009L306.072 219.379L296.275 219.335C293.011 219.335 289.741 219.246 286.477 219.209L286.677 219.009C286.677 220.364 286.618 221.725 286.581 223.102L286.44 227.29ZM286.44 227.29L286.307 223.227C286.27 221.851 286.218 220.452 286.211 219.046V218.787H286.418C289.681 218.743 292.952 218.669 296.216 218.662L306.013 218.617H306.383V218.987L306.339 227.268V227.601H306.013C304.363 227.601 302.705 227.601 301.055 227.564L296.127 227.482L286.44 227.29Z" fill="#646464"/>
<path d="M142.114 145.961L152 145.754L156.862 145.673C158.482 145.636 160.096 145.673 161.709 145.636L161.376 145.961L161.339 137.681L161.709 138.051L151.911 138.006C148.648 138.006 145.377 137.925 142.114 137.881L142.314 137.681C142.314 139.035 142.254 140.397 142.217 141.78L142.114 145.961ZM142.114 145.961L142.01 141.832C141.973 140.456 141.929 139.057 141.914 137.651V137.451H142.121C145.385 137.414 148.655 137.333 151.919 137.326L161.716 137.281H162.086V137.651L162.049 145.932V146.272H161.724C160.073 146.272 158.416 146.272 156.773 146.228L151.837 146.146L142.114 145.961Z" fill="#646464"/>
<path d="M153.038 156.398H172.633V148.118H153.038V156.398Z" fill="#646464"/>
<path d="M131.012 156.4L140.899 156.193L145.768 156.112C147.388 156.075 148.994 156.112 150.607 156.075L150.282 156.4L150.237 148.12L150.607 148.49L140.81 148.446C137.546 148.446 134.283 148.364 131.012 148.32L131.219 148.12C131.219 149.474 131.153 150.836 131.123 152.22L131.012 156.4ZM131.012 156.4L130.909 152.301C130.909 150.925 130.827 149.526 130.812 148.12V147.92H131.012C134.283 147.92 137.546 147.802 140.81 147.794L150.607 147.75H150.985V148.12L150.948 156.4V156.733H150.615C148.964 156.733 147.307 156.733 145.664 156.689L140.736 156.608L131.012 156.4Z" fill="#646464"/>
<path d="M172.28 51.5234H191.875V43.243H172.28V51.5234Z" fill="#646464"/>
<path d="M4.62167 227.29L14.5079 227.083L19.377 227.001C20.9902 226.964 22.6034 227.001 24.2165 226.957L23.8909 227.29L23.8465 219.009L24.2165 219.379L14.4191 219.335C11.1558 219.335 7.88502 219.246 4.62167 219.209L4.82147 219.009C4.82147 220.364 4.76227 221.725 4.72527 223.102L4.62167 227.29ZM4.62167 227.29L4.51807 223.227C4.48107 221.851 4.43667 220.452 4.42188 219.046V218.787H4.62167C7.88502 218.743 11.1558 218.669 14.4191 218.662L24.2165 218.617H24.5865V218.987V227.268V227.601H24.2535C22.6034 227.601 20.9458 227.601 19.303 227.564L14.3747 227.482L4.62167 227.29Z" fill="#646464"/>
<path d="M15.5526 17.6583L25.4388 17.4511L30.308 17.3697C31.9285 17.3327 33.5343 17.3697 35.1475 17.3253L34.8219 17.6583L34.7775 9.37041L35.1475 9.7404L25.35 9.696C22.0867 9.696 18.8233 9.6072 15.5526 9.5702L15.7598 9.37041C15.7598 10.7246 15.6932 12.0862 15.6562 13.4699L15.5526 17.6583ZM15.5526 17.6583L15.4712 13.5587C15.4712 12.1824 15.3898 10.7838 15.375 9.37781V9.17801H15.5748C18.8455 9.14101 22.1089 9.05961 25.3722 9.05221L35.1697 9.00781H35.5471V9.37041L35.4509 17.6583V17.9913H35.1179C33.4677 17.9913 31.8101 17.9913 30.1674 17.9469L25.239 17.8655L15.5526 17.6583Z" fill="#646464"/>
<path d="M4.62388 28.1016L24.2188 28.1016V19.8211H4.62388V28.1016Z" fill="#646464"/>
<path d="M286.44 17.6583L296.319 17.4511L301.188 17.3697C302.809 17.3327 304.422 17.3697 306.035 17.3253L305.702 17.6583V9.37781L306.072 9.7478L296.275 9.7034C293.011 9.7034 289.741 9.6146 286.477 9.5776L286.677 9.37781C286.677 10.732 286.618 12.0936 286.581 13.4773L286.44 17.6583ZM286.44 17.6583L286.307 13.5587C286.27 12.1824 286.218 10.7838 286.211 9.37781V9.17801H286.418C289.681 9.14101 292.952 9.05961 296.216 9.05221L306.013 9.00781H306.383V9.37041L306.361 17.6583V17.9913H306.035C304.385 17.9913 302.727 17.9913 301.077 17.9469L296.149 17.8655L286.44 17.6583Z" fill="#646464"/>
<path d="M95.5859 254.141H42.3438V313.095H95.5859V254.141Z" fill="#646464"/>
<path d="M14.861 313.102H42.3516L42.3516 254.139H14.861L14.861 313.102Z" fill="#DCDCDC"/>
<path d="M16.75 309.07C18.7924 304.877 20.8101 300.683 22.8031 296.49L28.7896 283.74L34.7095 271.005C36.6828 266.752 38.6166 262.485 40.511 258.203C38.4686 262.396 36.4509 266.602 34.4579 270.82L28.4936 283.503L22.5737 296.238C20.6053 300.496 18.6641 304.773 16.75 309.07Z" fill="#646464"/>
<path d="M16.75 258.203C18.6641 262.49 20.5979 266.757 22.5515 271.005L28.4714 283.74L34.4357 296.423C36.4337 300.641 38.4514 304.835 40.4888 309.003C38.5747 304.721 36.6409 300.454 34.6873 296.201L28.7674 283.466L22.8031 270.783C20.8051 266.59 18.7874 262.396 16.75 258.203Z" fill="#646464"/>
<path d="M95.5859 165.094H42.3438V219.986H95.5859V165.094Z" fill="#646464"/>
<path d="M14.861 220H42.3516L42.3516 165.1H14.861L14.861 220Z" fill="#DCDCDC"/>
<path d="M64.4531 177.836H65.5853H66.4289L66.9099 176.852L67.5907 177.836L68.5083 175.816L69.3814 177.836H71.8752H73.0074L73.4218 176.49L73.8066 177.836H74.5466V165.094H64.4531V177.836Z" fill="#DCDCDC"/>
<path d="M16.75 216.499C18.7924 212.602 20.8101 208.68 22.8031 204.734L28.7674 192.894L34.6873 181.054C36.6606 177.107 38.5944 173.134 40.4888 169.133C38.4464 173.04 36.4287 176.957 34.4357 180.884L28.4714 192.687L22.5515 204.526C20.5979 208.517 18.6641 212.508 16.75 216.499Z" fill="#646464"/>
<path d="M16.75 169.156C18.6641 173.137 20.5979 177.101 22.5515 181.048L28.4714 192.888L34.4357 204.727C36.4337 208.674 38.4514 212.591 40.4888 216.478C38.5747 212.492 36.6409 208.519 34.6873 204.557L28.7674 192.717L22.8031 180.915C20.8051 176.983 18.7874 173.063 16.75 169.156Z" fill="#646464"/>
<path d="M45.8531 216.586H51.7656V210.673H45.8531V216.586Z" fill="white"/>
<path d="M92.0468 220H38.8047V254.143H92.0468V220Z" fill="#DCDCDC"/>
<path d="M11.3141 254.141H38.8047L38.8047 219.998H11.3141L11.3141 254.141Z" fill="#9C9C9C"/>
<path d="M60.9062 232.743H62.031H62.882L63.363 231.758L64.0438 232.743L64.9614 230.722L65.8346 232.743H68.3209H69.4605L69.8675 231.396L70.2597 232.743H70.9997V220H60.9062V232.743Z" fill="white"/>
<path d="M13.2031 252.088C15.2406 249.621 17.2583 247.132 19.2562 244.621L25.2205 237.118L31.1404 229.577C33.0841 227.062 35.0155 224.536 36.9345 222C34.902 224.467 32.8843 226.955 30.8814 229.466L24.9171 236.977L18.9972 244.51C17.0486 247.041 15.1172 249.567 13.2031 252.088Z" fill="#DCDCDC"/>
<path d="M13.2031 222.023C15.1222 224.559 17.056 227.085 19.0046 229.601L24.9245 237.141L30.8888 244.645C32.8621 247.141 34.8749 249.623 36.9271 252.089C35.018 249.553 33.0866 247.028 31.133 244.512L25.2131 236.979L19.2488 229.468C17.2558 226.991 15.2406 224.51 13.2031 222.023Z" fill="#DCDCDC"/>
<path d="M299.344 261.523H246.102V313.101H299.344V261.523Z" fill="#DCDCDC"/>
<path d="M218.619 313.102H246.109V261.524H218.619V313.102Z" fill="#9C9C9C"/>
<path d="M268.203 274.266H269.328H270.179L270.66 273.282L271.341 274.266L272.258 272.246L273.131 274.266H275.618H276.757L277.172 272.912L277.557 274.266H278.297V261.523H268.203V274.266Z" fill="white"/>
<path d="M220.508 310.029C222.545 306.285 224.563 302.526 226.561 298.752L232.525 287.415L238.445 276.034C240.418 272.23 242.35 268.417 244.239 264.594C242.207 268.338 240.189 272.097 238.186 275.871L232.222 287.2L226.339 298.589C224.385 302.392 222.442 306.206 220.508 310.029Z" fill="#DCDCDC"/>
<path d="M220.508 264.594C222.427 268.417 224.361 272.23 226.309 276.034L232.192 287.415L238.157 298.752C240.154 302.526 242.172 306.285 244.21 310.029C242.3 306.201 240.369 302.387 238.416 298.589L232.496 287.2L226.531 275.871C224.553 272.097 222.545 268.338 220.508 264.594Z" fill="#DCDCDC"/>
<path d="M206.773 6.41406V132.286H293.396V6.41406H206.773ZM290.2 129.052H209.97V9.57381H290.2V129.052Z" fill="#646464"/>
<path d="M290.198 9.57031H209.969V129.049H290.198V9.57031Z" fill="white"/>
<path d="M209.966 74.6094L290.195 74.6094V71.4126L209.966 71.4126V74.6094Z" fill="#646464"/>
<path d="M200.877 141.414H299.273V132.238H200.877V141.414Z" fill="#DCDCDC"/>
<path d="M203.492 145.084L296.671 147.038V141.414H203.492V145.084Z" fill="#646464"/>
<path d="M209.969 9.57031H290.198V91.6571H209.969V9.57031ZM287.238 12.5303H212.929V88.6972H287.238V12.5303Z" fill="#DCDCDC"/>
<path d="M264.591 9.57031H262.992V88.6972H264.591V9.57031Z" fill="#DCDCDC"/>
<path d="M237.169 9.57031H235.57V88.6972H237.169V9.57031Z" fill="#DCDCDC"/>
<path d="M17.2578 6.41406V132.286H103.881V6.41406H17.2578ZM100.684 129.052H20.4546V9.57381H100.684V129.052Z" fill="#646464"/>
<path d="M100.69 9.57031H20.4609V129.049H100.69V9.57031Z" fill="white"/>
<path d="M20.458 74.6094L100.688 74.6094V71.4126L20.458 71.4126V74.6094Z" fill="#646464"/>
<path d="M11.3695 141.414H109.766V132.238H11.3695V141.414Z" fill="#DCDCDC"/>
<path d="M13.9844 145.084L107.164 147.038V141.414H13.9844V145.084Z" fill="#646464"/>
<path d="M20.4609 9.57031H100.69V91.6571H20.4609V9.57031ZM97.7304 12.5303H23.4209V88.6972H97.7304V12.5303Z" fill="#DCDCDC"/>
<path d="M75.0828 9.57031H73.4844V88.6972H75.0828V9.57031Z" fill="#DCDCDC"/>
<path d="M47.6609 9.57031H46.0625V88.6972H47.6609V9.57031Z" fill="#DCDCDC"/>
<path d="M220.965 252.125H147.203V313.07H220.965V252.125Z" fill="#1C3B8D"/>
<path opacity="0.1" d="M220.965 252.125H147.203V313.07H220.965V252.125Z" fill="black"/>
<path d="M250.198 252.133H220.969V313.078H250.198V252.133Z" fill="#1C3B8D"/>
<path opacity="0.2" d="M250.198 252.133H220.969V313.078H250.198V252.133Z" fill="black"/>
<path d="M248.173 308.875C246.012 304.543 243.869 300.197 241.743 295.836L235.401 282.723L229.141 269.559C227.069 265.164 225.014 260.753 222.977 256.328C225.147 260.664 227.293 265.011 229.414 269.367L235.749 282.479L242.009 295.644C244.091 300.039 246.146 304.45 248.173 308.875Z" fill="#1C3B8D"/>
<path d="M248.173 256.328C246.141 260.768 244.086 265.178 242.009 269.559L235.749 282.723L229.414 295.836C227.288 300.192 225.142 304.538 222.977 308.875C225.014 304.435 227.069 300.024 229.141 295.644L235.401 282.479L241.743 269.374C243.869 265.008 246.012 260.66 248.173 256.328Z" fill="#1C3B8D"/>
<path d="M189.301 265.297H188.139H187.259L186.763 264.283L186.06 265.297L185.105 263.21L184.21 265.297H181.635H180.458L180.029 263.906L179.629 265.297H178.867V252.133H189.301V265.297Z" fill="white"/>
<path d="M225.416 191.188H170.383V252.125H225.416V191.188Z" fill="#1C3B8D"/>
<path d="M253.83 191.188H225.414V252.133H253.83V191.188Z" fill="#1C3B8D"/>
<path opacity="0.1" d="M253.83 191.188H225.414V252.133H253.83V191.188Z" fill="black"/>
<g opacity="0.1">
<path d="M221.383 247.936C217.342 243.599 213.337 239.253 209.365 234.897L197.503 221.755L185.819 208.59C181.941 204.195 178.103 199.785 174.305 195.359C178.35 199.696 182.356 204.044 186.322 208.405L198.162 221.511L209.846 234.675C213.739 239.09 217.584 243.51 221.383 247.936Z" fill="black"/>
<path d="M221.384 195.391C217.58 199.831 213.742 204.241 209.87 208.622L198.185 221.756L186.346 234.869C182.399 239.225 178.393 243.571 174.328 247.908C178.132 243.468 181.97 239.057 185.842 234.677L197.505 221.542L209.344 208.437C213.325 204.071 217.339 199.722 221.384 195.391Z" fill="black"/>
</g>
<path d="M249.832 241.82H244.852V248.85H249.832V241.82Z" fill="white"/>
<path d="M1 313.104L39.583 312.919L78.1659 312.86L155.324 312.734L232.483 312.86L271.066 312.919L309.649 313.104L271.066 313.282L232.483 313.349L155.324 313.474L78.1659 313.349L39.583 313.282L1 313.104Z" fill="#263238"/>
<path d="M184.72 103.203C184.305 102.937 183.891 102.678 183.477 102.426L183.765 101.945L185.023 102.737L184.72 103.203Z" fill="#263238"/>
<path d="M166.65 177.35H166.117V176.795C167.105 176.817 168.094 176.78 169.077 176.684L169.136 177.239C168.33 177.298 167.486 177.35 166.65 177.35ZM172.141 176.743L172.022 176.203C172.985 175.985 173.93 175.695 174.849 175.337L175.049 175.855C174.102 176.218 173.13 176.51 172.141 176.728V176.743ZM177.787 174.523L177.513 174.042C178.364 173.545 179.173 172.981 179.933 172.355L180.288 172.777C179.505 173.43 178.668 174.017 177.787 174.53V174.523ZM182.471 170.675L182.064 170.298C182.728 169.568 183.339 168.791 183.892 167.974L184.35 168.285C183.783 169.131 183.155 169.935 182.471 170.69V170.675ZM185.86 165.651L185.357 165.414C185.779 164.523 186.123 163.597 186.385 162.646L186.918 162.794C186.65 163.778 186.295 164.736 185.86 165.658V165.651ZM187.458 159.79L186.903 159.745C186.903 159.346 186.955 158.939 186.955 158.547C186.953 157.998 186.921 157.449 186.859 156.904C186.283 156.865 185.71 156.794 185.142 156.689L185.238 156.142C186.142 156.305 187.058 156.389 187.976 156.393H188.169V156.948H187.969H187.414C187.473 157.484 187.503 158.022 187.503 158.561C187.51 158.961 187.488 159.383 187.458 159.797V159.79ZM191.21 156.578L191.084 156.038C192.036 155.813 192.958 155.475 193.83 155.032L194.081 155.527C193.169 155.993 192.206 156.348 191.21 156.586V156.578ZM182.197 155.89C181.24 155.545 180.312 155.124 179.422 154.632L179.696 154.151C180.557 154.627 181.456 155.033 182.382 155.365L182.197 155.89ZM186.178 153.937C185.854 153.011 185.427 152.125 184.905 151.295L185.372 150.999C185.92 151.862 186.367 152.786 186.704 153.752L186.178 153.937ZM196.627 153.818L196.272 153.396C197.022 152.762 197.709 152.056 198.321 151.287L198.751 151.635C198.119 152.44 197.407 153.178 196.627 153.84V153.818ZM176.914 152.93L176.758 152.782C176.026 152.139 175.442 151.343 175.049 150.451L175.567 150.244C175.928 151.061 176.463 151.788 177.136 152.375L177.284 152.508L176.914 152.93ZM200.467 149.149L199.994 148.86C200.512 148.002 200.993 147.121 201.415 146.255L201.918 146.5C201.489 147.38 201 148.276 200.467 149.149ZM183.063 149.038C182.387 148.383 181.643 147.803 180.843 147.306L180.732 147.232L181.021 146.759L181.139 146.833C181.964 147.353 182.73 147.961 183.426 148.646L183.063 149.038ZM175.715 147.61L175.256 147.299C175.573 146.854 175.993 146.492 176.48 146.244C176.967 145.997 177.507 145.871 178.053 145.878V146.433C177.598 146.43 177.149 146.536 176.743 146.74C176.336 146.945 175.984 147.243 175.715 147.61ZM203.094 143.71L202.576 143.517C202.919 142.589 203.213 141.643 203.457 140.683L203.99 140.817C203.751 141.798 203.455 142.764 203.102 143.71H203.094ZM204.574 137.842L204.019 137.768C204.151 136.786 204.228 135.798 204.249 134.808H204.804C204.784 135.823 204.707 136.835 204.574 137.842ZM204.145 131.848C204.056 130.855 203.915 129.867 203.723 128.888L204.271 128.777C204.464 129.768 204.607 130.768 204.7 131.774L204.145 131.848ZM202.998 126.032C202.717 125.099 202.384 124.159 201.999 123.227L202.517 123.02C202.902 123.96 203.257 124.922 203.531 125.869L202.998 126.032ZM200.778 120.519C200.334 119.653 199.838 118.78 199.298 117.921L199.772 117.633C200.305 118.499 200.808 119.386 201.252 120.267L200.778 120.519ZM197.663 115.442C197.093 114.643 196.479 113.851 195.843 113.082L196.272 112.727C196.915 113.504 197.537 114.31 198.114 115.117L197.663 115.442ZM193.874 110.84C193.201 110.1 192.49 109.411 191.765 108.731L192.143 108.324C192.883 109.019 193.623 109.737 194.274 110.462L193.874 110.84ZM189.53 106.747C188.79 106.119 187.984 105.497 187.192 104.905L187.518 104.461C188.324 105.053 189.123 105.682 189.886 106.326L189.53 106.747Z" fill="#263238"/>
<path d="M163.019 177.08C162.521 177.018 162.027 176.929 161.539 176.814L161.672 176.273C161.672 176.273 162.205 176.407 163.093 176.532L163.019 177.08Z" fill="#263238"/>
<path d="M155.546 175.981C155.198 178.94 161.244 180.598 161.702 176.72C162.161 172.843 155.893 172.998 155.546 175.981Z" fill="#263238"/>
<path d="M163.463 180.879C162.901 181.996 160.91 182.151 158.853 180.716C157.456 179.649 156.275 178.326 155.375 176.816C157.115 176.635 158.873 176.788 160.555 177.267C162.989 178.089 164.055 179.746 163.463 180.879Z" fill="#646464"/>
<path d="M155.398 176.812C156.568 177.338 157.715 177.908 158.862 178.47C160.009 179.032 161.141 179.632 162.258 180.253C161.089 179.728 159.942 179.158 158.795 178.596C157.648 178.033 156.516 177.434 155.398 176.812Z" fill="#263238"/>
<path d="M160.776 180.857C160.511 180.548 160.264 180.225 160.036 179.887C159.813 179.552 159.61 179.204 159.43 178.844C159.695 179.152 159.942 179.476 160.17 179.813C160.395 180.147 160.597 180.496 160.776 180.857Z" fill="#263238"/>
<path d="M158.289 178.261C158.696 178.155 159.109 178.071 159.525 178.009C159.944 177.95 160.367 177.913 160.79 177.898C159.971 178.103 159.133 178.224 158.289 178.261Z" fill="#263238"/>
<path d="M157.642 178.744C157.388 178.428 157.206 178.059 157.109 177.664C157.364 177.981 157.546 178.35 157.642 178.744Z" fill="#263238"/>
<path d="M164.446 173.127C164.158 171.906 162.264 171.299 159.933 172.217C158.324 172.933 156.867 173.95 155.641 175.214C157.304 175.79 159.062 176.041 160.821 175.954C163.314 175.746 164.742 174.385 164.446 173.127Z" fill="#646464"/>
<path d="M155.641 175.214C156.899 174.977 158.149 174.681 159.392 174.392C160.636 174.104 161.879 173.793 163.092 173.445C161.842 173.682 160.591 173.978 159.348 174.267C158.105 174.555 156.876 174.866 155.641 175.214Z" fill="#263238"/>
<path d="M161.8 172.523C161.478 172.752 161.169 173 160.875 173.263C160.582 173.54 160.302 173.831 160.039 174.137C160.364 173.912 160.673 173.665 160.964 173.397C161.26 173.122 161.539 172.831 161.8 172.523Z" fill="#263238"/>
<path d="M158.766 174.477C159.515 174.867 160.304 175.177 161.119 175.402C160.371 175.008 159.581 174.698 158.766 174.477Z" fill="#263238"/>
<path d="M158.285 173.852C158.124 173.972 157.977 174.111 157.849 174.266C157.721 174.425 157.609 174.596 157.516 174.777C157.677 174.653 157.824 174.512 157.952 174.355C158.087 174.204 158.199 174.034 158.285 173.852Z" fill="#263238"/>
<path d="M155.549 175.975C155.761 176 155.961 176.087 156.124 176.225C156.286 176.363 156.404 176.546 156.463 176.752C156.522 176.957 156.518 177.175 156.453 177.378C156.388 177.581 156.264 177.761 156.097 177.894C155.93 178.026 155.728 178.107 155.515 178.125C155.302 178.143 155.089 178.097 154.902 177.994C154.715 177.891 154.563 177.735 154.465 177.546C154.367 177.356 154.327 177.142 154.35 176.93C154.384 176.645 154.528 176.384 154.753 176.206C154.978 176.027 155.264 175.944 155.549 175.975Z" fill="#455A64"/>
<path d="M155.804 173.828C155.945 173.844 156.082 173.888 156.206 173.958C156.33 174.027 156.44 174.12 156.528 174.232C156.616 174.344 156.682 174.472 156.721 174.609C156.759 174.745 156.771 174.889 156.754 175.03C156.738 175.172 156.694 175.308 156.624 175.433C156.555 175.557 156.462 175.666 156.35 175.755C156.238 175.843 156.111 175.908 155.974 175.947C155.837 175.986 155.693 175.998 155.552 175.981C155.266 175.948 155.006 175.802 154.827 175.577C154.649 175.351 154.568 175.064 154.601 174.779C154.634 174.493 154.78 174.232 155.005 174.054C155.231 173.876 155.518 173.794 155.804 173.828Z" fill="#455A64"/>
<path d="M88.7252 245.656C88.7252 245.656 72.9486 277.246 72.9412 277.246C71.6389 283.766 70.6177 289.515 70.3587 292.534C70.3549 292.552 70.3549 292.569 70.3587 292.586C70.2221 293.286 70.25 294.008 70.4401 294.695C70.4363 294.712 70.4363 294.73 70.4401 294.747C72.1198 296.449 123.963 308.385 125.939 308.193C127.915 308 127.493 302.428 125.85 300.364C124.208 298.299 106.396 284.824 106.396 284.824L121.817 253.182L88.7252 245.656Z" fill="#D3766A"/>
<path d="M125.154 308.227C123.208 308.42 72.141 296.476 70.4687 294.782C70.4662 294.765 70.4662 294.747 70.4687 294.73C70.275 294.043 70.2446 293.321 70.3799 292.621C70.3736 292.604 70.3736 292.586 70.3799 292.569C70.6315 289.55 71.66 283.8 72.955 277.274L76.729 269.711L109.444 278.68L106.425 284.881C106.425 284.881 123.444 298.326 125.095 300.42C126.745 302.515 127.107 308.042 125.154 308.227Z" fill="#646464"/>
<path d="M125.861 307.394C123.885 307.542 71.9156 294.296 70.2581 292.535C69.6217 291.876 71.1091 284.188 73.1736 274.953L73.2402 274.664L106.865 282.841L106.71 283.403C106.71 283.403 124.329 297.374 125.95 299.505C127.57 301.637 127.829 307.253 125.861 307.394Z" fill="#263238"/>
<path d="M125.779 305.229C117.077 302.787 81.735 293.73 72.944 291.969C72.87 291.969 72.8552 292.006 72.944 292.028C81.5204 294.64 116.936 303.409 125.764 305.348C125.935 305.414 125.964 305.281 125.779 305.229Z" fill="white"/>
<path d="M109.5 284.231C106.215 282.707 101.864 282.159 98.6078 283.95C98.482 284.016 98.6078 284.194 98.6966 284.187C102.263 283.963 105.842 284.122 109.375 284.66C109.426 284.663 109.478 284.649 109.52 284.619C109.563 284.589 109.594 284.546 109.609 284.496C109.623 284.446 109.62 284.393 109.601 284.344C109.581 284.296 109.546 284.256 109.5 284.231Z" fill="white"/>
<path d="M111.602 286.358C108.324 284.841 103.972 284.294 100.709 286.077C100.583 286.144 100.709 286.321 100.805 286.321C104.371 286.094 107.951 286.253 111.483 286.795C111.537 286.8 111.591 286.786 111.636 286.755C111.681 286.725 111.713 286.679 111.727 286.627C111.741 286.574 111.736 286.519 111.713 286.47C111.691 286.42 111.651 286.381 111.602 286.358Z" fill="white"/>
<path d="M113.711 288.498C110.426 286.974 106.074 286.426 102.819 288.209C102.693 288.283 102.818 288.461 102.915 288.454C106.478 288.23 110.056 288.389 113.585 288.927C113.637 288.93 113.689 288.916 113.731 288.886C113.774 288.856 113.805 288.813 113.819 288.763C113.834 288.713 113.831 288.659 113.812 288.611C113.792 288.563 113.756 288.523 113.711 288.498Z" fill="white"/>
<path d="M127.128 305.743C127.965 306.335 126.966 309.406 126.233 309.487C125.501 309.569 68.8989 294.873 68.0035 294.407C67.1081 293.94 68.3365 290.581 69.4835 290.707C70.6304 290.832 127.128 305.743 127.128 305.743Z" fill="#1C3B8D"/>
<path d="M80.3381 282.677C77.0526 279.836 72.6275 284.942 75.8982 287.791C79.169 290.64 83.6311 285.526 80.3381 282.677Z" fill="white"/>
<path d="M76.8203 267.187L114.737 276.748C114.737 276.748 150.079 212.968 149.287 196.755C148.2 174.392 121.945 105.633 121.945 105.633H90.5101C90.5101 105.633 111.37 179.965 111.659 192.47C111.785 199.012 76.8203 267.187 76.8203 267.187Z" fill="#455A64"/>
<path d="M116.361 269.052C114.34 268.245 96.2921 263.036 82.8243 260.172C82.8095 260.177 82.7966 260.186 82.7875 260.199C82.7784 260.211 82.7734 260.227 82.7734 260.242C82.7734 260.258 82.7784 260.273 82.7875 260.286C82.7966 260.298 82.8095 260.308 82.8243 260.312C87.0645 261.792 113.822 268.845 116.331 269.192C116.39 269.215 116.449 269.111 116.361 269.052Z" fill="#263238"/>
<path d="M114.266 176.501C111.765 166.008 109.086 155.544 106.274 145.148C103.462 134.751 100.451 124.258 97.1429 113.942C96.7433 112.677 96.3215 111.426 95.9145 110.168C95.9027 110.128 95.8755 110.094 95.8387 110.074C95.8019 110.054 95.7587 110.049 95.7184 110.061C95.6782 110.073 95.6443 110.1 95.6242 110.137C95.604 110.174 95.5993 110.217 95.6111 110.257C98.5711 120.536 101.531 130.792 104.336 141.107C107.14 151.423 109.811 161.768 112.327 172.187C112.956 174.762 113.571 177.33 114.17 179.912C114.867 182.559 115.405 185.245 115.783 187.956C116.094 190.546 115.916 193.172 115.258 195.696C114.544 198.177 113.61 200.589 112.468 202.904C107.934 212.745 103.403 222.59 98.8745 232.437C94.3457 242.308 93.6132 244.557 89.2546 254.51C88.7144 255.746 88.1742 256.982 87.6562 258.21C87.6562 258.292 87.7376 258.366 87.782 258.277C92.74 248.524 93.5022 246.178 98.1419 236.247C102.782 226.317 107.392 216.268 111.994 206.271C114.066 201.757 116.501 197.154 116.812 192.107C117.123 186.838 115.465 181.555 114.266 176.501Z" fill="#263238"/>
<path d="M115.984 258.152L117.198 292.931C117.398 299.591 117.686 305.415 118.123 308.412C118.119 308.429 118.119 308.446 118.123 308.463C118.148 309.175 118.335 309.871 118.671 310.498L118.715 310.543C120.735 311.823 173.933 311.793 175.79 311.164C177.648 310.535 176.005 305.208 173.94 303.557C171.876 301.907 151.496 292.813 151.496 292.813L149.95 258.07L115.984 258.152Z" fill="#D3766A"/>
<path d="M116.945 285.808C116.945 285.808 117.197 292.927 117.197 292.949C117.397 299.609 117.685 305.432 118.122 308.429C118.118 308.446 118.118 308.464 118.122 308.481C118.223 309.179 118.407 309.862 118.669 310.516L118.714 310.561C120.734 311.841 173.932 311.811 175.789 311.182C177.646 310.553 176.004 305.225 173.939 303.575C171.875 301.925 151.495 292.83 151.495 292.83L151.34 285.586L116.945 285.808Z" fill="#646464"/>
<path d="M175.817 311.125C173.937 311.724 120.318 310.896 118.29 309.564C117.55 309.068 117.18 301.253 117.047 291.804V291.508L151.649 291.656V292.248C151.649 292.248 172.035 301.742 174.1 303.436C176.164 305.131 177.704 310.548 175.817 311.125Z" fill="#263238"/>
<path d="M175.252 309.069C166.217 308.706 129.735 308.099 120.774 308.432C120.7 308.432 120.7 308.484 120.774 308.484C129.721 309.039 166.209 309.357 175.252 309.224C175.437 309.18 175.445 309.069 175.252 309.069Z" fill="white"/>
<path d="M154.536 292.385C150.992 291.645 146.626 292.141 143.873 294.605C143.762 294.701 143.873 294.849 144.021 294.82C147.438 293.777 150.955 293.1 154.514 292.8C154.557 292.786 154.595 292.759 154.622 292.724C154.65 292.688 154.666 292.645 154.668 292.6C154.671 292.555 154.659 292.51 154.636 292.472C154.612 292.434 154.578 292.403 154.536 292.385Z" fill="white"/>
<path d="M157.083 293.969C153.532 293.229 149.173 293.732 146.42 296.226C146.309 296.322 146.42 296.47 146.561 296.433C149.979 295.389 153.499 294.715 157.061 294.421C157.115 294.414 157.164 294.389 157.201 294.349C157.238 294.309 157.259 294.258 157.262 294.204C157.265 294.15 157.248 294.097 157.216 294.054C157.183 294.011 157.136 293.981 157.083 293.969Z" fill="white"/>
<path d="M159.619 295.557C156.075 294.817 151.716 295.313 148.956 297.777C148.852 297.873 148.956 298.021 149.104 297.992C152.52 296.95 156.038 296.272 159.597 295.971C159.64 295.958 159.677 295.931 159.705 295.896C159.732 295.86 159.749 295.817 159.751 295.772C159.753 295.727 159.742 295.682 159.718 295.644C159.695 295.606 159.66 295.575 159.619 295.557Z" fill="white"/>
<path d="M176.669 309.216C177.624 309.601 177.365 312.82 176.669 313.064C175.974 313.309 117.47 312.147 116.516 311.91C115.561 311.673 115.946 308.114 117.108 307.944C118.269 307.773 176.669 309.216 176.669 309.216Z" fill="#1C3B8D"/>
<path d="M125.812 297.639C121.957 295.634 118.834 301.628 122.697 303.633C126.56 305.638 129.675 299.645 125.812 297.639Z" fill="white"/>
<path d="M121.553 105.576C121.412 106.22 113.576 137.204 112.599 137.781C111.489 138.439 141.074 178.243 144.581 197.786C146.801 210.285 151.981 283.137 151.981 283.137H114.257C114.257 283.137 110.557 221.266 109.328 200.879C108.847 192.969 79.1739 156.399 76.3545 132.016C75.4665 124.335 80.9868 105.547 80.9868 105.547L121.553 105.576Z" fill="#455A64"/>
<path d="M113.302 253.694C112.858 243.446 112.451 233.175 111.704 222.94C111.282 217.139 110.453 211.522 109.876 205.743C109.876 205.44 109.602 205.366 109.61 205.677C109.876 215.97 110.727 226.152 111.274 236.438C111.822 246.724 112.347 249.121 112.932 259.377C113.258 265.179 113.546 270.98 113.998 276.775C114.003 276.789 114.012 276.802 114.025 276.811C114.037 276.821 114.052 276.825 114.068 276.825C114.084 276.825 114.099 276.821 114.111 276.811C114.124 276.802 114.133 276.789 114.138 276.775C114.16 266.474 113.753 263.98 113.302 253.694Z" fill="#263238"/>
<path d="M144.619 198.275C144.296 195.568 143.772 192.889 143.05 190.261C142.273 187.713 141.249 185.247 139.994 182.898C137.426 177.97 134.503 173.204 131.684 168.416C128.865 163.629 125.927 158.737 122.952 153.957C121.28 151.273 119.6 148.592 117.913 145.913C116.196 143.212 114.383 140.563 112.614 137.899C112.601 137.877 112.579 137.861 112.553 137.854C112.527 137.848 112.5 137.852 112.478 137.866C112.455 137.88 112.439 137.902 112.433 137.928C112.426 137.953 112.43 137.98 112.444 138.003C115.33 142.843 118.187 147.689 121.072 152.529C123.958 157.368 126.8 162.223 129.642 167.077C132.483 171.931 135.243 176.638 137.922 181.492C139.241 183.797 140.377 186.202 141.319 188.685C142.195 191.257 142.831 193.905 143.22 196.595C144.227 202.863 145.048 209.175 146.306 215.383C146.311 215.398 146.32 215.411 146.333 215.42C146.346 215.429 146.361 215.434 146.376 215.434C146.392 215.434 146.407 215.429 146.42 215.42C146.432 215.411 146.442 215.398 146.447 215.383C146.054 209.671 145.374 203.951 144.619 198.275Z" fill="#263238"/>
<path d="M148.659 276.666C146.506 276.385 130.071 275.815 116.322 276.407C116.233 276.407 116.24 276.541 116.322 276.548C120.799 276.94 146.114 277.118 148.637 276.822C148.704 276.814 148.733 276.681 148.659 276.666Z" fill="#263238"/>
<path d="M117.525 135.661C113.682 137.061 109.968 138.794 106.426 140.841C106.395 140.854 106.371 140.88 106.36 140.911C106.348 140.942 106.349 140.977 106.363 141.007C106.376 141.038 106.402 141.061 106.433 141.073C106.464 141.085 106.499 141.084 106.529 141.07C110.274 139.457 114.099 137.918 117.755 136.105C117.814 136.074 117.858 136.022 117.878 135.959C117.898 135.895 117.893 135.827 117.862 135.768C117.832 135.709 117.779 135.665 117.716 135.645C117.653 135.624 117.584 135.63 117.525 135.661Z" fill="#263238"/>
<path d="M118.656 110.012C118.656 109.886 118.42 109.857 118.42 110.012C118.42 114.193 118.21 118.372 117.791 122.533C117.613 124.464 116.059 135.112 112.714 134.372C112.152 134.239 111.871 133.692 111.782 132.841C111.791 131.736 111.94 130.637 112.226 129.57C112.596 127.35 112.892 125.13 113.084 122.843C113.477 118.642 113.432 114.411 112.951 110.219C112.945 110.196 112.931 110.175 112.911 110.16C112.892 110.145 112.868 110.137 112.844 110.137C112.819 110.137 112.795 110.145 112.776 110.16C112.757 110.175 112.743 110.196 112.736 110.219C112.833 116.043 112.492 121.866 111.715 127.639C111.294 130.413 109.895 134.594 112.803 135.038C115.711 135.482 117.672 128.475 118.027 126.558C118.953 121.093 119.164 115.531 118.656 110.012Z" fill="#263238"/>
<path d="M112.801 134.601C112.505 135.323 112.257 136.065 112.061 136.821C111.848 137.401 111.743 138.016 111.75 138.634C111.754 138.659 111.765 138.683 111.782 138.702C111.8 138.72 111.822 138.733 111.847 138.739C111.872 138.745 111.898 138.742 111.922 138.733C111.945 138.723 111.966 138.707 111.98 138.686C112.329 138.14 112.592 137.544 112.757 136.917C113.016 136.229 113.282 135.556 113.497 134.86C113.531 134.768 113.527 134.666 113.486 134.576C113.446 134.487 113.371 134.417 113.278 134.383C113.186 134.348 113.084 134.352 112.995 134.393C112.905 134.434 112.836 134.509 112.801 134.601Z" fill="#263238"/>
<path d="M114.38 210.822C114.025 205.553 114.047 199.996 111.805 195.112C110.614 192.732 109.244 190.446 107.706 188.275C106.176 185.936 104.667 183.586 103.177 181.222C97.2569 171.773 91.5442 162.131 86.3421 152.252C83.8335 147.494 81.5248 142.58 80.2668 137.326C79.04 131.798 78.807 126.095 79.5786 120.484C79.7562 119.086 79.9486 117.695 80.178 116.303C80.1787 116.285 80.1729 116.266 80.1615 116.251C80.1501 116.236 80.1339 116.225 80.1155 116.221C80.0972 116.217 80.0779 116.219 80.0609 116.227C80.044 116.235 80.0304 116.249 80.0226 116.266C78.8051 121.602 78.3886 127.088 78.7868 132.546C79.3563 137.764 80.8259 142.844 83.1305 147.56C85.4245 152.526 88.1551 157.306 90.8486 162.064C93.626 166.997 96.4849 171.859 99.4251 176.649C102.385 181.43 105.434 186.114 108.49 190.82C110.049 193.04 111.264 195.482 112.094 198.065C112.767 200.759 113.153 203.517 113.248 206.293C113.988 217.941 116.948 256.664 117.999 268.252C118.125 269.732 118.258 271.212 118.398 272.692C118.394 272.708 118.394 272.724 118.397 272.74C118.4 272.755 118.406 272.77 118.416 272.783C118.426 272.795 118.438 272.806 118.452 272.813C118.467 272.82 118.482 272.823 118.498 272.823C118.514 272.823 118.53 272.82 118.544 272.813C118.559 272.806 118.571 272.795 118.581 272.783C118.59 272.77 118.597 272.755 118.6 272.74C118.603 272.724 118.602 272.708 118.598 272.692C118.154 261.06 115.142 222.432 114.38 210.822Z" fill="#263238"/>
<path d="M96.2687 115.785C96.2687 115.704 96.1355 115.733 96.1355 115.785C96.0245 119.019 96.1355 122.363 94.8701 125.405C93.7305 128.209 91.4365 130.178 88.8688 131.65C87.3755 132.488 85.8364 133.242 84.2587 133.907C84.1477 133.959 84.1921 134.137 84.3179 134.1C87.2778 133.152 90.334 132.124 92.8129 130.141C95.4621 128.01 96.6239 124.924 96.7497 121.594C96.795 119.646 96.6338 117.699 96.2687 115.785Z" fill="#263238"/>
<path d="M112.689 63.0765C116.922 76.0707 128.355 98.2037 132.439 100.875C136.058 103.236 153.085 100.601 160.559 98.8031C163.341 98.1297 157.081 76.9217 154.114 77.6987C150.554 78.631 139.95 81.0212 139.181 80.4292C138.411 79.8372 127.718 66.6654 120.141 58.9104C113.244 51.8879 111.091 58.163 112.689 63.0765Z" fill="#D3766A"/>
<path d="M158.927 98.9633C160.355 98.7857 172.439 98.2233 177.982 95.2115C180.942 93.6058 188.497 88.2927 187.742 86.3835C187.054 84.6445 184.627 85.5917 184.627 85.5917C184.627 85.5917 187.964 83.1719 186.988 80.7596C186.011 78.3472 181.978 80.1602 181.978 80.1602C181.978 80.1602 185.226 77.4222 184.079 75.0913C182.933 72.7603 179.188 75.2541 179.188 75.2541C179.188 75.2541 182.274 72.8935 180.52 71.3691C178.404 69.534 173.202 74.5363 169.687 75.7055C168.888 75.9719 153.141 79.953 153.141 79.953L158.927 98.9633Z" fill="#D3766A"/>
<path d="M179.05 75.1901C175.217 78.8531 172.901 79.7928 167.78 80.8288C167.684 80.8288 167.692 81.0064 167.78 80.9916C172.886 80.4366 175.957 79.6744 179.221 75.3677C179.398 75.1531 179.228 75.0125 179.05 75.1901Z" fill="#263238"/>
<path d="M181.852 80.0759C177.538 83.5391 175.037 84.5751 169.753 86.055C169.679 86.055 169.709 86.2104 169.79 86.1956C175.089 85.1745 178.137 84.3457 181.993 80.3201C182.17 80.1425 182.052 79.9205 181.852 80.0759Z" fill="#263238"/>
<path d="M184.364 85.6524C179.924 88.7012 177.253 89.9666 171.94 90.7435C171.914 90.7435 171.89 90.7537 171.872 90.7717C171.854 90.7898 171.844 90.8142 171.844 90.8397C171.844 90.8653 171.854 90.8897 171.872 90.9078C171.89 90.9258 171.914 90.9359 171.94 90.9359C177.438 90.6695 180.82 89.123 184.424 85.8004C184.69 85.5932 184.638 85.4674 184.364 85.6524Z" fill="#263238"/>
<path d="M149.008 80.6359C149.008 80.6359 153.411 75.6558 155.823 73.8946C158.235 72.1335 169.661 68.8775 170.504 71.3047C171.592 74.4422 165.369 77.6168 162.12 78.7711C162.12 78.7711 164.644 86.023 160.64 89.2642C156.637 92.5053 149.008 80.6359 149.008 80.6359Z" fill="#D3766A"/>
<path d="M170.527 72.2734C169.454 75.8476 165.088 77.0908 162.017 78.4449C161.972 78.4645 161.932 78.4945 161.9 78.5324C161.868 78.5702 161.845 78.615 161.834 78.6632C161.822 78.7113 161.822 78.7614 161.834 78.8096C161.845 78.8578 161.867 78.9027 161.899 78.9407C162.757 82.0487 163.053 86.681 160.878 89.3005C160.819 89.3745 160.915 89.4782 160.989 89.4116C163.705 86.9252 163.779 82.3447 162.624 78.9999C165.799 77.6605 170.12 76.2176 170.557 72.2882C170.564 72.2734 170.535 72.2734 170.527 72.2734Z" fill="#263238"/>
<path d="M158.915 102.61L153.336 77.199L139.527 79.7075C134.081 73.4694 123.196 61.0006 118.808 57.2563C113.628 52.8608 110.239 56.1611 112.148 62.821C116.462 78.0426 129.079 100.39 132.379 102.499C137.167 105.57 158.915 102.61 158.915 102.61Z" fill="#1C3B8D"/>
<path opacity="0.1" d="M139.203 87.4456C139.887 87.5942 140.583 87.676 141.283 87.6898C142.763 87.8896 143.414 90.0726 142.067 90.9014C141.36 91.337 140.56 91.6007 139.733 91.6714C138.905 91.7421 138.072 91.6178 137.302 91.3084C135.822 90.7312 134.571 89.2956 134.889 87.6084C134.944 87.2939 135.08 86.999 135.283 86.7524C135.486 86.5058 135.749 86.3159 136.047 86.2012C136.345 86.0864 136.667 86.0508 136.983 86.0977C137.299 86.1446 137.597 86.2725 137.849 86.4688C138.259 86.8482 138.714 87.1762 139.203 87.4456ZM135.385 81.3999C134.852 83.9159 138.745 86.0766 140.735 84.7373C140.896 84.6157 141.027 84.4596 141.118 84.2805C141.21 84.1014 141.261 83.9039 141.265 83.7027C141.27 83.5014 141.23 83.3017 141.147 83.1182C141.064 82.9348 140.941 82.7724 140.787 82.6431C140.202 82.1695 139.714 82.0955 139.196 81.6663C139.015 81.5249 138.855 81.3579 138.722 81.1705C138.429 80.766 138.053 80.428 137.62 80.1789C137.394 80.0826 137.15 80.0387 136.905 80.0505C136.66 80.0623 136.421 80.1295 136.206 80.247C135.991 80.3646 135.805 80.5294 135.663 80.7291C135.521 80.9288 135.426 81.1582 135.385 81.3999ZM129.177 81.5331C128.377 82.5765 128.977 84.1453 129.68 85.0925C129.996 85.5642 130.432 85.9435 130.943 86.1918C131.454 86.4401 132.021 86.5485 132.588 86.5058C132.794 86.4768 132.988 86.3887 133.145 86.2521C133.303 86.1155 133.417 85.9363 133.475 85.736C133.533 85.5358 133.532 85.3231 133.472 85.1235C133.411 84.924 133.295 84.7462 133.135 84.6115C132.69 84.273 132.335 83.831 132.099 83.3239C131.752 82.5395 131.522 81.5257 130.62 81.1853C130.373 81.0839 130.101 81.063 129.842 81.1254C129.583 81.1879 129.35 81.3306 129.177 81.5331ZM145.567 97.9904C144.524 100.099 147.698 102.497 149.622 102.083C150.266 101.942 150.888 101.098 150.318 100.492C149.859 100.003 149.312 99.6184 148.882 99.1004C148.357 98.4714 148.068 97.6649 147.247 97.3467C146.938 97.2173 146.591 97.2121 146.278 97.3319C145.965 97.4518 145.711 97.6877 145.567 97.9904ZM115.761 72.1279C115.579 71.7814 115.327 71.4765 115.021 71.2325C115.435 72.2931 115.872 73.3563 116.33 74.4218C116.355 73.6193 116.158 72.8256 115.761 72.1279ZM119.882 69.9079C119.737 68.08 119.023 66.3435 117.84 64.9426C116.952 63.7956 115.413 61.9827 113.785 62.3748C113.612 62.4289 113.461 62.5373 113.354 62.6839C113.247 62.8305 113.191 63.0076 113.193 63.1888C113.089 64.4394 114.525 65.7788 115.146 66.7778C115.886 68.0358 116.471 69.4269 117.27 70.6775C117.437 70.9346 117.683 71.1308 117.971 71.2367C118.258 71.3426 118.573 71.3526 118.867 71.2652C119.16 71.1778 119.418 70.9977 119.601 70.7517C119.784 70.5057 119.883 70.2071 119.882 69.9005V69.9079ZM119.401 77.8628C119.69 77.8478 119.967 77.7406 120.191 77.5568C120.415 77.373 120.574 77.1224 120.644 76.8416C120.759 76.2671 120.721 75.6724 120.533 75.1174C120.423 74.5889 120.167 74.1019 119.794 73.7115C119.66 73.5879 119.497 73.5011 119.319 73.4596C119.142 73.4181 118.957 73.4234 118.783 73.4748C118.608 73.5263 118.45 73.6222 118.324 73.7532C118.197 73.8842 118.107 74.0458 118.062 74.222C118.003 74.6542 118.003 75.0923 118.062 75.5244C118.062 75.7094 118.062 75.8944 118.062 76.0868C118.058 76.3656 118.088 76.6439 118.151 76.9156C118.23 77.1859 118.395 77.4234 118.62 77.5927C118.846 77.762 119.12 77.8541 119.401 77.8554V77.8628Z" fill="#030402"/>
<path d="M154.088 100.394C153.452 98.9139 151.868 92.3428 151.521 90.7074C151.173 89.0721 149.885 82.4566 149.508 80.7768C149.508 80.6806 149.611 80.6288 149.634 80.7176C150.033 82.3752 151.817 88.9019 152.209 90.5298C152.601 92.1578 154.074 98.7215 154.177 100.372C154.179 100.378 154.179 100.384 154.178 100.39C154.177 100.395 154.175 100.401 154.172 100.406C154.166 100.417 154.156 100.424 154.144 100.427C154.132 100.43 154.12 100.428 154.109 100.422C154.099 100.416 154.091 100.406 154.088 100.394Z" fill="#263238"/>
<path opacity="0.1" d="M141.261 103.888C137.376 103.888 133.965 103.518 132.381 102.504C129.059 100.358 116.442 78.0844 112.098 62.8333C111.003 59.0149 111.662 56.2918 113.393 55.5L141.261 103.888Z" fill="black"/>
<path d="M78.6482 109.062C78.7444 109.202 124.92 115.122 125.415 114.693C125.676 113.408 125.862 112.108 125.97 110.801C125.97 110.801 121.738 60.526 119.547 57.5734C117.631 54.9983 111.814 53.1335 107.855 54.8133C99.5454 58.3356 79.6471 103.253 79.8617 105.132C79.8469 105.11 78.5298 108.884 78.6482 109.062Z" fill="#1C3B8D"/>
<path opacity="0.1" d="M95.2944 102.935C96.0065 103.281 96.7498 103.559 97.5144 103.764C99.0535 104.378 99.1941 106.946 97.5144 107.464C96.6214 107.747 95.6746 107.818 94.7495 107.67C93.8244 107.523 92.9467 107.161 92.1864 106.613C90.7065 105.577 89.7519 103.653 90.5511 101.936C90.6977 101.61 90.926 101.326 91.2139 101.113C91.5018 100.9 91.8396 100.765 92.1949 100.721C92.5502 100.676 92.911 100.724 93.2426 100.859C93.5741 100.994 93.8654 101.212 94.0882 101.492C94.5026 101.973 94.7542 102.61 95.2944 102.935ZM92.7636 95.2914C91.4983 97.9035 95.1612 101.315 97.6994 100.39C97.912 100.305 98.102 100.172 98.2544 100.001C98.4068 99.83 98.5175 99.626 98.5777 99.4051C98.638 99.1842 98.6461 98.9523 98.6016 98.7277C98.557 98.5031 98.461 98.2919 98.3209 98.1107C97.8177 97.4374 97.2998 97.2228 96.841 96.6308C96.6826 96.4262 96.5554 96.1992 96.4636 95.9574C96.2448 95.4407 95.9253 94.9729 95.5238 94.581C94.6432 93.73 93.2298 94.3294 92.7636 95.2914ZM88.4865 92.509C87.1027 93.027 86.7475 94.8918 86.8511 96.209C86.8724 96.8489 87.0631 97.4716 87.4037 98.0137C87.7443 98.5558 88.2226 98.9979 88.7899 99.2947C89.004 99.3904 89.2412 99.4219 89.4728 99.3856C89.7045 99.3493 89.9206 99.2467 90.0952 99.0901C90.2697 98.9336 90.3952 98.7298 90.4564 98.5035C90.5176 98.2772 90.5119 98.0379 90.4401 97.8148C90.2051 97.2231 90.1237 96.5816 90.2033 95.95C90.3291 95.0028 90.7065 93.8928 90.0775 93.0418C89.9024 92.7965 89.6542 92.6129 89.3685 92.5172C89.0827 92.4215 88.774 92.4186 88.4865 92.509ZM103.656 101.315C103.306 101.285 102.957 101.39 102.682 101.609C102.407 101.828 102.226 102.143 102.176 102.491C102.138 102.865 102.232 103.241 102.442 103.553C102.651 103.865 102.963 104.094 103.323 104.201C103.828 104.367 104.373 104.367 104.877 104.201C105.136 104.099 105.348 103.907 105.477 103.661C105.625 103.422 105.685 103.14 105.647 102.861C105.606 102.602 105.487 102.361 105.306 102.171C105.125 101.98 104.89 101.85 104.633 101.796C104.586 101.734 104.532 101.68 104.47 101.633C104.235 101.451 103.953 101.34 103.656 101.315ZM92.3122 83.459C91.0691 84.7318 91.5723 87.6251 92.993 88.6019C93.176 88.741 93.3921 88.8297 93.6199 88.8594C93.8478 88.8891 94.0794 88.8587 94.2919 88.7712C94.5044 88.6837 94.6902 88.5421 94.831 88.3605C94.9718 88.1789 95.0627 87.9637 95.0946 87.7361C95.1165 87.443 95.1165 87.1487 95.0946 86.8555C95.0946 86.5373 95.0502 86.3375 95.0946 86.1156C95.2053 85.4828 95.2277 84.8378 95.1612 84.199C95.1037 83.896 94.9613 83.6155 94.7506 83.3903C94.5399 83.1651 94.2695 83.0044 93.971 82.9268C93.6725 82.8493 93.3581 82.8582 93.0645 82.9524C92.7708 83.0466 92.5099 83.2223 92.3122 83.459ZM84.2834 101.87C82.574 103.897 85.3934 107.375 87.6059 107.442C88.3459 107.442 89.2561 106.702 88.7973 105.888C88.4273 105.237 87.9315 104.66 87.6059 103.986C87.2063 103.157 87.1101 102.188 86.2961 101.626C85.9926 101.403 85.6154 101.304 85.2414 101.349C84.8674 101.394 84.5248 101.581 84.2834 101.87ZM125.108 101.226C124.83 101.268 124.57 101.391 124.362 101.581C124.154 101.771 124.007 102.018 123.939 102.292C123.703 103.113 123.673 103.846 123.059 104.512C122.394 105.035 121.797 105.639 121.283 106.31C121.197 106.477 121.156 106.664 121.164 106.853C121.172 107.041 121.229 107.224 121.329 107.383C121.429 107.543 121.569 107.674 121.734 107.763C121.9 107.853 122.086 107.897 122.274 107.893C123.567 107.735 124.75 107.089 125.582 106.088C125.434 104.682 125.286 103.032 125.116 101.196L125.108 101.226ZM121.409 95.1212C120.994 96.1276 121.068 97.2672 120.72 98.3179C120.415 99.2813 120.052 100.225 119.633 101.145C119.322 101.811 119.943 102.861 120.75 102.506C122.062 102.003 123.135 101.022 123.754 99.7609C124.317 98.5991 124.938 96.6456 124.398 95.4098C123.858 94.174 122.023 93.6338 121.394 95.0916L121.409 95.1212ZM117.191 105.207C116.576 106.002 115.789 106.647 114.889 107.094C114.675 107.161 114.477 107.272 114.309 107.421C114.141 107.57 114.006 107.752 113.914 107.957C113.822 108.162 113.775 108.384 113.775 108.608C113.775 108.833 113.823 109.055 113.916 109.259C114.008 109.464 114.143 109.646 114.312 109.795C114.48 109.943 114.678 110.054 114.892 110.12C115.107 110.186 115.333 110.206 115.556 110.178C115.778 110.15 115.993 110.075 116.184 109.958C116.95 109.63 117.634 109.138 118.189 108.516C118.744 107.895 119.156 107.159 119.396 106.362C119.744 105.081 118.012 104.245 117.176 105.178L117.191 105.207ZM110.427 68.9478C110.841 69.0353 111.272 68.9594 111.631 68.7359C111.989 68.5124 112.247 68.1587 112.351 67.7491C112.765 66.1581 111.345 64.5227 110.22 63.5311C109.095 62.5395 107.512 61.6368 105.935 62.1473C105.726 62.2154 105.537 62.3358 105.386 62.4973C105.236 62.6589 105.13 62.8561 105.077 63.0703C105.024 63.2845 105.027 63.5086 105.086 63.7213C105.144 63.9341 105.256 64.1284 105.41 64.2859C106.098 65.1443 107.053 65.7659 107.785 66.6095C108.518 67.4531 109.125 68.7036 110.412 68.9182L110.427 68.9478ZM116.103 75.2303C116.724 74.3349 116.243 73.0104 115.799 72.1594C115.563 71.69 115.195 71.2992 114.741 71.0346C114.436 70.839 114.065 70.7721 113.71 70.8483C113.356 70.9245 113.045 71.1377 112.847 71.4416C112.645 71.8624 112.613 72.3447 112.758 72.7884C112.82 73.0205 112.904 73.246 113.01 73.4618V73.5284V73.5876C113.142 74.2942 113.441 74.959 113.883 75.5263C114.036 75.6802 114.222 75.7967 114.427 75.8666C114.633 75.9364 114.851 75.9579 115.066 75.9293C115.281 75.9006 115.487 75.8226 115.667 75.7013C115.846 75.5801 115.996 75.4189 116.103 75.2303ZM119.921 69.932C119.776 68.1041 119.062 66.3676 117.879 64.9667C116.991 63.8197 115.452 62.0068 113.824 62.3989C113.651 62.453 113.5 62.5614 113.393 62.708C113.286 62.8546 113.23 63.0317 113.232 63.2129C113.128 64.4635 114.564 65.8029 115.185 66.8019C115.925 68.0598 116.51 69.451 117.309 70.7016C117.483 70.9445 117.73 71.1263 118.013 71.2211C118.297 71.3159 118.603 71.3188 118.888 71.2294C119.174 71.14 119.423 70.963 119.602 70.7234C119.781 70.4838 119.88 70.1939 119.884 69.895L119.921 69.932ZM114.334 82.6006C114.605 82.6597 114.885 82.6597 115.156 82.6006C115.566 82.4743 115.913 82.1965 116.125 81.8236C116.324 81.4267 116.423 80.9873 116.414 80.5434C116.4 80.1229 116.286 79.7118 116.081 79.3447L115.836 79.0413L115.511 78.8045C115.307 78.6994 115.082 78.6416 114.853 78.6354C114.624 78.6292 114.397 78.6747 114.188 78.7686C113.979 78.8625 113.793 79.0023 113.646 79.1776C113.498 79.3529 113.392 79.5592 113.335 79.7812C113.212 80.2123 113.125 80.6529 113.076 81.0984L113.143 81.5054C113.195 81.7096 113.296 81.8978 113.439 82.053C113.662 82.3114 113.964 82.4905 114.297 82.5636L114.334 82.6006ZM119.44 77.8869C119.729 77.8719 120.006 77.7647 120.23 77.5809C120.454 77.3971 120.613 77.1465 120.683 76.8657C120.798 76.2912 120.76 75.6966 120.572 75.1415C120.462 74.613 120.205 74.126 119.832 73.7356C119.699 73.612 119.535 73.5252 119.358 73.4837C119.181 73.4422 118.996 73.4475 118.822 73.499C118.647 73.5504 118.489 73.6463 118.362 73.7773C118.236 73.9083 118.146 74.0698 118.101 74.2461C118.042 74.6783 118.042 75.1164 118.101 75.5485C118.101 75.7335 118.101 75.9185 118.101 76.1109C118.097 76.3897 118.127 76.668 118.19 76.9397C118.272 77.1986 118.434 77.4253 118.651 77.5884C118.869 77.7515 119.131 77.8428 119.403 77.8499L119.44 77.8869Z" fill="#030402"/>
<path d="M116.847 65.454C114.027 65.195 110.416 59.1715 109.728 55.3458C109.683 55.0794 110.808 52.852 112.044 50.0845C112.784 48.4047 113.583 46.5103 114.175 44.7344L124.417 51.1797C123.035 53.1901 121.904 55.3621 121.05 57.6472C120.973 57.8884 120.919 58.1361 120.887 58.3871C120.889 58.429 120.889 58.4711 120.887 58.5129C120.628 59.9929 119.577 65.7056 116.847 65.454Z" fill="#D3766A"/>
<path d="M120.884 58.395C120.886 58.4369 120.886 58.4789 120.884 58.5208C120.489 58.4436 120.101 58.3373 119.722 58.2026C113.314 55.8939 114.446 47.4876 114.897 45.1641L117.45 46.7772L124.443 51.2172C123.062 53.2268 121.934 55.399 121.084 57.6847C120.995 57.9149 120.929 58.1527 120.884 58.395Z" fill="#263238"/>
<path d="M115.241 32.868C113.125 36.6789 112.755 48.9183 115.101 52.1668C118.49 56.8732 125.298 58.7083 129.612 54.3868C133.793 50.1541 133.985 34.1925 131.262 31.1142C127.236 26.5411 118.364 27.2367 115.241 32.868Z" fill="#D3766A"/>
<path d="M125.07 42.7656C125.07 42.7656 125.004 42.7656 125.004 42.8396C125.004 43.6832 124.856 44.6452 124.086 44.8968V44.9486C125.026 44.845 125.203 43.5648 125.07 42.7656Z" fill="#263238"/>
<path d="M124.356 41.8574C123.002 41.7094 122.802 44.4178 124.053 44.5584C125.303 44.699 125.488 41.9832 124.356 41.8574Z" fill="#263238"/>
<path d="M129.927 43.0547C129.927 43.0547 129.986 43.0991 129.986 43.1361C129.89 43.9723 129.927 44.9491 130.66 45.282C130.66 45.282 130.66 45.3412 130.66 45.3338C129.735 45.1266 129.705 43.8317 129.927 43.0547Z" fill="#263238"/>
<path d="M130.746 42.2344C132.1 42.2344 131.989 44.9501 130.746 44.9501C129.502 44.9501 129.606 42.227 130.746 42.2344Z" fill="#263238"/>
<path d="M125.446 41.3128C125.068 41.3942 124.706 41.4016 124.336 41.446C123.952 41.5462 123.547 41.5176 123.181 41.3646C123.075 41.2945 122.995 41.1911 122.953 41.0706C122.912 40.9502 122.911 40.8194 122.952 40.6986C123.073 40.4779 123.251 40.2932 123.467 40.1633C123.682 40.0333 123.929 39.9627 124.18 39.9586C124.692 39.8603 125.221 39.9609 125.66 40.2398C125.752 40.3085 125.822 40.4017 125.863 40.5086C125.903 40.6155 125.913 40.7317 125.891 40.8438C125.868 40.956 125.815 41.0595 125.736 41.1425C125.657 41.2255 125.557 41.2845 125.446 41.3128Z" fill="#263238"/>
<path d="M131.96 39.7137C131.6 39.6129 131.247 39.4918 130.902 39.3511C130.512 39.2777 130.158 39.0773 129.895 38.7813C129.829 38.6729 129.802 38.5455 129.816 38.4195C129.831 38.2935 129.887 38.1761 129.977 38.0857C130.179 37.9312 130.419 37.8345 130.672 37.8058C130.925 37.7772 131.18 37.8176 131.412 37.9229C131.912 38.0598 132.344 38.3759 132.626 38.8109C132.684 38.9142 132.712 39.0321 132.704 39.1506C132.697 39.269 132.656 39.3829 132.586 39.4784C132.515 39.5739 132.419 39.6469 132.307 39.6887C132.196 39.7305 132.076 39.7391 131.96 39.7137Z" fill="#263238"/>
<path d="M124.456 49.4375C125.545 49.1766 126.681 49.1766 127.771 49.4375C127.867 49.4375 127.963 49.2451 127.985 49.1563L128.045 47.3804C128.274 47.5136 129.428 48.1204 129.428 47.7948C129.549 44.9083 129.373 42.0171 128.903 39.1665C128.898 39.15 128.887 39.1355 128.874 39.1252C128.86 39.1149 128.843 39.1094 128.825 39.1094C128.808 39.1094 128.791 39.1149 128.777 39.1252C128.763 39.1355 128.753 39.15 128.748 39.1665C128.629 41.8379 128.97 44.5018 128.888 47.188C128.48 46.9617 128.041 46.7947 127.586 46.6922C127.49 46.6922 127.586 48.5792 127.586 48.8604C126.567 48.5095 125.452 48.5706 124.478 49.0305C124.093 49.2747 123.938 49.6003 124.456 49.4375Z" fill="#263238"/>
<path d="M122.267 51.2016C122.452 51.4088 122.637 51.69 122.933 51.7344C123.244 51.7492 123.555 51.6962 123.843 51.579C123.843 51.579 123.895 51.579 123.843 51.6234C123.716 51.7804 123.548 51.8994 123.357 51.9673C123.167 52.0351 122.961 52.0493 122.763 52.0082C122.601 51.9564 122.458 51.8591 122.35 51.7278C122.243 51.5965 122.175 51.4369 122.156 51.2682C122.171 51.1868 122.238 51.172 122.267 51.2016Z" fill="#263238"/>
<path opacity="0.2" d="M118.821 28.9844C118.71 30.8861 118.258 36.7838 117.341 37.9826C116.423 39.1814 114.484 41.9712 113.5 42.4226C113.633 38.4932 114.24 34.7563 115.254 32.8027C116.085 31.2375 117.315 29.9201 118.821 28.9844Z" fill="#263238"/>
<path d="M129.367 34.7456C128.85 35.2722 128.206 35.6576 127.498 35.8648C126.789 36.0721 126.039 36.0944 125.319 35.9295C124.583 35.7657 123.901 35.4147 123.34 34.9104C122.779 34.4062 122.357 33.7658 122.115 33.051C122.115 33.0066 122.034 33.051 122.049 33.051C122.237 33.8227 122.633 34.5281 123.194 35.0904C123.755 35.6527 124.459 36.0505 125.231 36.2403C126.001 36.3873 126.796 36.3278 127.535 36.0678C128.275 35.8079 128.932 35.3568 129.441 34.7604C129.486 34.7678 129.426 34.7012 129.367 34.7456Z" fill="#263238"/>
<path d="M125.648 23.7811C124.511 23.7042 123.373 23.9147 122.338 24.3931C121.304 24.8716 120.406 25.6027 119.728 26.5191C119.151 27.4517 118.906 28.5522 119.033 29.6418H119.129C119.143 28.6857 119.415 27.7512 119.917 26.9371C120.418 26.123 121.13 25.4595 121.978 25.0169C122.904 24.4983 123.938 24.201 124.998 24.1484C126.059 24.0958 127.117 24.2892 128.09 24.7135C129.047 25.1082 129.834 25.8291 130.31 26.7485C130.355 26.8447 130.547 26.8003 130.51 26.7041C129.903 25.0909 127.942 23.8921 125.648 23.7811Z" fill="#263238"/>
<path d="M139.78 30.2317C139.458 28.9789 138.703 27.8805 137.649 27.1311C136.169 26.073 134.437 26.0878 132.706 26.147C132.654 26.147 132.661 26.221 132.706 26.2136C134.178 26.0599 135.663 26.3348 136.983 27.0054C138.057 27.6499 138.875 28.646 139.299 29.8247C139.702 31.0337 139.655 32.3476 139.167 33.525C138.679 34.7023 137.783 35.6639 136.642 36.233C135.979 36.545 135.258 36.7177 134.525 36.7406C133.792 36.7635 133.062 36.6361 132.38 36.3662C132.328 36.3662 132.284 36.418 132.336 36.4476C133.258 36.8552 134.277 36.9966 135.275 36.856C136.274 36.7153 137.214 36.2982 137.988 35.6517C138.763 35.0051 139.341 34.155 139.657 33.1972C139.974 32.2395 140.016 31.2123 139.78 30.2317Z" fill="#263238"/>
<path d="M114.508 35.2763C114.508 35.2763 112.466 30.6217 114.649 28.1798C115.884 26.8034 119.599 27.277 119.599 27.277C120.709 25.8684 122.332 24.9581 124.113 24.7462C127.288 24.2504 130.906 26.3964 130.906 26.3964C130.906 26.3964 133.999 24.9164 136.656 26.7146C140.356 29.2232 139.431 35.0913 135.391 36.6896C132.549 37.8218 129.012 35.1135 129.012 35.1135C128.657 35.1135 124.824 37.067 122.3 33.5891C122.3 33.5891 119.903 35.4169 117.986 33.8629C117.622 34.4271 117.092 34.8654 116.47 35.1182C115.848 35.3711 115.163 35.4263 114.508 35.2763Z" fill="#263238"/>
<path d="M115.707 43.0072C115.707 43.0072 113.768 38.6635 111.851 39.3073C109.935 39.9511 110.867 45.8562 112.762 47.0106C112.992 47.1711 113.253 47.2837 113.528 47.3416C113.804 47.3996 114.088 47.4017 114.364 47.3478C114.64 47.294 114.902 47.1854 115.135 47.0283C115.368 46.8712 115.568 46.6689 115.721 46.4334L115.707 43.0072Z" fill="#D3766A"/>
<path d="M112.164 40.9766V41.0284C113.481 41.8793 113.977 43.3519 114.236 44.8245C114.18 44.6658 114.091 44.5211 113.974 44.4004C113.857 44.2797 113.715 44.1859 113.558 44.1253C113.401 44.0648 113.233 44.0391 113.065 44.0499C112.897 44.0608 112.734 44.1079 112.586 44.1881C112.541 44.1881 112.586 44.2695 112.586 44.2695C112.855 44.2384 113.128 44.2931 113.364 44.426C113.601 44.5589 113.789 44.7631 113.903 45.0095C114.104 45.4098 114.258 45.8319 114.362 46.2675C114.362 46.4081 114.643 46.3859 114.628 46.2675C115.006 44.3583 114.081 41.539 112.164 40.9766Z" fill="#263238"/>
<path d="M218.278 51.6284L138.609 76.0312L152.974 122.927L232.643 98.5241L218.278 51.6284Z" fill="#1C3B8D"/>
<path opacity="0.2" d="M218.278 51.6284L138.609 76.0312L152.974 122.927L232.643 98.5241L218.278 51.6284Z" fill="black"/>
<path opacity="0.2" d="M218.273 51.6274L191.5 59.8281L205.864 106.724L232.638 98.5231L218.273 51.6274Z" fill="black"/>
<path d="M216.993 54.0156C216.09 58.1694 215.212 62.3232 214.358 66.477L211.835 78.968L209.393 91.5108C208.594 95.6843 207.814 99.8652 207.055 104.054C207.957 99.9047 208.836 95.7509 209.689 91.5922L212.212 79.1012L214.654 66.588C215.454 62.3948 216.233 58.204 216.993 54.0156Z" fill="#1C3B8D"/>
<path d="M230.143 96.9519C227.183 93.913 224.196 90.8865 221.182 87.8723L212.154 78.874L203.067 69.9424C200.028 66.9824 196.975 64.0225 193.906 61.0625C196.866 64.1063 199.853 67.1329 202.867 70.1421L211.895 79.1404L220.982 88.0721C224.026 91.0616 227.08 94.0216 230.143 96.9519Z" fill="#1C3B8D"/>
<path d="M153.913 82.0719L154.352 81.9375L152.464 75.7748L152.025 75.9092L153.913 82.0719Z" fill="#263238"/>
<path d="M152.866 82.3844L153.305 82.25L151.417 76.0873L150.978 76.2217L152.866 82.3844Z" fill="#263238"/>
<path d="M151.819 82.7203L152.258 82.5859L150.37 76.4233L149.931 76.5576L151.819 82.7203Z" fill="#263238"/>
<path d="M150.78 83.0249L151.219 82.8906L149.332 76.7276L148.893 76.8619L150.78 83.0249Z" fill="#263238"/>
<path d="M149.725 83.3531L150.164 83.2188L148.276 77.0561L147.838 77.1904L149.725 83.3531Z" fill="#263238"/>
<path d="M148.679 83.6656L149.117 83.5312L147.23 77.3686L146.791 77.5029L148.679 83.6656Z" fill="#263238"/>
<path d="M147.624 84.0094L148.062 83.875L146.175 77.7123L145.736 77.8467L147.624 84.0094Z" fill="#263238"/>
<path d="M146.577 84.3219L147.016 84.1875L145.127 78.0251L144.688 78.1596L146.577 84.3219Z" fill="#263238"/>
<path d="M145.522 84.65L145.961 84.5156L144.073 78.353L143.635 78.4873L145.522 84.65Z" fill="#263238"/>
<path d="M156.898 74.9266L155.078 74.971L159.022 73.75L157.483 74.7416L158.179 77.0059C159.429 76.7913 160.273 77.8347 160.909 79.9067L156.965 81.1499C156.329 79.0853 156.44 77.7459 157.594 77.2205L156.898 74.9266Z" fill="#263238"/>
<path d="M160.867 76.5033L161.896 76.1851L160.971 73.166L163.605 72.3594L164.53 75.3785L165.566 75.0603L164.175 78.9231L160.867 76.5033Z" fill="#263238"/>
<path opacity="0.1" d="M138.609 76.0343L139.786 79.8822L194.856 70.7952L191.496 59.8359L138.609 76.0343Z" fill="black"/>
<path d="M242.962 103.844L216.182 112.043L205.859 106.73L232.64 98.5234L242.962 103.844Z" fill="#1C3B8D"/>
<path opacity="0.2" d="M242.962 103.844L216.182 112.043L205.859 106.73L232.64 98.5234L242.962 103.844Z" fill="black"/>
<path d="M147.398 133.115L174.179 124.909L179.751 114.727L152.971 122.926L147.398 133.115Z" fill="#1C3B8D"/>
<path opacity="0.1" d="M147.398 133.115L174.179 124.909L179.751 114.727L152.971 122.926L147.398 133.115Z" fill="black"/>
<path d="M103.32 68.794C107.235 81.8844 118.12 104.313 122.16 107.051C125.72 109.501 142.806 107.273 150.28 105.653C153.077 105.053 147.32 83.6973 144.36 84.4003C140.779 85.2513 130.115 87.3603 129.361 86.7757C128.606 86.1911 118.261 72.7159 110.861 64.8128C104.142 57.6202 101.84 63.8435 103.32 68.794Z" fill="#D3766A"/>
<path d="M142.82 86.1413C142.82 86.1413 148.481 79.7626 152.492 77.3281C156.726 74.9049 161.484 73.5463 166.359 73.3691C171.621 73.1619 184.489 76.2847 184.23 80.1474C184.001 83.6476 171.014 79.7848 171.014 79.7848C171.014 79.7848 184.903 81.5386 183.853 85.7047C182.802 89.8708 167.98 84.5207 167.98 84.5207C167.98 84.5207 182.21 86.6371 180.478 90.7736C179.146 93.889 165.449 89.8043 165.449 89.8043C165.449 89.8043 177.674 91.7134 176.438 94.9842C175.076 98.5879 162.193 95.6131 162.193 95.6131C157.672 103.368 152.337 105.233 148.392 106.069C147.408 106.239 142.82 86.1413 142.82 86.1413Z" fill="#D3766A"/>
<path d="M166.253 78.8672C167.888 79.0152 169.553 79.1558 171.173 79.4444C172.794 79.733 174.4 80.0882 175.991 80.5322C178.075 81.0678 180.091 81.84 181.999 82.8335C178.485 81.3165 172.698 80.177 171.077 79.8736C169.457 79.5702 167.851 79.2076 166.238 78.919C166.193 78.9338 166.208 78.8672 166.253 78.8672Z" fill="#263238"/>
<path d="M165.088 84.7038C167.167 84.9776 169.254 85.1774 171.326 85.5474C173.398 85.9174 175.314 86.4502 177.349 86.9608C177.505 86.9978 177.431 87.0718 177.275 87.0348C175.218 86.6056 173.294 86.3688 171.237 85.9692C169.18 85.5696 167.138 85.0812 165.073 84.7482C165.043 84.7482 165.051 84.6964 165.088 84.7038Z" fill="#263238"/>
<path d="M163.192 89.5316C166.4 89.88 169.565 90.5594 172.634 91.5592C172.789 91.6036 172.686 91.685 172.523 91.648C169.4 90.908 166.951 90.316 163.184 89.6426C163.125 89.6352 163.125 89.5242 163.192 89.5316Z" fill="#263238"/>
<path d="M148.585 109.44L143.613 83.8958L129.753 86.0714C124.455 79.7075 113.873 66.9797 109.551 63.1318C104.482 58.6105 101.012 61.8368 102.751 68.5337C106.732 83.844 118.808 106.458 122.079 108.678C126.771 111.86 148.585 109.44 148.585 109.44Z" fill="#1C3B8D"/>
<path opacity="0.1" d="M139.203 87.4463C139.886 87.5949 140.583 87.6767 141.282 87.6905C142.762 87.8903 143.413 90.0732 142.066 90.902C141.359 91.3377 140.56 91.6014 139.732 91.6721C138.904 91.7428 138.072 91.6184 137.301 91.309C135.821 90.7318 134.57 89.2963 134.888 87.6091C134.944 87.2946 135.079 86.9997 135.282 86.7531C135.485 86.5065 135.748 86.3166 136.046 86.2018C136.344 86.0871 136.667 86.0515 136.982 86.0984C137.298 86.1453 137.597 86.2731 137.848 86.4695C138.258 86.8488 138.713 87.1769 139.203 87.4463ZM137.723 84.8267C138.187 85.0505 138.698 85.1593 139.213 85.1439C139.729 85.1284 140.233 84.9892 140.683 84.7379C140.848 84.6272 140.981 84.4738 141.067 84.2939L137.723 84.8267ZM130.523 85.9515C131.112 86.3819 131.839 86.5795 132.565 86.5065C132.815 86.4722 133.046 86.3512 133.216 86.1646C133.386 85.9781 133.486 85.7377 133.497 85.4853L130.523 85.9515ZM146.21 97.3547C145.917 97.4775 145.68 97.7041 145.544 97.9911C144.923 99.2417 145.788 100.588 147.024 101.395L146.21 97.3547ZM123.922 102.268C123.685 103.09 123.655 103.822 123.041 104.488C122.38 105.021 121.788 105.635 121.28 106.316C121.194 106.484 121.153 106.671 121.161 106.859C121.169 107.047 121.226 107.23 121.326 107.389C121.426 107.549 121.566 107.68 121.732 107.769C121.897 107.859 122.083 107.904 122.272 107.9C123.561 107.741 124.744 107.104 125.585 106.114C126.427 105.125 126.866 103.855 126.815 102.557C126.774 102.224 126.62 101.916 126.38 101.681C126.141 101.447 125.828 101.301 125.495 101.268C125.161 101.234 124.826 101.315 124.544 101.497C124.263 101.679 124.051 101.951 123.944 102.268H123.922ZM121.369 95.0978C120.954 96.1041 121.028 97.2437 120.681 98.2945C120.375 99.2578 120.012 100.202 119.593 101.121C119.282 101.787 119.904 102.838 120.71 102.483C122.022 101.979 123.095 100.999 123.715 99.7375C124.277 98.5757 124.899 96.6221 124.358 95.3864C123.818 94.1506 122.02 93.64 121.391 95.0978H121.369ZM110.387 68.9244C110.801 69.0119 111.232 68.9359 111.591 68.7124C111.95 68.489 112.208 68.1353 112.311 67.7256C112.726 66.1346 111.305 64.4993 110.18 63.5077C109.055 62.5161 107.472 61.6133 105.896 62.1239C105.686 62.1919 105.497 62.3124 105.347 62.4739C105.196 62.6354 105.09 62.8326 105.037 63.0469C104.985 63.2611 104.988 63.4852 105.046 63.6979C105.104 63.9107 105.216 64.105 105.37 64.2625C106.059 65.1209 107.013 65.7424 107.746 66.586C108.478 67.4296 109.122 68.7098 110.41 68.9244H110.387ZM116.1 75.2365C116.722 74.3411 116.241 73.0165 115.797 72.1655C115.56 71.6961 115.193 71.3054 114.739 71.0408C114.433 70.8452 114.062 70.7782 113.708 70.8544C113.353 70.9307 113.043 71.1439 112.844 71.4478C112.642 71.8685 112.611 72.3509 112.755 72.7945C112.817 73.0266 112.902 73.2522 113.007 73.4679V73.5345V73.5937C113.139 74.3004 113.439 74.9651 113.88 75.5325C114.033 75.6864 114.219 75.8028 114.425 75.8727C114.63 75.9426 114.849 75.9641 115.064 75.9354C115.279 75.9068 115.484 75.8287 115.664 75.7075C115.844 75.5863 115.993 75.425 116.1 75.2365ZM114.332 82.6364C114.602 82.6955 114.882 82.6955 115.153 82.6364C115.563 82.5101 115.91 82.2322 116.122 81.8594C116.321 81.4625 116.42 81.023 116.411 80.5792C116.398 80.1587 116.283 79.7476 116.078 79.3804L115.834 79.077L115.508 78.8402C115.305 78.7352 115.08 78.6774 114.851 78.6712C114.622 78.665 114.394 78.7105 114.185 78.8044C113.976 78.8982 113.791 79.038 113.643 79.2133C113.496 79.3887 113.389 79.595 113.333 79.817C113.209 80.248 113.123 80.6886 113.074 81.1342L113.14 81.5412C113.192 81.7454 113.294 81.9336 113.436 82.0888C113.664 82.3362 113.965 82.5047 114.295 82.5698L114.332 82.6364ZM120.54 75.1255L119.06 73.4605C118.824 73.4323 118.585 73.4922 118.39 73.6287C118.195 73.7652 118.057 73.9687 118.002 74.2005C117.943 74.6326 117.943 75.0708 118.002 75.5029C118.002 75.6879 118.002 75.8729 118.002 76.0653C117.998 76.3441 118.028 76.6224 118.091 76.8941C118.172 77.1757 118.345 77.4221 118.582 77.5938C118.82 77.7655 119.108 77.8526 119.401 77.8413C119.69 77.8263 119.966 77.7191 120.19 77.5353C120.414 77.3515 120.573 77.1008 120.644 76.8201C120.755 76.2557 120.719 75.6722 120.54 75.1255Z" fill="#030402"/>
<path d="M143.81 107.095C143.211 105.578 141.805 98.992 141.472 97.3418C141.139 95.6916 140.036 89.0613 139.703 87.3668C139.703 87.278 139.807 87.2188 139.829 87.315C140.184 88.9799 141.819 95.5436 142.167 97.1864C142.515 98.8292 143.84 105.415 143.899 107.073C143.902 107.084 143.9 107.097 143.894 107.107C143.887 107.118 143.877 107.125 143.866 107.128C143.854 107.131 143.841 107.129 143.831 107.123C143.821 107.117 143.813 107.107 143.81 107.095Z" fill="#263238"/>
<path d="M139.234 110.164C136.962 110.298 134.69 110.349 132.419 110.335C130.138 110.345 127.86 110.214 125.596 109.942C124.436 109.828 123.302 109.528 122.236 109.054C121.279 108.378 120.447 107.539 119.78 106.575C118.438 104.724 117.224 102.783 116.146 100.767C113.926 96.778 112.017 92.6267 110.152 88.4975C108.288 84.3684 106.593 80.1209 105.039 75.8438C106.926 79.9803 108.791 84.1242 110.73 88.2311C112.668 92.3381 114.629 96.4302 116.746 100.434C117.802 102.43 118.968 104.367 120.238 106.235C120.831 107.165 121.583 107.984 122.458 108.655C123.467 109.12 124.544 109.422 125.648 109.55C130.155 110.096 134.696 110.302 139.234 110.164Z" fill="#263238"/>
<path d="M106.485 79.4498C106.181 79.1428 105.906 78.8084 105.664 78.4508C105.412 78.0967 105.22 77.7044 105.094 77.2891C105.205 77.4729 105.326 77.6507 105.456 77.8219L105.819 78.3473C106.062 78.7013 106.285 79.0695 106.485 79.4498Z" fill="#263238"/>
<path d="M118.164 72.5938C120.036 74.4733 121.716 76.5379 123.455 78.5137C125.194 80.4894 126.859 82.5762 128.635 84.5446L129.293 85.2845C129.412 85.3955 129.523 85.5213 129.634 85.6249C129.745 85.7285 129.745 85.7211 129.797 85.7655C129.797 85.7655 129.848 85.7655 129.878 85.7655C130.44 85.7655 131.151 85.6397 131.787 85.5583L135.724 84.9738C138.344 84.589 140.97 84.1894 143.597 83.8342L143.701 84.4854L143.546 83.8416H143.583C140.985 84.3966 138.403 84.8923 135.768 85.3733C134.459 85.6101 133.149 85.8173 131.832 86.0171C131.158 86.134 130.479 86.213 129.797 86.2539C129.743 86.2609 129.688 86.2609 129.634 86.2539C129.561 86.2322 129.494 86.197 129.434 86.1503C129.359 86.0924 129.288 86.0306 129.219 85.9653L128.857 85.6101C128.62 85.3659 128.398 85.1217 128.176 84.8702C126.437 82.85 124.75 80.8076 123.092 78.7356L120.613 75.6203C119.799 74.6509 119.059 73.5853 118.164 72.5938Z" fill="#263238"/>
<path d="M119.133 72.8125C119.411 73.1549 119.659 73.5214 119.873 73.9077C120.081 74.2893 120.229 74.7013 120.309 75.1287C120.221 74.9289 120.11 74.7513 120.006 74.5589L119.703 73.9891C119.492 73.6074 119.301 73.2147 119.133 72.8125Z" fill="#263238"/>
<path d="M30.3864 266.315C30.1125 259.391 30.2088 252.457 30.675 245.543C31.6955 231.294 33.8708 217.151 37.1794 203.253C38.9924 195.424 41.2272 187.713 43.5581 180.032C43.6247 179.803 43.9947 179.87 43.9355 180.106C36.7355 207.22 30.823 235.206 31.23 263.385C31.3484 271.273 32.2585 279.021 33.0059 286.857C33.0059 287.072 32.6803 287.153 32.6359 286.938C31.1486 280.212 30.6676 273.167 30.3864 266.315Z" fill="#1C3B8D"/>
<path d="M43.935 180.07C43.935 180.07 54.8424 207.761 52.4005 214.265C49.9585 220.77 44.9192 222.161 44.9192 222.161C44.9192 222.161 51.5791 231.692 46.932 240.66C42.2848 249.629 31.9102 249.17 31.2146 259.308C31.2146 259.279 30.6374 216.907 43.935 180.07Z" fill="#1C3B8D"/>
<path d="M32.4025 241.787C32.3842 241.739 32.3842 241.686 32.4025 241.639C33.841 222.735 37.3929 204.052 42.9917 185.94C42.9917 185.888 43.0953 185.903 43.0805 185.94C40.9197 194.035 39.0105 202.175 37.353 210.359C38.8106 208.975 40.5913 207.978 42.5329 207.459C42.5329 207.459 42.5847 207.459 42.5329 207.51C40.4835 208.269 38.6426 209.501 37.1606 211.107C36.8448 212.705 36.5365 214.311 36.2356 215.924C38.6701 213.201 42.0519 211.847 45.4336 210.559C45.478 210.559 45.5076 210.618 45.4336 210.633C41.9113 212.069 38.3963 213.919 36.0136 216.953C35.1749 221.546 34.4349 226.156 33.7936 230.783C35.5572 228.945 37.8171 227.66 40.2981 227.083C40.3721 227.083 40.4165 227.179 40.2981 227.201C37.7374 227.941 35.4468 229.409 33.7048 231.427H33.6604C33.4434 233.055 33.2386 234.685 33.0462 236.318C34.4519 235.158 36.0396 234.238 37.7452 233.595C37.7896 233.595 37.8118 233.647 37.7452 233.662C36.0748 234.402 34.5451 235.426 33.2238 236.688C33.2238 236.688 33.2238 236.688 33.1646 236.688C32.987 238.235 32.802 239.789 32.6466 241.343C35.1041 238.374 38.2919 236.097 41.8965 234.735C41.9038 234.732 41.9116 234.73 41.9194 234.73C41.9273 234.73 41.935 234.732 41.9422 234.735C41.9495 234.738 41.956 234.743 41.9615 234.748C41.967 234.754 41.9713 234.761 41.9742 234.768C41.9771 234.775 41.9786 234.783 41.9785 234.791C41.9784 234.799 41.9767 234.806 41.9736 234.814C41.9705 234.821 41.9661 234.827 41.9604 234.833C41.9548 234.838 41.9482 234.843 41.9409 234.846C38.3805 236.414 35.2526 238.821 32.8242 241.861C32.7993 241.896 32.7634 241.923 32.722 241.936C32.6806 241.949 32.6359 241.949 32.5948 241.935C32.3581 244.317 32.1435 246.708 31.9733 249.098H31.9141C32.0325 246.678 32.2027 244.229 32.4025 241.787Z" fill="#263238"/>
<path d="M41.1649 204.73C43.1396 203.5 45.397 202.796 47.7211 202.688C47.7729 202.687 47.7803 202.762 47.7211 202.769C45.4762 203.184 43.2964 203.896 41.2388 204.885C41.2195 204.889 41.1994 204.886 41.1817 204.878C41.1641 204.869 41.1499 204.854 41.1414 204.836C41.133 204.819 41.1306 204.798 41.1349 204.779C41.1391 204.76 41.1497 204.742 41.1649 204.73Z" fill="#263238"/>
<path d="M39.8422 234.047C41.361 233.18 43.031 232.61 44.7631 232.367C44.8223 232.367 44.8297 232.449 44.7631 232.456C43.0662 232.797 41.425 233.372 39.8866 234.165C39.8348 234.195 39.7756 234.084 39.8422 234.047Z" fill="#263238"/>
<path d="M1.71303 214.716C6.32505 217.907 10.5602 221.611 14.3372 225.756C18.2426 230.138 21.2586 235.238 23.2171 240.771C27.356 252.302 29.5831 264.433 29.8104 276.682C29.9521 283.467 29.299 290.244 27.8642 296.877C27.8516 296.923 27.8222 296.963 27.7816 296.989C27.7411 297.014 27.6924 297.024 27.6451 297.016C27.5978 297.007 27.5553 296.982 27.526 296.944C27.4967 296.905 27.4827 296.858 27.4868 296.81C29.2741 285.105 29.2142 273.192 27.3092 261.505C25.4296 250.05 22.4919 237.589 15.2104 228.28C11.2071 223.233 6.26395 219.23 1.40963 215.093C1.12104 214.886 1.44663 214.531 1.71303 214.716Z" fill="#1C3B8D"/>
<path d="M28.1797 268.44C25.5563 264.192 22.4716 260.246 18.9817 256.675C13.5206 251.221 8.92527 247.343 8.21488 243.732C7.50449 240.121 13.6834 237.472 13.6834 237.472C13.6834 237.472 6.12811 238.826 4.06355 235.652C1.99898 232.477 1 214.133 1 214.133C1 214.133 14.7268 223.975 21.1425 237.687C27.5582 251.399 28.1797 268.44 28.1797 268.44Z" fill="#1C3B8D"/>
<path d="M5.90989 231.376C6.8141 231.247 7.72975 231.217 8.64045 231.287C8.75144 231.287 8.74404 231.479 8.64045 231.479C7.73766 231.479 6.83487 231.435 5.92469 231.479C5.85069 231.465 5.85069 231.376 5.90989 231.376Z" fill="#263238"/>
<path d="M15.7929 249.133C17.2455 249.163 18.6812 249.451 20.033 249.984C20.033 249.984 20.033 250.05 20.033 250.043C18.6344 249.71 17.221 249.569 15.8077 249.34C15.6671 249.34 15.6745 249.133 15.7929 249.133Z" fill="#263238"/>
<path d="M18.7573 243C19.3606 242.995 19.9629 243.05 20.5554 243.163C20.6146 243.163 20.6072 243.274 20.5554 243.274C19.9546 243.304 19.3523 243.274 18.7573 243.185C18.7372 243.18 18.7195 243.167 18.7069 243.151C18.6943 243.134 18.6875 243.114 18.6875 243.093C18.6875 243.072 18.6943 243.052 18.7069 243.035C18.7195 243.018 18.7372 243.006 18.7573 243Z" fill="#263238"/>
<path d="M68.4507 234.201C63.9824 235.716 59.7002 237.731 55.6859 240.21C51.5292 242.865 47.9238 246.297 45.0671 250.318C39.052 258.695 34.4454 267.999 31.4291 277.861C29.7506 283.319 28.7126 288.953 28.3359 294.651C28.3359 294.694 28.3531 294.736 28.3836 294.766C28.4142 294.797 28.4556 294.814 28.4987 294.814C28.5419 294.814 28.5833 294.797 28.6139 294.766C28.6444 294.736 28.6615 294.694 28.6615 294.651C29.912 284.779 32.701 275.163 36.9272 266.154C41.0933 257.319 46.3546 247.913 54.3983 242.067C58.779 238.878 63.6999 236.799 68.6061 234.594C68.8947 234.475 68.7467 234.113 68.4507 234.201Z" fill="#1C3B8D"/>
<path d="M34.6172 271.554C37.7204 268.72 41.1278 266.239 44.7772 264.154C50.4603 261.002 55.0704 258.923 56.4838 256.17C57.8972 253.417 53.5239 249.836 53.5239 249.836C53.5239 249.836 59.318 252.677 61.7229 250.576C64.1279 248.474 69.1746 233.859 69.1746 233.859C69.1746 233.859 55.7956 238.625 47.4338 248.274C39.0719 257.924 34.6172 271.554 34.6172 271.554Z" fill="#1C3B8D"/>
<path d="M45.7237 258.119C47.037 258.027 48.3558 258.188 49.6086 258.592C49.6086 258.592 49.6086 258.659 49.6086 258.652C48.3283 258.437 47.0357 258.303 45.7385 258.252C45.7208 258.254 45.7031 258.249 45.6892 258.238C45.6753 258.227 45.6664 258.21 45.6645 258.193C45.6625 258.175 45.6676 258.157 45.6788 258.144C45.6899 258.13 45.706 258.121 45.7237 258.119Z" fill="#263238"/>
<path d="M57.3993 242.799C57.9982 242.756 58.6001 242.791 59.19 242.903C59.2014 242.907 59.2111 242.915 59.218 242.925C59.2249 242.934 59.2286 242.946 59.2286 242.958C59.2286 242.97 59.2249 242.982 59.218 242.992C59.2111 243.002 59.2014 243.01 59.19 243.014C58.6055 242.947 58.0209 242.969 57.4289 242.955C57.4107 242.954 57.3933 242.947 57.3795 242.935C57.3657 242.923 57.3564 242.906 57.353 242.889C57.3496 242.871 57.3523 242.852 57.3607 242.836C57.3691 242.82 57.3827 242.807 57.3993 242.799Z" fill="#263238"/>
<path d="M17.3516 313.102H47.5579L43.2511 281.541L42.1485 273.453H22.7609L21.6583 281.541L17.3516 313.102Z" fill="#455A64"/>
<path d="M21.6641 281.541H43.2569L42.1543 273.453H22.7666L21.6641 281.541Z" fill="#263238"/>
<path d="M19.9769 277.5H44.9219V270.648H19.9769V277.5Z" fill="#455A64"/>
<path d="M178.26 16.6034C178.259 19.6487 177.413 22.634 175.815 25.2263C174.217 27.8187 171.93 29.916 169.209 31.2843C166.489 32.6527 163.442 33.2382 160.408 32.9757C157.374 32.7131 154.472 31.6127 152.027 29.7973L143.969 31.8545L147.321 24.3584C146.141 22.1544 145.479 19.7103 145.386 17.212C145.293 14.7138 145.771 12.2272 146.783 9.9413C147.795 7.65541 149.315 5.63044 151.228 4.02036C153.14 2.41028 155.395 1.25749 157.819 0.649654C160.244 0.0418197 162.776 -0.00505482 165.222 0.512594C167.668 1.03024 169.963 2.09879 171.934 3.63697C173.905 5.17515 175.499 7.14246 176.595 9.38931C177.691 11.6362 178.26 14.1034 178.26 16.6034Z" fill="white"/>
<path d="M178.262 16.5959C178.261 19.645 177.421 22.6351 175.835 25.239C175.449 25.8953 175.024 26.5279 174.562 27.1333C174.071 27.713 173.544 28.2616 172.986 28.7761C171.882 29.8169 170.636 30.6963 169.286 31.3883C167.931 32.0796 166.487 32.5778 164.994 32.8682C164.244 33.0174 163.485 33.1114 162.722 33.1494C161.961 33.2123 161.196 33.2123 160.435 33.1494C157.358 32.9106 154.406 31.8218 151.911 30.0045L152.133 30.0489L144.097 32.1652L143.445 32.3354L143.719 31.7139L147.042 24.203V24.5138C145.833 22.2669 145.158 19.7721 145.068 17.2224C144.978 14.6727 145.476 12.1365 146.524 9.81022C147.572 7.49043 149.133 5.43857 151.089 3.80893C153.043 2.20331 155.335 1.06095 157.793 0.467577C160.251 -0.1258 162.811 -0.154791 165.282 0.382782C167.731 0.939788 170.024 2.03705 171.994 3.59433C173.953 5.14686 175.535 7.12338 176.621 9.37531C177.707 11.6272 178.268 14.096 178.262 16.5959ZM178.262 16.5959C178.26 12.8367 176.958 9.19379 174.576 6.28565C172.194 3.37751 168.879 1.38337 165.194 0.641779C162.769 0.159118 160.266 0.235036 157.875 0.863775C155.492 1.47929 153.282 2.63372 151.415 4.23812C149.565 5.85988 148.091 7.86477 147.093 10.1136C146.11 12.3561 145.649 14.7929 145.747 17.2397C145.861 19.6621 146.508 22.0295 147.641 24.1734L147.722 24.3288L147.648 24.4842L144.267 31.9729L143.889 31.5289L151.963 29.5309H152.088L152.185 29.6049C154.577 31.4223 157.43 32.537 160.421 32.8238C161.16 32.8782 161.902 32.8782 162.641 32.8238C164.902 32.7461 167.12 32.1834 169.145 31.1737C170.496 30.5161 171.742 29.6634 172.845 28.6429C173.404 28.1361 173.93 27.5948 174.421 27.0223C174.892 26.4336 175.33 25.8184 175.731 25.1798C177.346 22.6049 178.222 19.6352 178.262 16.5959Z" fill="#263238"/>
<path d="M162.97 18.3777V20.1907C162.975 20.3719 162.943 20.5522 162.876 20.7206C162.809 20.889 162.708 21.0419 162.58 21.1701C162.452 21.2982 162.299 21.3989 162.13 21.4659C161.962 21.5329 161.782 21.5648 161.601 21.5597C161.421 21.5597 161.244 21.5242 161.078 21.4553C160.912 21.3865 160.762 21.2855 160.635 21.1583C160.509 21.0311 160.409 20.8801 160.341 20.714C160.273 20.548 160.238 20.3701 160.239 20.1907V17.2974C160.239 17.2974 160.239 17.2974 160.239 17.2382C160.239 17.179 160.239 17.2382 160.239 17.1864C160.248 16.8275 160.395 16.4857 160.648 16.2312C160.901 15.9767 161.242 15.8286 161.601 15.8174C162.023 15.838 162.445 15.7725 162.841 15.6251C163.238 15.4776 163.6 15.2512 163.906 14.9595C164.213 14.6679 164.456 14.3171 164.623 13.9284C164.789 13.5397 164.875 13.1212 164.875 12.6983C164.875 12.2755 164.789 11.857 164.623 11.4683C164.456 11.0796 164.213 10.7288 163.906 10.4371C163.6 10.1455 163.238 9.91905 162.841 9.77159C162.445 9.62414 162.023 9.55871 161.601 9.57929C161.06 9.57759 160.529 9.71826 160.06 9.98715C159.591 10.256 159.201 10.6437 158.929 11.1111C158.838 11.2687 158.717 11.4068 158.572 11.5175C158.428 11.6281 158.263 11.7091 158.087 11.7559C157.911 11.8026 157.727 11.8142 157.547 11.7899C157.366 11.7656 157.192 11.7059 157.035 11.6143C156.88 11.5228 156.746 11.4017 156.638 11.258C156.531 11.1142 156.453 10.9506 156.409 10.7767C156.365 10.6027 156.356 10.4217 156.382 10.2441C156.408 10.0666 156.469 9.89597 156.561 9.74209C157.048 8.90386 157.735 8.19963 158.562 7.69264C159.388 7.18564 160.327 6.89175 161.295 6.83735C162.262 6.78295 163.228 6.96975 164.106 7.38096C164.984 7.79218 165.746 8.41494 166.324 9.19334C166.901 9.97174 167.276 10.8814 167.416 11.8407C167.555 12.7999 167.454 13.7787 167.121 14.6892C166.789 15.5997 166.235 16.4134 165.511 17.0572C164.786 17.701 163.913 18.1548 162.97 18.3777ZM162.97 24.4826V24.9858C162.974 25.1664 162.941 25.3459 162.874 25.5134C162.806 25.6809 162.705 25.833 162.577 25.9604C162.449 26.0877 162.297 26.1877 162.129 26.2542C161.961 26.3208 161.781 26.3525 161.601 26.3474C161.24 26.3474 160.893 26.204 160.638 25.9486C160.382 25.6933 160.239 25.3469 160.239 24.9858V24.4826C160.243 24.122 160.387 23.7771 160.642 23.5214C160.896 23.2657 161.24 23.1194 161.601 23.1137C161.781 23.1117 161.96 23.1457 162.127 23.2138C162.294 23.2819 162.446 23.3827 162.573 23.5102C162.701 23.6377 162.801 23.7894 162.869 23.9564C162.938 24.1234 162.972 24.3023 162.97 24.4826Z" fill="#1C3B8D"/>
</g>
<defs>
<clipPath id="clip0_54_2113">
<rect width="311" height="313" fill="white"/>
</clipPath>
</defs>
</svg>
