<svg width="32" height="32" viewBox="0 0 32 32" fill="none" xmlns="http://www.w3.org/2000/svg">
<path d="M8.00783 30.9197C7.83928 30.835 7.70714 30.692 7.6359 30.5174C7.56465 30.3427 7.55912 30.1481 7.62033 29.9697L8.62533 27.0272L10.5928 28.3547L9.00283 30.6647C8.89562 30.8201 8.73588 30.9314 8.55302 30.9783C8.37017 31.0252 8.17654 31.0043 8.00783 30.9197ZM23.8378 30.9197C24.1853 30.7447 24.3528 30.3397 24.2253 29.9697L23.2078 26.9922L21.1353 28.1847L22.8428 30.6647C22.95 30.8201 23.1098 30.9314 23.2926 30.9783C23.4755 31.0252 23.6691 31.0043 23.8378 30.9197Z" fill="#82AEC0"/>
<path d="M8.62969 27.0219L8.11719 28.5219C8.43469 28.3394 8.84969 28.3569 9.17969 28.5194C9.50969 28.6819 9.76219 28.9669 9.95469 29.2819L10.5372 28.4369C10.5372 28.4019 8.62969 27.0219 8.62969 27.0219ZM23.2197 26.9844L23.7747 28.6344C23.4572 28.4519 23.0772 28.4569 22.7447 28.6194C22.4147 28.7819 22.1622 29.0669 21.9697 29.3819L21.2072 28.2744L23.2197 26.9844Z" fill="#2F7889"/>
<path d="M15.9244 28.9816C21.7247 28.9816 26.4269 24.2794 26.4269 18.4791C26.4269 12.6787 21.7247 7.97656 15.9244 7.97656C10.124 7.97656 5.42188 12.6787 5.42188 18.4791C5.42188 24.2794 10.124 28.9816 15.9244 28.9816Z" fill="#FFEFA1"/>
<path d="M15.9259 29.8988C22.7411 29.8988 28.2659 24.3739 28.2659 17.5588C28.2659 10.7436 22.7411 5.21875 15.9259 5.21875C9.11074 5.21875 3.58594 10.7436 3.58594 17.5588C3.58594 24.3739 9.11074 29.8988 15.9259 29.8988Z" fill="#CC2929"/>
<path d="M15.9281 29.7781C22.3346 29.7781 27.5281 24.5846 27.5281 18.1781C27.5281 11.7716 22.3346 6.57812 15.9281 6.57812C9.52162 6.57812 4.32812 11.7716 4.32812 18.1781C4.32812 24.5846 9.52162 29.7781 15.9281 29.7781Z" fill="#FF4638"/>
<path d="M15.9216 28.1791C21.4486 28.1791 25.9291 23.6986 25.9291 18.1716C25.9291 12.6446 21.4486 8.16406 15.9216 8.16406C10.3946 8.16406 5.91406 12.6446 5.91406 18.1716C5.91406 23.6986 10.3946 28.1791 15.9216 28.1791Z" fill="#FAFAFA"/>
<path d="M16.0031 19.2875C16.6175 19.2875 17.1156 18.7894 17.1156 18.175C17.1156 17.5606 16.6175 17.0625 16.0031 17.0625C15.3887 17.0625 14.8906 17.5606 14.8906 18.175C14.8906 18.7894 15.3887 19.2875 16.0031 19.2875Z" fill="#563428"/>
<path d="M15.9275 10.6397C15.725 10.6397 15.56 10.4747 15.56 10.2722V9.17219C15.56 8.96969 15.725 8.80469 15.9275 8.80469C16.13 8.80469 16.295 8.96969 16.295 9.17219V10.2722C16.295 10.4747 16.13 10.6397 15.9275 10.6397ZM15.9275 27.5372C15.725 27.5372 15.56 27.3722 15.56 27.1697V26.0697C15.56 25.8672 15.725 25.7022 15.9275 25.7022C16.13 25.7022 16.295 25.8672 16.295 26.0697V27.1697C16.295 27.3722 16.13 27.5372 15.9275 27.5372ZM24.925 18.5372H23.825C23.6225 18.5372 23.4575 18.3722 23.4575 18.1697C23.4575 17.9672 23.6225 17.8022 23.825 17.8022H24.925C25.1275 17.8022 25.2925 17.9672 25.2925 18.1697C25.2925 18.3747 25.1275 18.5372 24.925 18.5372ZM8.03 18.5372H6.93C6.7275 18.5372 6.5625 18.3722 6.5625 18.1697C6.5625 17.9672 6.7275 17.8022 6.93 17.8022H8.03C8.2325 17.8022 8.3975 17.9672 8.3975 18.1697C8.3975 18.3747 8.2325 18.5372 8.03 18.5372Z" fill="#B2947C"/>
<path d="M15.9222 10.6397C15.7197 10.6397 15.5547 10.4747 15.5547 10.2722V9.17219C15.5547 8.96969 15.7197 8.80469 15.9222 8.80469C16.1247 8.80469 16.2897 8.96969 16.2897 9.17219V10.2722C16.2897 10.4747 16.1247 10.6397 15.9222 10.6397ZM15.9222 27.5372C15.7197 27.5372 15.5547 27.3722 15.5547 27.1697V26.0697C15.5547 25.8672 15.7197 25.7022 15.9222 25.7022C16.1247 25.7022 16.2897 25.8672 16.2897 26.0697V27.1697C16.2897 27.3722 16.1247 27.5372 15.9222 27.5372ZM11.6547 11.5147L11.1047 10.5622C11.0022 10.3872 11.0622 10.1622 11.2397 10.0597C11.4147 9.95719 11.6397 10.0172 11.7422 10.1947L12.2922 11.1472C12.3947 11.3222 12.3347 11.5472 12.1572 11.6497C11.9822 11.7497 11.7572 11.6897 11.6547 11.5147ZM20.1047 26.1472L19.5547 25.1947C19.4522 25.0197 19.5147 24.7947 19.6897 24.6922C19.8647 24.5897 20.0897 24.6522 20.1922 24.8272L20.7422 25.7797C20.8447 25.9547 20.7822 26.1797 20.6072 26.2822C20.4297 26.3822 20.2047 26.3222 20.1047 26.1472Z" fill="#B2947C"/>
<path d="M11.6576 11.5206L11.1076 10.5681C11.0051 10.3931 11.0651 10.1681 11.2426 10.0656C11.4176 9.96313 11.6426 10.0231 11.7451 10.2006L12.2951 11.1531C12.3976 11.3281 12.3376 11.5531 12.1601 11.6556C11.9851 11.7556 11.7601 11.6956 11.6576 11.5206ZM20.1076 26.1531L19.5576 25.2006C19.4551 25.0256 19.5176 24.8006 19.6926 24.6981C19.8676 24.5956 20.0926 24.6581 20.1951 24.8331L20.7451 25.7856C20.8476 25.9606 20.7851 26.1856 20.6101 26.2881C20.4326 26.3881 20.2076 26.3281 20.1076 26.1531ZM8.90258 14.5456L7.95008 13.9956C7.77508 13.8931 7.71508 13.6706 7.81508 13.4931C7.91758 13.3181 8.14008 13.2581 8.31758 13.3581L9.27008 13.9081C9.44508 14.0106 9.50508 14.2331 9.40508 14.4106C9.30258 14.5881 9.07758 14.6481 8.90258 14.5456ZM23.5351 22.9931L22.5826 22.4431C22.4076 22.3406 22.3476 22.1181 22.4476 21.9406C22.5501 21.7656 22.7726 21.7056 22.9501 21.8056L23.9026 22.3556C24.0776 22.4581 24.1376 22.6806 24.0376 22.8581C23.9351 23.0356 23.7101 23.0956 23.5351 22.9931ZM19.6901 11.6556C19.5151 11.5531 19.4551 11.3306 19.5551 11.1531L20.1051 10.2006C20.2076 10.0256 20.4301 9.96563 20.6076 10.0656C20.7826 10.1681 20.8426 10.3906 20.7426 10.5681L20.1926 11.5206C20.0901 11.6956 19.8676 11.7556 19.6901 11.6556ZM11.2426 26.2881C11.0676 26.1856 11.0076 25.9631 11.1076 25.7856L11.6576 24.8331C11.7601 24.6581 11.9826 24.5981 12.1601 24.6981C12.3351 24.8006 12.3951 25.0231 12.2951 25.2006L11.7451 26.1531C11.6426 26.3281 11.4176 26.3881 11.2426 26.2881ZM22.4476 14.4106C22.3451 14.2356 22.4051 14.0106 22.5826 13.9081L23.5351 13.3581C23.7101 13.2556 23.9351 13.3181 24.0376 13.4931C24.1401 13.6681 24.0776 13.8931 23.9026 13.9956L22.9501 14.5456C22.7726 14.6481 22.5476 14.5881 22.4476 14.4106ZM7.81508 22.8606C7.71258 22.6856 7.77508 22.4606 7.95008 22.3581L8.90258 21.8081C9.07758 21.7056 9.30258 21.7681 9.40508 21.9431C9.50758 22.1181 9.44508 22.3431 9.27008 22.4456L8.31758 22.9956C8.14008 23.0956 7.91508 23.0356 7.81508 22.8606Z" fill="#B2947C"/>
<path d="M11.875 15.875L15.9275 18.1775" stroke="#563428" stroke-width="0.9375" stroke-miterlimit="10" stroke-linecap="round"/>
<path d="M21.7169 14.8516L16.1094 18.1741" stroke="#563428" stroke-width="0.65625" stroke-miterlimit="10" stroke-linecap="round"/>
<path d="M22.9959 8.12063L21.9609 7.44313L25.4834 1.20312L26.5584 1.81063L22.9959 8.12063Z" fill="#82AEC0"/>
<path d="M27.7933 8.80282C28.1008 8.89282 28.4308 8.72282 28.5258 8.41782C29.3358 5.83032 28.2858 3.01532 25.7458 1.70782C23.1883 0.390316 20.4108 1.25532 18.7933 3.46282C18.6108 3.71032 18.6533 4.05782 18.8833 4.26032C19.4058 4.72282 20.5658 5.59282 22.8783 6.76282C25.3208 7.99782 26.9958 8.56782 27.7933 8.80282Z" fill="#CC2929"/>
<path d="M26.4662 2.57664C26.4662 2.57664 27.1187 1.74414 26.1712 1.21664C25.4338 0.806641 24.9662 1.70414 24.9662 1.70414C24.8037 2.00164 26.3538 2.78164 26.4662 2.57664ZM8.91125 8.13164L5.34375 1.81414L6.42125 1.20664L9.88625 7.34664L8.91125 8.13164Z" fill="#82AEC0"/>
<path d="M4.20413 8.80282C3.89663 8.89282 3.56663 8.72282 3.47163 8.41782C2.66163 5.83032 3.71163 3.01532 6.25163 1.70782C8.80913 0.390316 11.5866 1.25532 13.2041 3.46282C13.3866 3.71032 13.3441 4.05782 13.1141 4.26032C12.5916 4.72282 11.4316 5.59282 9.11913 6.76282C6.67663 7.99782 5.00163 8.56782 4.20413 8.80282Z" fill="#CC2929"/>
<path d="M5.53933 2.57664C5.53933 2.57664 4.88683 1.74414 5.83433 1.21664C6.57183 0.806641 7.03933 1.70414 7.03933 1.70414C7.20183 2.00164 5.65183 2.78164 5.53933 2.57664Z" fill="#82AEC0"/>
<path d="M15.9219 5.805V2.375" stroke="#82AEC0" stroke-width="0.694875" stroke-miterlimit="10"/>
<path d="M15.9391 3.59531C14.9591 3.59531 13.9766 3.22031 13.9766 3.22031V2.47781C13.9766 2.47781 14.8891 2.07031 15.9866 2.07031C17.0841 2.07031 17.8991 2.47781 17.8991 2.47781V3.22031C17.9016 3.22281 16.9216 3.59531 15.9391 3.59531Z" fill="#82AEC0"/>
<path d="M14.2275 2.44844C14.12 2.48844 14.11 2.63594 14.21 2.69344C14.355 2.77594 14.5275 2.86094 14.5875 2.85094C15.4125 2.72344 16.61 2.78594 17.4375 2.91094C17.495 2.92094 17.66 2.78094 17.7775 2.67594C17.8425 2.61594 17.8275 2.51344 17.7475 2.47594C17.4875 2.35844 16.9 2.14844 15.99 2.14844C15.15 2.14844 14.5425 2.32594 14.2275 2.44844Z" fill="#94D1E0"/>
<path d="M23.7666 1.97635C23.8441 2.24135 23.5591 2.45885 23.3291 2.61135C22.7492 3.00084 22.2833 3.53751 21.9791 4.16635C21.8341 4.46635 21.6716 4.83385 21.3391 4.88135C21.2066 4.89885 21.0766 4.85885 20.9516 4.81385C20.7591 4.74385 20.5716 4.66385 20.3891 4.57135C20.1716 4.46135 19.9491 4.32135 19.8491 4.09885C19.7191 3.80635 19.8416 3.46135 20.0166 3.19135C20.4341 2.55385 21.1141 2.15885 21.8141 1.89885C22.2366 1.74135 23.5566 1.25885 23.7666 1.97635ZM6.53411 4.08385C6.69661 4.42135 6.87911 4.74885 7.08161 5.06385C7.32911 5.44885 7.61661 5.87885 7.51161 6.32385C7.38911 6.83385 6.82411 7.07885 6.32661 7.24885C6.07161 7.33635 5.81911 7.42385 5.56411 7.51135C5.42911 7.55885 5.28661 7.60635 5.14411 7.59885C4.91911 7.58885 4.71661 7.44635 4.58911 7.26385C4.45911 7.08135 4.39411 6.86135 4.34411 6.64385C4.15661 5.80635 4.19411 4.91885 4.45161 4.09885C4.60161 3.62885 4.83661 3.13385 5.36911 3.09635C6.01661 3.05135 6.29161 3.57885 6.53411 4.08385Z" fill="#FF4638"/>
</svg>
