<svg width="39" height="40" viewBox="0 0 39 40" fill="none" xmlns="http://www.w3.org/2000/svg">
<path d="M13.865 18.7555L20.1575 12.6157C20.4144 12.3651 20.5377 12.0728 20.5274 11.7386C20.5171 11.4045 20.3831 11.1121 20.1254 10.8615C19.8686 10.6318 19.569 10.5115 19.2265 10.5007C18.8841 10.4898 18.5844 10.6101 18.3276 10.8615L9.85195 19.1314C9.72353 19.2567 9.63235 19.3924 9.57841 19.5386C9.52448 19.6848 9.49837 19.8414 9.50008 20.0085C9.50179 20.1755 9.52876 20.3322 9.58098 20.4784C9.63321 20.6245 9.72396 20.7603 9.85323 20.8856L18.3289 29.1554C18.5643 29.3851 18.8588 29.5 19.2124 29.5C19.566 29.5 19.8707 29.3851 20.1267 29.1554C20.3836 28.9048 20.512 28.607 20.512 28.262C20.512 27.917 20.3836 27.6197 20.1267 27.3699L13.865 21.2615L28.2158 21.2615C28.5797 21.2615 28.8849 21.1412 29.1314 20.9006C29.378 20.66 29.5009 20.3627 29.5 20.0085C29.4991 19.6543 29.3759 19.3565 29.1301 19.1151C28.8844 18.8737 28.5797 18.7538 28.2158 18.7555L13.865 18.7555Z" fill="#0A0A0A"/>
</svg>
