<svg width="48" height="48" viewBox="0 0 48 48" fill="none" xmlns="http://www.w3.org/2000/svg">
<path d="M3 13.4981L22.9005 9.23361C23.6253 9.07838 24.3747 9.07838 25.0995 9.23361L45 13.4981V37.1981C45 39.2668 44.1782 41.2508 42.7154 42.7135C41.2527 44.1763 39.2687 44.9981 37.2 44.9981H10.8C8.73131 44.9981 6.74735 44.1763 5.28457 42.7135C3.82178 41.2508 3 39.2668 3 37.1981V13.4981Z" fill="#B4ACBC"/>
<path d="M4.5 16.3575V36.75C4.5 38.5402 5.21116 40.2571 6.47703 41.523C7.7429 42.7888 9.45979 43.5 11.25 43.5H35.25L43.5 34.9995V16.3575L24 13.5L4.5 16.3575Z" fill="#F3EEF8"/>
<path d="M12.3 19.5C12.2204 19.5 12.1441 19.5316 12.0879 19.5879C12.0316 19.6441 12 19.7204 12 19.8V23.7C12 23.865 12.135 24 12.3 24H16.2C16.2796 24 16.3559 23.9684 16.4121 23.9121C16.4684 23.8559 16.5 23.7796 16.5 23.7V19.8C16.5 19.7204 16.4684 19.6441 16.4121 19.5879C16.3559 19.5316 16.2796 19.5 16.2 19.5H12.3ZM22.05 19.5C21.9704 19.5 21.8941 19.5316 21.8379 19.5879C21.7816 19.6441 21.75 19.7204 21.75 19.8V23.7C21.75 23.865 21.885 24 22.05 24H25.95C26.0296 24 26.1059 23.9684 26.1621 23.9121C26.2184 23.8559 26.25 23.7796 26.25 23.7V19.8C26.25 19.7204 26.2184 19.6441 26.1621 19.5879C26.1059 19.5316 26.0296 19.5 25.95 19.5H22.05ZM31.5 19.8C31.5 19.635 31.635 19.5 31.8 19.5H35.7C35.865 19.5 36 19.635 36 19.8V23.7C36 23.7796 35.9684 23.8559 35.9121 23.9121C35.8559 23.9684 35.7796 24 35.7 24H31.8C31.7204 24 31.6441 23.9684 31.5879 23.9121C31.5316 23.8559 31.5 23.7796 31.5 23.7V19.8ZM12.3 27C12.2204 27 12.1441 27.0316 12.0879 27.0879C12.0316 27.1441 12 27.2204 12 27.3V31.2C12 31.365 12.135 31.5 12.3 31.5H16.2C16.2796 31.5 16.3559 31.4684 16.4121 31.4121C16.4684 31.3559 16.5 31.2796 16.5 31.2V27.3C16.5 27.2204 16.4684 27.1441 16.4121 27.0879C16.3559 27.0316 16.2796 27 16.2 27H12.3ZM21.75 27.3C21.75 27.135 21.885 27 22.05 27H25.95C26.115 27 26.25 27.135 26.25 27.3V31.2C26.25 31.2796 26.2184 31.3559 26.1621 31.4121C26.1059 31.4684 26.0296 31.5 25.95 31.5H22.05C21.9704 31.5 21.8941 31.4684 21.8379 31.4121C21.7816 31.3559 21.75 31.2796 21.75 31.2V27.3ZM12.3 34.5C12.2204 34.5 12.1441 34.5316 12.0879 34.5879C12.0316 34.6441 12 34.7204 12 34.8V38.7C12 38.865 12.135 39 12.3 39H16.2C16.2796 39 16.3559 38.9684 16.4121 38.9121C16.4684 38.8559 16.5 38.7796 16.5 38.7V34.8C16.5 34.7204 16.4684 34.6441 16.4121 34.5879C16.3559 34.5316 16.2796 34.5 16.2 34.5H12.3ZM21.75 34.8C21.75 34.635 21.885 34.5 22.05 34.5H25.95C26.115 34.5 26.25 34.635 26.25 34.8V38.7C26.25 38.7796 26.2184 38.8559 26.1621 38.9121C26.1059 38.9684 26.0296 39 25.95 39H22.05C21.9704 39 21.8941 38.9684 21.8379 38.9121C21.7816 38.8559 21.75 38.7796 21.75 38.7V34.8ZM31.8 34.5C31.7204 34.5 31.6441 34.5316 31.5879 34.5879C31.5316 34.6441 31.5 34.7204 31.5 34.8V38.7C31.5 38.865 31.635 39 31.8 39H35.7C35.7796 39 35.8559 38.9684 35.9121 38.9121C35.9684 38.8559 36 38.7796 36 38.7V34.8C36 34.7204 35.9684 34.6441 35.9121 34.5879C35.8559 34.5316 35.7796 34.5 35.7 34.5H31.8ZM45.015 39.36V34.5L38.25 38.25L34.515 45H39.375C42.495 45 45.015 42.465 45.015 39.36Z" fill="#998EA4"/>
<path d="M34.5156 40.14V45L45.0156 34.5H40.1556C37.0506 34.5 34.5156 37.035 34.5156 40.14Z" fill="#E1D8EC"/>
<path d="M45 13.1809V16.5034H3V13.1809C3 10.0399 5.535 7.48844 8.6385 7.50344H37.554L38.646 6.64844L39.804 7.52144C42.702 7.74644 45 10.1914 45 13.1809ZM31.8 27.0034C31.7204 27.0034 31.6441 27.035 31.5879 27.0913C31.5316 27.1476 31.5 27.2239 31.5 27.3034V31.2034C31.5 31.3684 31.635 31.5034 31.8 31.5034H35.7C35.7796 31.5034 35.8559 31.4718 35.9121 31.4156C35.9684 31.3593 36 31.283 36 31.2034V27.3034C36 27.2239 35.9684 27.1476 35.9121 27.0913C35.8559 27.035 35.7796 27.0034 35.7 27.0034H31.8Z" fill="#0084CE"/>
<path d="M17.2797 7.50052C17.1876 8.09843 17.3024 8.70987 17.6052 9.23362C17.908 9.75736 18.3806 10.162 18.9447 10.3805C19.4367 10.5725 19.8747 10.985 19.8747 11.5115C19.8747 12.227 19.2822 12.824 18.5922 12.6335C17.4833 12.3257 16.518 11.6377 15.8651 10.6901C15.2122 9.74238 14.9133 8.59531 15.0207 7.44952C14.9411 6.9925 14.7431 6.56433 14.4464 6.20765C14.1498 5.85097 13.7649 5.57825 13.33 5.41663C12.8952 5.25502 12.4256 5.21017 11.968 5.28654C11.5104 5.36291 11.0809 5.55784 10.7221 5.85192C10.3633 6.14599 10.0878 6.52894 9.92311 6.96262C9.75839 7.39629 9.71018 7.86556 9.78328 8.32367C9.85638 8.78178 10.0482 9.21274 10.3397 9.57362C10.6312 9.9345 11.0122 10.2127 11.4447 10.3805C11.9367 10.571 12.3747 10.9835 12.3747 11.51C12.3747 12.2255 11.7822 12.8225 11.0922 12.632C9.95116 12.3127 8.9642 11.5913 8.31361 10.6011C7.66303 9.61078 7.39277 8.41853 7.55276 7.24451C7.71274 6.0705 8.29216 4.99403 9.184 4.21394C10.0758 3.43385 11.2198 3.00284 12.4047 3.00052C13.9092 3.00052 15.2547 3.67702 16.1547 4.74352C16.6145 4.19668 17.1885 3.75724 17.8364 3.45611C18.4843 3.15497 19.1903 2.99946 19.9047 3.00052C21.4092 3.00052 22.7547 3.67702 23.6547 4.74352C24.1145 4.19668 24.6885 3.75724 25.3364 3.45611C25.9843 3.15497 26.6903 2.99946 27.4047 3.00052C28.9092 3.00052 30.2547 3.67702 31.1547 4.74352C31.7806 4.00102 32.6129 3.46104 33.546 3.192C34.4791 2.92295 35.4711 2.93695 36.3962 3.23221C37.3214 3.52748 38.1381 4.09072 38.7428 4.85058C39.3475 5.61043 39.7131 6.5327 39.7932 7.50052H37.5282C37.4322 6.87835 37.1182 6.31054 36.6423 5.89842C36.1664 5.48631 35.5596 5.2567 34.9301 5.25057C34.3006 5.24444 33.6894 5.4622 33.2056 5.86497C32.7218 6.26775 32.3968 6.82934 32.2887 7.44952L32.2932 7.50052H32.2797C32.1876 8.09843 32.3024 8.70987 32.6052 9.23362C32.908 9.75736 33.3806 10.162 33.9447 10.3805C34.4367 10.5725 34.8747 10.985 34.8747 11.5115C34.8747 12.227 34.2822 12.824 33.5922 12.6335C32.4833 12.3257 31.518 11.6377 30.8651 10.6901C30.2122 9.74238 29.9133 8.59531 30.0207 7.44952C29.9139 6.83317 29.5929 6.27434 29.1143 5.87156C28.6357 5.46878 28.0302 5.24791 27.4047 5.24791C26.7792 5.24791 26.1737 5.46878 25.6951 5.87156C25.2165 6.27434 24.8955 6.83317 24.7887 7.44952L24.7932 7.50052H24.7797C24.6876 8.09843 24.8024 8.70987 25.1052 9.23362C25.408 9.75736 25.8806 10.162 26.4447 10.3805C26.9367 10.5725 27.3747 10.985 27.3747 11.5115C27.3747 12.227 26.7822 12.824 26.0922 12.6335C24.9833 12.3257 24.018 11.6377 23.3651 10.6901C22.7122 9.74238 22.4133 8.59531 22.5207 7.44952C22.4139 6.83317 22.0929 6.27434 21.6143 5.87156C21.1357 5.46878 20.5302 5.24791 19.9047 5.24791C19.2792 5.24791 18.6737 5.46878 18.1951 5.87156C17.7165 6.27434 17.3955 6.83317 17.2887 7.44952L17.2932 7.50052H17.2797Z" fill="#CDC4D6"/>
</svg>
