<svg width="20" height="20" viewBox="0 0 20 20" fill="none" xmlns="http://www.w3.org/2000/svg">
<path d="M3.375 17.5C5.11111 17.5 6.82972 17.125 8.53083 16.375C10.2319 15.625 11.7772 14.5556 13.1667 13.1667C14.5561 11.7778 15.6256 10.2361 16.375 8.54167C17.1244 6.84722 17.4994 5.125 17.5 3.375V2.5H12.5833L11.8125 6.6875L14.1875 9.08333C13.8819 9.625 13.5417 10.1389 13.1667 10.625C12.7917 11.1111 12.3889 11.5625 11.9583 11.9792C11.5556 12.3819 11.1144 12.7675 10.635 13.1358C10.1556 13.5042 9.63833 13.8478 9.08333 14.1667L6.66667 11.75L2.5 12.6042V17.5H3.375ZM14.9792 7.5L13.6042 6.125L13.9583 4.16667H15.8125C15.7431 4.79167 15.6389 5.37861 15.5 5.9275C15.3611 6.47639 15.1875 7.00056 14.9792 7.5ZM7.52083 14.9583C6.96528 15.1944 6.40611 15.3819 5.84333 15.5208C5.28055 15.6597 4.72167 15.75 4.16667 15.7917V13.9583L6.125 13.5625L7.52083 14.9583Z" fill="#1E1E1E"/>
</svg>
