<svg width="32" height="32" viewBox="0 0 32 32" fill="none" xmlns="http://www.w3.org/2000/svg">
<path d="M25.8906 14.0851C25.4831 11.5113 24.3875 9.31009 22.6963 7.68134C20.8977 5.95097 18.4958 4.98923 16 5.00009C13.7812 5.00009 11.735 5.73072 10.0825 7.11259C8.81959 8.17768 7.84724 9.54547 7.25625 11.0882C5.365 11.3888 3.66563 12.162 2.42 13.2988C0.836875 14.7426 0 16.7138 0 19.0001C0 21.2501 0.89875 23.3051 2.53063 24.787C4.1025 26.2145 6.2225 27.0001 8.5 27.0001H24.75C26.7731 27.0001 28.5144 26.4645 29.7869 25.452C31.235 24.2988 32 22.587 32 20.5001C32 16.6345 28.9725 14.5413 25.8906 14.0851ZM13.1012 22.5226L8.775 17.7288L10.26 16.3888L13.0487 19.4801L19.6919 11.5926L21.2213 12.8807L13.1012 22.5226Z" fill="#00C951"/>
</svg>
