<svg width="24" height="24" viewBox="0 0 24 24" fill="none" xmlns="http://www.w3.org/2000/svg">
<path d="M19 19.6V8H5V19.6C5 20.2365 5.25286 20.847 5.70294 21.2971C6.15303 21.7471 6.76348 22 7.4 22H16.6C17.2365 22 17.847 21.7471 18.2971 21.2971C18.7471 20.847 19 20.2365 19 19.6Z" fill="#FF5D5D" fill-opacity="0.16"/>
<path d="M19 8V19.6C19 20.2365 18.7471 20.847 18.2971 21.2971C17.847 21.7471 17.2365 22 16.6 22H7.4C6.76348 22 6.15303 21.7471 5.70294 21.2971C5.25286 20.847 5 20.2365 5 19.6V8M16 5V3.2C16 2.54 15.46 2 14.8 2H9.2C8.54 2 8 2.54 8 3.2V5M16 5H8M16 5H21M8 5H3M12 11V17M15 11V17M9 11V17" stroke="#FF0000" stroke-width="1.5" stroke-miterlimit="10" stroke-linecap="round" stroke-linejoin="round"/>
</svg>
