<svg width="32" height="29" viewBox="0 0 32 29" fill="none" xmlns="http://www.w3.org/2000/svg">
<path d="M0.857147 19.5337V10C0.857147 9.3938 1.09796 8.81242 1.52662 8.38377C1.95527 7.95511 2.53665 7.71429 3.14286 7.71429C3.74907 7.71429 4.33045 7.95511 4.75911 8.38377C5.18776 8.81242 5.42858 9.3938 5.42858 10V16.8754C5.57922 16.5364 5.81011 16.2392 6.10133 16.0093C6.39254 15.7795 6.73532 15.624 7.10007 15.5563C7.46482 15.4885 7.84057 15.5106 8.19488 15.6206C8.54919 15.7305 8.87141 15.9251 9.13372 16.1874L12.0914 19.1406C12.5158 19.5654 12.8523 20.0697 13.0818 20.6247C13.3112 21.1796 13.429 21.7744 13.4286 22.3749V28.2857H6.57143V27.1429L2.19658 22.7657C1.33921 21.9086 0.857406 20.746 0.857147 19.5337ZM30.4754 19.5337V10C30.4754 9.3938 30.2346 8.81242 29.806 8.38377C29.3773 7.95511 28.7959 7.71429 28.1897 7.71429C27.5835 7.71429 27.0021 7.95511 26.5735 8.38377C26.1448 8.81242 25.904 9.3938 25.904 10V16.8754C25.7534 16.5364 25.5225 16.2392 25.2313 16.0093C24.94 15.7795 24.5973 15.624 24.2325 15.5563C23.8678 15.4885 23.492 15.5106 23.1377 15.6206C22.7834 15.7305 22.4612 15.9251 22.1989 16.1874L19.2389 19.1383C18.8145 19.5632 18.478 20.0675 18.2485 20.6224C18.0191 21.1774 17.9012 21.7721 17.9017 22.3726V28.2857H24.7589V27.1429L29.1337 22.7657C29.9903 21.9082 30.4712 20.7457 30.4709 19.5337H30.4754Z" fill="#D7E0FF"/>
<path d="M20.2857 9.80572C20.2857 7.232 15.7143 0.857147 15.7143 0.857147C15.7143 0.857147 11.1429 7.232 11.1429 9.80572C11.1429 11.0697 11.6251 12.2811 12.4823 13.1749C13.3394 14.0663 14.5029 14.5691 15.7143 14.5691C16.9257 14.5691 18.0914 14.0663 18.9486 13.1749C19.8113 12.2658 20.2903 11.059 20.2857 9.80572Z" fill="white"/>
<path d="M6.57143 27.1429L2.19658 22.7657C1.33921 21.9086 0.857406 20.746 0.857147 19.5337V10C0.857147 9.3938 1.09796 8.81242 1.52662 8.38377C1.95527 7.95511 2.53665 7.71429 3.14286 7.71429C3.74907 7.71429 4.33045 7.95511 4.75911 8.38377C5.18776 8.81242 5.42858 9.3938 5.42858 10V16.8572M24.7611 27.1429L29.136 22.7657C29.9925 21.9082 30.4735 20.7457 30.4731 19.5337V10C30.4731 9.3938 30.2323 8.81242 29.8037 8.38377C29.375 7.95511 28.7936 7.71429 28.1874 7.71429C27.5812 7.71429 26.9998 7.95511 26.5712 8.38377C26.1425 8.81242 25.9017 9.3938 25.9017 10V16.8572" stroke="#4147D5" stroke-width="1.71429" stroke-linecap="round" stroke-linejoin="round"/>
<path d="M7.52001 21.0354L5.90401 19.4194C5.69149 19.2072 5.5229 18.9551 5.40788 18.6776C5.29285 18.4001 5.23364 18.1027 5.23364 17.8023C5.23364 17.5019 5.29285 17.2045 5.40788 16.927C5.5229 16.6495 5.69149 16.3974 5.90401 16.1851C6.33265 15.7566 6.91392 15.5159 7.52001 15.5159C8.1261 15.5159 8.70738 15.7566 9.13601 16.1851L12.0914 19.1429C12.5158 19.5677 12.8523 20.072 13.0818 20.627C13.3112 21.1819 13.4291 21.7766 13.4286 22.3771V27.1429M23.8126 21.0354L25.4286 19.4194C25.6411 19.2072 25.8097 18.9551 25.9247 18.6776C26.0397 18.4001 26.099 18.1027 26.099 17.8023C26.099 17.5019 26.0397 17.2045 25.9247 16.927C25.8097 16.6495 25.6411 16.3974 25.4286 16.1851C25 15.7566 24.4187 15.5159 23.8126 15.5159C23.2065 15.5159 22.6252 15.7566 22.1966 16.1851L19.2412 19.1429C18.8168 19.5677 18.4802 20.072 18.2508 20.627C18.0214 21.1819 17.9035 21.7766 17.904 22.3771V27.1429M20.2857 9.80572C20.2857 7.232 15.7143 0.857147 15.7143 0.857147C15.7143 0.857147 11.1429 7.232 11.1429 9.80572C11.1429 11.0697 11.6252 12.2811 12.4823 13.1749C13.3394 14.0663 14.5029 14.5691 15.7143 14.5691C16.9257 14.5691 18.0914 14.0663 18.9486 13.1749C19.8113 12.2658 20.2903 11.059 20.2857 9.80572Z" stroke="#4147D5" stroke-width="1.71429" stroke-linecap="round" stroke-linejoin="round"/>
</svg>
