<svg width="32" height="32" viewBox="0 0 32 32" fill="none" xmlns="http://www.w3.org/2000/svg">
<path d="M22.0078 11.0628C18.8578 7.20031 17.4653 3.91531 16.6678 1.95531C16.4153 1.33781 15.5778 1.33781 15.3278 1.95531C14.5303 3.91531 13.1378 7.20031 9.98781 11.0628C8.01531 13.4828 6.07031 17.0253 6.07031 20.5153C6.07031 26.4703 10.3678 30.5028 15.9978 30.5028C21.6278 30.5028 25.9253 26.4678 25.9253 20.5153C25.9253 16.8878 23.9803 13.4828 22.0078 11.0628Z" fill="#E5322E"/>
<path d="M18.7443 19.9582C20.3318 16.9382 20.1068 13.9832 21.3618 14.5157C23.0668 15.2432 24.9543 18.9807 24.2468 22.3682C23.7418 24.7832 22.1118 26.2457 20.0343 25.5482C18.3568 24.9857 17.3143 22.6782 18.7443 19.9582Z" fill="#FF6050"/>
</svg>
