<svg width="32" height="32" viewBox="0 0 32 32" fill="none" xmlns="http://www.w3.org/2000/svg">
<g clip-path="url(#clip0_73_546)">
<path fill-rule="evenodd" clip-rule="evenodd" d="M8 32C5.87827 32 3.84344 31.1571 2.34315 29.6569C0.842855 28.1566 0 26.1217 0 24L0 8C0 5.87827 0.842855 3.84344 2.34315 2.34315C3.84344 0.842855 5.87827 0 8 0L24 0C26.1217 0 28.1566 0.842855 29.6569 2.34315C31.1571 3.84344 32 5.87827 32 8V24C32 26.1217 31.1571 28.1566 29.6569 29.6569C28.1566 31.1571 26.1217 32 24 32H8Z" fill="#8FBFFA"/>
<path fill-rule="evenodd" clip-rule="evenodd" d="M21.6275 13.0079C21.5411 13.2169 21.3946 13.3955 21.2066 13.5213C21.0187 13.647 20.7976 13.7141 20.5715 13.7142H17.7143V18.2856H20.5715C20.7978 18.2852 21.0191 18.352 21.2075 18.4775C21.3958 18.6031 21.5426 18.7817 21.6292 18.9908C21.7159 19.1999 21.7385 19.43 21.6943 19.652C21.65 19.8739 21.5408 20.0778 21.3806 20.2376L16.8092 24.809C16.703 24.9155 16.5769 24.9999 16.438 25.0575C16.2992 25.1151 16.1503 25.1448 16 25.1448C15.8497 25.1448 15.7008 25.1151 15.562 25.0575C15.4232 24.9999 15.297 24.9155 15.1909 24.809L10.6195 20.2376C10.4592 20.0778 10.35 19.8739 10.3058 19.652C10.2615 19.43 10.2841 19.1999 10.3708 18.9908C10.4575 18.7817 10.6043 18.6031 10.7926 18.4775C10.9809 18.352 11.2023 18.2852 11.4286 18.2856H14.2857V13.7142H11.4286C11.2023 13.7146 10.9809 13.6478 10.7926 13.5222C10.6043 13.3967 10.4575 13.218 10.3708 13.0089C10.2841 12.7999 10.2615 12.5697 10.3058 12.3478C10.35 12.1258 10.4592 11.922 10.6195 11.7622L15.1909 7.19074C15.297 7.08431 15.4232 6.99987 15.562 6.94225C15.7008 6.88464 15.8497 6.85498 16 6.85498C16.1503 6.85498 16.2992 6.88464 16.438 6.94225C16.5769 6.99987 16.703 7.08431 16.8092 7.19074L21.3806 11.7622C21.5403 11.9221 21.649 12.1258 21.693 12.3476C21.7369 12.5693 21.7141 12.7991 21.6275 13.0079Z" fill="#2859C5"/>
</g>
<defs>
<clipPath id="clip0_73_546">
<rect width="32" height="32" fill="white"/>
</clipPath>
</defs>
</svg>
