<svg width="32" height="32" viewBox="0 0 32 32" fill="none" xmlns="http://www.w3.org/2000/svg">
<path d="M27.4 5.5H18.2L16.1 9.7H4.3V13.7H0.5L4.3 26.5H29.5V5.5H27.4ZM20.2 7.6H27.3V9.7H19.2L20.2 7.6ZM25.7 13.7H6.6V11.8H27.4V19.4L25.7 13.7Z" fill="#969B57"/>
<path d="M26.893 25.147H14.352C14.352 23.376 14.347 21.61 14.37 19.847C14.3382 18.7328 14.6134 17.6312 15.1654 16.6628C15.7174 15.6944 16.525 14.8964 17.5 14.356C18.0556 14.0729 18.6284 13.8248 19.215 13.613C19.077 13.3999 18.9901 13.1578 18.9609 12.9057C18.9318 12.6535 18.9612 12.398 19.047 12.159C19.1838 11.8383 19.3933 11.5538 19.659 11.328C19.9358 11.1173 20.2741 11.0032 20.622 11.0032C20.9699 11.0032 21.3081 11.1173 21.585 11.328C22.277 11.828 22.407 12.496 22.036 13.619L24.012 14.446C23.4026 15.0686 22.9825 15.8514 22.8006 16.7033C22.6187 17.5553 22.6824 18.4414 22.9845 19.2586C23.2865 20.0757 23.8144 20.7903 24.5066 21.3192C25.1989 21.848 26.0272 22.1695 26.895 22.246L26.893 25.147ZM13.803 25.991C13.6074 25.9606 13.4076 26.0056 13.244 26.117C13.0804 26.2285 12.9653 26.3979 12.922 26.591C12.8071 27.1375 12.7402 27.6929 12.722 28.251C12.692 28.835 12.811 28.928 13.408 28.928C14.815 28.928 16.222 28.938 17.629 28.92C17.983 28.92 18.167 28.986 18.293 29.364C18.459 29.8546 18.7787 30.2787 19.2047 30.5734C19.6307 30.8681 20.1403 31.0177 20.658 31C21.1686 30.995 21.6647 30.8297 22.0762 30.5273C22.4877 30.2249 22.7937 29.8008 22.951 29.315C22.9693 29.191 23.0359 29.0793 23.1364 29.0044C23.2368 28.9294 23.3629 28.8973 23.487 28.915H23.506C24.969 28.934 26.433 28.915 27.896 28.923C28.168 28.923 28.466 28.884 28.489 28.579C28.6311 27.8545 28.535 27.1034 28.215 26.438C28.1438 26.2948 28.0319 26.1758 27.8933 26.0961C27.7547 26.0163 27.5955 25.9794 27.436 25.99C25.157 26.011 22.878 26 20.599 26C18.32 26 16.068 26.02 13.799 25.991H13.803ZM27.264 13.98C26.2813 13.9864 25.3413 14.382 24.6498 15.0802C23.9583 15.7784 23.5718 16.7223 23.575 17.7049C23.5782 18.6876 23.9707 19.6289 24.6667 20.3227C25.3627 21.0164 26.3053 21.4059 27.288 21.4059C28.2706 21.4059 29.2132 21.0164 29.9092 20.3227C30.6052 19.6289 30.9978 18.6876 31.0009 17.7049C31.0041 16.7223 30.6176 15.7784 29.9261 15.0802C29.2347 14.382 28.2946 13.9864 27.312 13.98H27.264ZM12.679 18.211C12.679 18.169 12.42 14.05 17.298 12.324L17.073 11.685C16.0711 11.9847 15.1452 12.4961 14.3582 13.1846C13.5711 13.8732 12.9411 14.7228 12.511 15.676C12.1547 16.4906 11.9839 17.3743 12.011 18.263L12.679 18.211Z" fill="#EAEA28"/>
<path d="M26.585 19.651C26.5875 19.5173 26.6295 19.3873 26.7055 19.2772C26.7816 19.1672 26.8885 19.0821 27.0127 19.0325C27.1369 18.9829 27.273 18.971 27.404 18.9984C27.5349 19.0258 27.6548 19.0911 27.7488 19.1863C27.8428 19.2815 27.9066 19.4023 27.9322 19.5336C27.9579 19.6649 27.9442 19.8008 27.893 19.9244C27.8418 20.048 27.7553 20.1537 27.6443 20.2283C27.5333 20.303 27.4027 20.3432 27.269 20.344C27.1822 20.3472 27.0956 20.3333 27.0143 20.303C26.9329 20.2727 26.8583 20.2266 26.7948 20.1674C26.7312 20.1083 26.68 20.0371 26.644 19.9581C26.608 19.8791 26.5879 19.7938 26.585 19.707V19.651ZM26.835 18.577L26.66 15.126H27.869L27.7 18.577H26.835Z" fill="white"/>
</svg>
