<svg width="32" height="32" viewBox="0 0 32 32" fill="none" xmlns="http://www.w3.org/2000/svg">
<path d="M6 5.99992C10.665 3.66792 14.5 6.49992 16 8.49992C17.5 6.49992 21.335 3.66792 26 5.99992C32 8.99992 30.5 16.4999 26 20.9999C23.804 23.1959 19.937 27.0629 17.109 29.2139C16.7931 29.4539 16.4055 29.5804 16.0089 29.5729C15.6122 29.5655 15.2297 29.4246 14.923 29.1729C12.33 27.0799 8.165 23.1649 6 20.9999C1.5 16.4999 -9.53674e-07 8.99992 6 5.99992Z" fill="#F8312F"/>
<path d="M16 8.5V11.55C17.27 8.865 20.425 5.28 25.658 5.837C21.148 3.807 17.463 6.549 16 8.5ZM11.946 5.537C10.26 4.95 8.225 4.887 6 6C-9.53674e-07 9 1.5 16.5 6 21C8.165 23.165 12.33 27.08 14.923 29.173C15.2298 29.4245 15.6124 29.5652 16.0091 29.5725C16.4057 29.5798 16.7932 29.4531 17.109 29.213C17.363 29.0197 17.6247 28.8137 17.894 28.595C15.04 26.452 11.034 23.076 8.859 21.133C3.902 16.702 2.249 9.318 8.859 6.364C9.8352 5.91955 10.8784 5.64009 11.946 5.537Z" fill="#CA0B4A"/>
<path d="M21.0865 16.7345C22.4429 17.5176 24.6128 16.2987 25.933 14.012C27.2533 11.7253 27.2239 9.23668 25.8675 8.45354C24.5111 7.6704 22.3412 8.88929 21.021 11.176C19.7007 13.4627 19.7301 15.9513 21.0865 16.7345Z" fill="#F37366"/>
</svg>
