<svg width="32" height="32" viewBox="0 0 32 32" fill="none" xmlns="http://www.w3.org/2000/svg">
<path d="M1.09312 23.5574C1.09312 23.5574 1.07812 7.56987 1.07812 7.11237C1.07812 6.60987 1.34063 6.52237 1.76063 6.50987C2.16313 6.49737 29.8806 6.48487 30.3181 6.49737C30.8906 6.51237 30.9431 6.87237 30.9631 7.32987C30.9831 7.78737 30.9681 23.5699 30.9681 23.5699L15.3106 23.8599L1.09312 23.5574Z" fill="#BACFD4"/>
<path d="M1.09375 23.5547C1.09375 23.5547 1.10125 30.1897 1.10125 30.5347C1.10125 30.8797 1.35125 31.1297 1.82375 31.1297C2.29625 31.1297 29.9712 31.0672 30.3487 31.0672C30.7262 31.0672 30.9438 30.7222 30.9762 30.1572C31.0087 29.5922 30.9737 23.5647 30.9737 23.5647L1.09375 23.5547Z" fill="#6BA4AE"/>
<path d="M8.46094 25.6441L8.48844 31.1116H23.3184L23.3434 25.5391L8.46094 25.6441Z" fill="#546F7A"/>
<path d="M10.0234 25.9187V31.1062H10.8484V25.8462L10.0234 25.9187ZM15.5059 25.8212V31.0987H16.3409V25.7412L15.5059 25.8212ZM21.1584 25.8312V31.1112H22.0159V25.7188L21.1584 25.8312Z" fill="#B9CED3"/>
<path d="M9.86375 23.6213C9.86375 23.6213 9.77625 2.24875 9.77625 1.78625C9.77625 1.32375 9.95375 0.95875 10.4162 0.92875C10.8787 0.89875 20.8562 0.89875 21.2612 0.92875C21.6663 0.95875 21.9237 1.20875 21.9237 1.72875C21.9237 2.24875 21.9812 23.6213 21.9812 23.6213L26.2037 24.1413V25.4137C26.2037 25.8188 26.0588 25.9788 25.6388 25.9788H5.89875C5.52375 25.9788 5.40625 25.5888 5.40625 25.1838V23.8237L9.86375 23.6213Z" fill="#F1EDEC"/>
<path d="M5.41119 24.2628L26.1987 24.2528C26.1987 24.2528 26.2112 23.8053 26.1987 23.5828C26.1812 23.2678 25.9137 23.2578 25.3037 23.2578H5.89619C5.63119 23.2578 5.42619 23.3503 5.40619 23.6153C5.38619 23.8803 5.41119 24.2503 5.41119 24.2628Z" fill="#FEFFFD"/>
<path d="M11.87 16.3491C11.9275 16.4066 19.6975 16.4416 19.7475 16.3891C19.7925 16.3416 19.8275 13.4666 19.7675 13.4066C19.69 13.3291 11.93 13.3466 11.87 13.4066C11.81 13.4666 11.81 16.2866 11.87 16.3491ZM11.89 18.7866C11.7875 18.8216 11.87 21.7091 11.87 21.7091L19.7875 21.6491C19.7875 21.6491 19.8575 18.8541 19.7275 18.7891C19.6475 18.7466 12.0125 18.7466 11.89 18.7866ZM23.0125 8.44906V11.6341H26.015V8.40906L23.0125 8.44906ZM27.2025 8.40906H30.045L30.085 11.5941H27.1825L27.2025 8.40906ZM27.1625 13.4866L27.1425 16.5691H30.025L30.065 13.4866H27.1625ZM26.015 13.4666H22.9925V16.5691H26.055L26.015 13.4666ZM26.035 18.5841H23.0125V21.7466H26.075C26.075 21.7491 25.995 18.5441 26.035 18.5841ZM27.1625 18.5641H30.0225V21.7891H27.1625C27.1625 21.7891 27.1925 18.5341 27.1625 18.5641ZM6.0875 21.7066V18.5041L9.03 18.4641V21.6666L6.0875 21.7066ZM4.96 21.6866V18.4841H1.9575L1.9775 21.7291C1.9775 21.7266 5 21.6866 4.96 21.6866ZM1.9375 13.4066H4.98V16.4891H1.9375V13.4066ZM6.1275 13.3866V16.4891H8.99V13.4066L6.1275 13.3866ZM6.1675 8.28906H8.9475V11.5341H6.1675V8.28906ZM4.92 8.40906L1.9775 8.38906V11.4916H4.92V8.40906Z" fill="#546F7A"/>
<path d="M14.235 5.19313C14.235 5.19313 14.23 2.10562 14.2525 1.89562C14.2725 1.68312 14.4 1.64062 14.55 1.64062C14.6975 1.64062 17.2625 1.64062 17.41 1.66062C17.5575 1.68062 17.6225 1.80813 17.6225 2.04313V5.17812C17.6225 5.17812 20.6725 5.19812 20.8 5.19812C20.9275 5.19812 21.055 5.34562 21.055 5.51562V8.31063C21.055 8.50063 21.035 8.69312 20.8 8.73312C20.565 8.77312 17.6025 8.73312 17.6025 8.73312V12.2556C17.6025 12.4006 17.48 12.5256 17.275 12.5406C17.07 12.5556 14.5275 12.5406 14.385 12.5406C14.2425 12.5406 14.2425 12.1131 14.2425 11.9681V8.80813H10.9225C10.7775 8.80813 10.715 8.66563 10.7 8.39563C10.685 8.12563 10.71 5.68062 10.715 5.53813C10.725 5.31562 10.81 5.20813 10.9675 5.19313C11.1225 5.18063 14.235 5.19313 14.235 5.19313Z" fill="#DD0C26"/>
<path d="M15.5312 2.89062H16.3212V11.4156H15.5312V2.89062Z" fill="white"/>
<path d="M11.9219 6.5625H19.8119V7.365H11.9219V6.5625Z" fill="white"/>
</svg>
