<svg width="23" height="28" viewBox="0 0 23 28" fill="none" xmlns="http://www.w3.org/2000/svg">
<path d="M0 3C0 2.46957 0.210714 1.96086 0.585786 1.58579C0.960859 1.21071 1.46957 1 2 1H17C17.5304 1 18.0391 1.21071 18.4142 1.58579C18.7893 1.96086 19 2.46957 19 3V21L4 28H0V3Z" fill="#998EA4"/>
<path d="M4 19C4 18.4696 4.21071 17.9609 4.58579 17.5858C4.96086 17.2107 5.46957 17 6 17H21C21.5304 17 22.0391 17.2107 22.4142 17.5858C22.7893 17.9609 23 18.4696 23 19V28H21L18 27L15 28H12.5L11.25 27L10 28H8.5L7.25 27L6 28H4V19Z" fill="#D4C1EE"/>
<path d="M3 1C3 0.734784 3.10536 0.48043 3.29289 0.292893C3.48043 0.105357 3.73478 0 4 0H11C11.2652 0 11.5196 0.105357 11.7071 0.292893C11.8946 0.48043 12 0.734784 12 1V8C12 8.26522 11.8946 8.51957 11.7071 8.70711C11.5196 8.89464 11.2652 9 11 9H4C3.73478 9 3.48043 8.89464 3.29289 8.70711C3.10536 8.51957 3 8.26522 3 8V1ZM6 19.75C6 19.5511 6.07902 19.3603 6.21967 19.2197C6.36032 19.079 6.55109 19 6.75 19H20.25C20.4489 19 20.6397 19.079 20.7803 19.2197C20.921 19.3603 21 19.5511 21 19.75C21 19.9489 20.921 20.1397 20.7803 20.2803C20.6397 20.421 20.4489 20.5 20.25 20.5H6.75C6.55109 20.5 6.36032 20.421 6.21967 20.2803C6.07902 20.1397 6 19.9489 6 19.75ZM6.75 21.5C6.55109 21.5 6.36032 21.579 6.21967 21.7197C6.07902 21.8603 6 22.0511 6 22.25C6 22.4489 6.07902 22.6397 6.21967 22.7803C6.36032 22.921 6.55109 23 6.75 23H20.25C20.4489 23 20.6397 22.921 20.7803 22.7803C20.921 22.6397 21 22.4489 21 22.25C21 22.0511 20.921 21.8603 20.7803 21.7197C20.6397 21.579 20.4489 21.5 20.25 21.5H6.75Z" fill="#F3EEF8"/>
<path d="M6.5 26H8.5V28H6V26.5C6 26.3674 6.05268 26.2402 6.14645 26.1464C6.24021 26.0527 6.36739 26 6.5 26ZM10 26H12C12.1326 26 12.2598 26.0527 12.3536 26.1464C12.4473 26.2402 12.5 26.3674 12.5 26.5V28H10V26ZM15 26.5C15 26.3674 15.0527 26.2402 15.1464 26.1464C15.2402 26.0527 15.3674 26 15.5 26H20.5C20.6326 26 20.7598 26.0527 20.8536 26.1464C20.9473 26.2402 21 26.3674 21 26.5V28H15V26.5Z" fill="#BB1D80"/>
<path fill-rule="evenodd" clip-rule="evenodd" d="M7.5 2C7.36739 2 7.24021 2.05268 7.14645 2.14645C7.05268 2.24021 7 2.36739 7 2.5V4H5.5C5.36739 4 5.24021 4.05268 5.14645 4.14645C5.05268 4.24021 5 4.36739 5 4.5C5 4.63261 5.05268 4.75979 5.14645 4.85355C5.24021 4.94732 5.36739 5 5.5 5H7V6.5C7 6.63261 7.05268 6.75979 7.14645 6.85355C7.24021 6.94732 7.36739 7 7.5 7C7.63261 7 7.75979 6.94732 7.85355 6.85355C7.94732 6.75979 8 6.63261 8 6.5V5H9.5C9.63261 5 9.75979 4.94732 9.85355 4.85355C9.94732 4.75979 10 4.63261 10 4.5C10 4.36739 9.94732 4.24021 9.85355 4.14645C9.75979 4.05268 9.63261 4 9.5 4H8V2.5C8 2.36739 7.94732 2.24021 7.85355 2.14645C7.75979 2.05268 7.63261 2 7.5 2ZM6 2.5C6 2.10218 6.15804 1.72064 6.43934 1.43934C6.72064 1.15804 7.10218 1 7.5 1C7.89782 1 8.27936 1.15804 8.56066 1.43934C8.84196 1.72064 9 2.10218 9 2.5V3H9.5C9.89782 3 10.2794 3.15804 10.5607 3.43934C10.842 3.72064 11 4.10218 11 4.5C11 4.89782 10.842 5.27936 10.5607 5.56066C10.2794 5.84196 9.89782 6 9.5 6H9V6.5C9 6.89782 8.84196 7.27936 8.56066 7.56066C8.27936 7.84196 7.89782 8 7.5 8C7.10218 8 6.72064 7.84196 6.43934 7.56066C6.15804 7.27936 6 6.89782 6 6.5V6H5.5C5.10218 6 4.72064 5.84196 4.43934 5.56066C4.15804 5.27936 4 4.89782 4 4.5C4 4.10218 4.15804 3.72064 4.43934 3.43934C4.72064 3.15804 5.10218 3 5.5 3H6V2.5Z" fill="#F8312F"/>
</svg>
