<svg width="32" height="32" viewBox="0 0 32 32" fill="none" xmlns="http://www.w3.org/2000/svg">
<path d="M5.84375 29.0817V27.2267C7.69375 26.7517 22.8088 27.2267 26.1637 27.2267V29.0817C26.1637 30.1417 21.6138 31.0017 16.0037 31.0017C10.3937 31.0017 5.84375 30.1417 5.84375 29.0817Z" fill="#8B5738"/>
<path d="M16.0037 29.0431C21.615 29.0431 26.1637 28.1835 26.1637 27.1231C26.1637 26.0627 21.615 25.2031 16.0037 25.2031C10.3925 25.2031 5.84375 26.0627 5.84375 27.1231C5.84375 28.1835 10.3925 29.0431 16.0037 29.0431Z" fill="#FFB17A"/>
<path d="M16.0037 29.0431C21.615 29.0431 26.1637 28.1835 26.1637 27.1231C26.1637 26.0627 21.615 25.2031 16.0037 25.2031C10.3925 25.2031 5.84375 26.0627 5.84375 27.1231C5.84375 28.1835 10.3925 29.0431 16.0037 29.0431Z" fill="#CC8552"/>
<path opacity="0.75" d="M17.4937 16.3763C17.3062 16.2988 17.2262 16.1463 17.2262 15.9438C17.2262 15.7413 17.2888 15.5963 17.4713 15.5338C18.6238 15.0688 24.4137 12.8513 24.4137 5.94375L24.3687 4.73875L7.62375 4.71875L7.59375 5.98625C7.59375 12.6838 13.3637 15.0488 14.5138 15.5138C14.7013 15.5913 14.8187 15.7188 14.8187 15.9463C14.8187 16.1738 14.7213 16.2938 14.5363 16.3563C13.3837 16.8213 7.59375 19.0388 7.59375 25.9463C7.60807 26.3258 7.74637 26.6902 7.98747 26.9837C8.22858 27.2771 8.5592 27.4835 8.92875 27.5713C10.1888 27.8688 12.5238 28.2138 16.5613 28.2138C20.0388 28.2138 21.9862 27.9613 23.0688 27.7063C23.8388 27.5238 24.3913 26.8463 24.4088 26.0563L24.4112 25.9038C24.4137 19.2063 18.6462 16.8413 17.4937 16.3763Z" fill="#81D4FA"/>
<path opacity="0.39" d="M24.3662 4.73875L7.62125 4.71875L7.59375 5.84875C7.59375 5.84875 9.40625 6.77875 16.0012 6.77875C22.5962 6.77875 24.4087 5.84875 24.4087 5.84875L24.3662 4.73875Z" fill="#1D44B3"/>
<path d="M5.84375 4.48823V2.52073C7.63875 2.28073 23.5712 2.52073 26.1637 2.52073V4.48823C26.1637 5.32823 21.6138 6.00823 16.0037 6.00823C10.3937 6.00823 5.84375 5.32823 5.84375 4.48823Z" fill="#8B5738"/>
<path d="M16.0037 4.04C21.615 4.04 26.1637 3.35947 26.1637 2.52C26.1637 1.68053 21.615 1 16.0037 1C10.3925 1 5.84375 1.68053 5.84375 2.52C5.84375 3.35947 10.3925 4.04 16.0037 4.04Z" fill="#CC8552"/>
<path d="M22.6466 27.1396C22.8766 27.0721 23.0016 26.8121 22.8891 26.5996C22.1041 25.1146 18.7541 25.0721 17.4866 22.2821C16.6416 20.4196 16.5941 17.8296 16.5691 16.7221C16.5341 15.2246 17.2816 14.9021 17.2816 14.9021C20.8216 13.4771 23.4241 10.1871 23.5741 7.24958C23.5891 6.95708 18.0291 9.54208 16.1166 9.91458C12.5816 10.6046 9.05906 9.69708 9.03906 9.82208C10.3491 12.6896 12.9866 14.1871 14.7541 14.9021C15.1741 15.0746 15.8691 15.7271 15.8466 17.6871C15.8291 19.0896 15.6541 22.7871 13.2366 24.3596C12.3266 24.9521 10.3141 25.8196 9.93906 26.7621C9.85656 26.9696 9.97406 27.2046 10.1916 27.2596C10.8816 27.4346 12.9866 27.7421 16.2591 27.7421C18.8316 27.7446 21.3716 27.5096 22.6466 27.1396Z" fill="#FFCA28"/>
<path d="M10.5901 10.8222C11.9301 11.5147 14.8701 12.5022 16.3201 12.0022C17.7701 11.5022 23.3776 7.99967 23.5701 7.25217C23.8101 6.32717 17.0701 8.67967 14.6976 9.22967C13.0901 9.60217 10.0201 9.40967 9.33009 9.55467C8.64259 9.69717 9.35759 10.1847 10.5901 10.8222Z" fill="#E2A610"/>
<path opacity="0.6" d="M11.445 9.4152C11.76 10.1502 12.335 11.8177 11.585 12.1027C10.835 12.3902 9.73749 11.3252 9.21749 10.2552C8.69749 9.1852 8.74499 7.7652 9.52999 7.7427C10.315 7.7202 11.0275 8.4427 11.445 9.4152ZM10.7225 20.1502C9.93999 21.0652 9.35249 22.2952 9.57499 23.4827C9.80999 24.7352 10.975 24.3902 11.38 24.0727C12.67 23.0602 12.3175 21.7627 13.315 20.3052C13.485 20.0552 14.195 19.2727 14.095 18.7802C14.035 18.4877 13.355 18.3377 12.1175 18.9577C11.5725 19.2327 11.125 19.6827 10.7225 20.1502Z" fill="white"/>
</svg>
