<svg width="32" height="32" viewBox="0 0 32 32" fill="none" xmlns="http://www.w3.org/2000/svg">
<g clip-path="url(#clip0_363_526)">
<path fill-rule="evenodd" clip-rule="evenodd" d="M15.9989 30.8549C18.5902 30.8556 21.1367 30.1784 23.3855 28.8907C25.6342 27.603 27.5071 25.7496 28.8181 23.5143C30.1291 21.2791 30.8327 18.7398 30.859 16.1486C30.8853 13.5573 30.2334 11.0043 28.968 8.74291L26.2846 11.4263L21.7132 10.2835L20.5703 5.71205L23.2538 3.02863C21.2723 1.92126 19.0635 1.28261 16.7969 1.16171C14.5303 1.04082 12.2661 1.44089 10.1781 2.3312C8.09012 3.22152 6.23391 4.57842 4.75195 6.29774C3.26999 8.01706 2.20168 10.0531 1.62903 12.2495C1.05637 14.446 0.994601 16.7444 1.44846 18.9684C1.90231 21.1925 2.85972 23.2829 4.2472 25.0794C5.63468 26.8758 7.41532 28.3304 9.45245 29.3316C11.4896 30.3328 13.729 30.8539 15.9989 30.8549ZM26.1429 5.14062C26.3867 5.3692 26.6237 5.60691 26.8538 5.85377L26.2846 5.71205L26.1429 5.14062Z" fill="#D7E0FF"/>
<path d="M30.8081 17.1406C30.5825 19.9761 29.5476 22.6871 27.8265 24.9518C26.1054 27.2164 23.7705 28.9394 21.099 29.916C18.4275 30.8926 15.5318 31.0818 12.7559 30.4612C9.98005 29.8405 7.44069 28.4361 5.43953 26.4147C3.43836 24.3933 2.05951 21.84 1.46678 19.058C0.874057 16.2761 1.09238 13.3824 2.0958 10.7209C3.09923 8.05933 4.84558 5.74177 7.12738 4.04353C9.40919 2.34529 12.1305 1.33776 14.9681 1.14062" stroke="#4147D5" stroke-width="1.71429" stroke-linecap="round" stroke-linejoin="round"/>
<path d="M26.2846 11.4263L21.7132 10.2835L20.5703 5.71205L25.1417 1.14062L26.2846 5.71205L30.856 6.85491L26.2846 11.4263Z" fill="white"/>
<path d="M21.711 10.2835L26.2824 11.4263L30.8538 6.85491L26.2824 5.71205L25.1395 1.14062L20.5681 5.71205L21.711 10.2835ZM21.711 10.2835L15.9967 15.9978M22.3738 18.4892C21.9611 19.5516 21.29 20.4943 20.4213 21.2322C19.5526 21.97 18.5137 22.4797 17.3985 22.7152C16.2834 22.9506 15.1271 22.9043 14.0343 22.5806C12.9415 22.2568 11.9466 21.6658 11.1397 20.8609C10.3327 20.056 9.73908 19.0626 9.41251 17.9707C9.08594 16.8787 9.0367 15.7225 9.26926 14.6068C9.50181 13.491 10.0088 12.4508 10.7444 11.5802C11.4801 10.7096 12.4211 10.0361 13.4824 9.62062" stroke="#4147D5" stroke-width="1.71429" stroke-linecap="round" stroke-linejoin="round"/>
</g>
<defs>
<clipPath id="clip0_363_526">
<rect width="32" height="32" fill="white"/>
</clipPath>
</defs>
</svg>
