<svg width="32" height="32" viewBox="0 0 32 32" fill="none" xmlns="http://www.w3.org/2000/svg">
<path d="M29 1H3C1.895 1 1 1.895 1 3V29C1 30.105 1.895 31 3 31H29C30.105 31 31 30.105 31 29V3C31 1.895 30.105 1 29 1Z" fill="#874243"/>
<path d="M27.425 1H2.87501C2.37884 1.0036 1.90401 1.2023 1.55316 1.55315C1.2023 1.90401 1.0036 2.37883 1.00001 2.875V27.35C0.997506 28.385 1.83501 29.2225 2.87001 29.225H27.4C28.435 29.2275 29.2725 28.39 29.275 27.355V2.875C29.2975 1.8625 28.4925 1.0225 27.48 1H27.425Z" fill="#FF0004"/>
<path opacity="0.5" d="M9.92502 3.225C9.92502 2.65 9.52502 2.475 7.22502 2.55C5.30002 2.625 4.35002 2.85 3.77502 3.55C3.20002 4.25 3.05002 5.675 3.02502 7.375C3.02502 8.575 3.02502 9.7 3.65002 9.7C4.50002 9.7 4.50002 7.725 5.20002 6.625C6.55002 4.45 9.92502 3.975 9.92502 3.225Z" fill="#FEB0B1"/>
<path d="M10.2375 20.075H8.07255L4.58005 14H4.53005C4.60005 15.0725 4.63505 15.8375 4.63505 16.295V20.075H3.11255V12.045H5.26005L8.75005 18.06H8.78755C8.73255 17.0175 8.70505 16.2775 8.70505 15.8475V12.045H10.2375V20.075ZM16.6025 20.075H11.9775V12.045H16.6025V13.44H13.68V15.2025H16.4V16.5975H13.68V18.6675H16.6025V20.075ZM26.3825 20.075H24.4425L23.355 15.855C23.315 15.705 23.245 15.395 23.15 14.925C23.0525 14.455 22.9975 14.1375 22.9825 13.9775C22.9601 14.175 22.905 14.4925 22.8175 14.93C22.6863 15.5862 22.6625 15.68 22.615 15.8675L21.5325 20.075H19.6L17.55 12.045H19.225L20.2526 16.4275C20.4326 17.2375 20.5625 17.9375 20.6425 18.5325C20.665 18.3225 20.715 18 20.7925 17.5625C20.8725 17.125 20.945 16.785 21.015 16.5425L22.185 12.0425H23.795L24.965 16.5425C25.0175 16.745 25.08 17.0525 25.1575 17.465C25.235 17.88 25.2925 18.235 25.3326 18.53C25.3701 18.245 25.4275 17.8875 25.5075 17.4625C25.5875 17.035 25.6625 16.69 25.7276 16.4275L26.75 12.045H28.425L26.3825 20.075Z" fill="white"/>
</svg>
