<svg width="32" height="32" viewBox="0 0 32 32" fill="none" xmlns="http://www.w3.org/2000/svg">
<path d="M23.6827 1.33334H5.524C4.75333 1.33334 4.128 1.95868 4.128 2.73068V29.2693C4.128 30.0413 4.75333 30.6667 5.524 30.6667H23.684C24.4547 30.6667 25.08 30.0413 25.08 29.2693V2.73068C25.08 1.95868 24.4547 1.33334 23.6827 1.33334Z" fill="#C77F67"/>
<path d="M19.492 11.8093C19.492 11.9946 19.4184 12.1724 19.2874 12.3034C19.1563 12.4344 18.9786 12.508 18.7933 12.508H11.8093C11.624 12.508 11.4463 12.4344 11.3153 12.3034C11.1843 12.1724 11.1107 11.9946 11.1107 11.8093V7.61868C11.1107 7.43338 11.1843 7.25567 11.3153 7.12465C11.4463 6.99362 11.624 6.92001 11.8093 6.92001H18.7933C18.9786 6.92001 19.1563 6.99362 19.2874 7.12465C19.4184 7.25567 19.492 7.43338 19.492 7.61868V11.8093Z" fill="white"/>
<path d="M2.72933 5.52402H6.92M2.72933 12.5067H6.92M2.72933 19.4934H6.92M2.72933 26.476H6.92" stroke="#191919" stroke-linecap="round" stroke-linejoin="round"/>
<path d="M29.2707 5.52402V9.71469H25.08V4.12802H27.8733C28.2435 4.12872 28.5983 4.27599 28.8602 4.5376C29.122 4.79921 29.2696 5.15387 29.2707 5.52402Z" fill="#66E1FF"/>
<path d="M29.2707 9.71469H25.08V15.3014H29.2707V9.71469Z" fill="#FFEF5E"/>
<path d="M29.2707 15.3013H25.08V20.888H29.2707V15.3013Z" fill="#FF808C"/>
<path d="M29.2707 20.8893V25.08C29.2696 25.4502 29.122 25.8048 28.8602 26.0664C28.5983 26.328 28.2435 26.4753 27.8733 26.476H25.08V20.8893H29.2707Z" fill="#B2FFC0"/>
<path d="M23.6827 1.33334H5.524C4.75333 1.33334 4.128 1.95868 4.128 2.73068V29.2693C4.128 30.0413 4.75333 30.6667 5.524 30.6667H23.684C24.4547 30.6667 25.08 30.0413 25.08 29.2693V2.73068C25.08 1.95868 24.4547 1.33334 23.6827 1.33334Z" stroke="#191919" stroke-linecap="round" stroke-linejoin="round"/>
<path d="M29.2707 9.71469V5.52402C29.2696 5.15387 29.122 4.79921 28.8601 4.5376C28.5983 4.27599 28.2435 4.12872 27.8733 4.12802H25.08V9.71469M29.2707 9.71469H25.08M29.2707 9.71469V15.3014M25.08 9.71469V15.3014M25.08 15.3014H29.2707M25.08 15.3014V20.888M29.2707 15.3014V20.888M25.08 20.888H29.2707M25.08 20.888V26.476H27.8733C28.2435 26.4753 28.5983 26.3281 28.8601 26.0664C29.122 25.8048 29.2696 25.4502 29.2707 25.08V20.888M19.492 11.8094C19.492 11.9947 19.4184 12.1724 19.2874 12.3034C19.1563 12.4344 18.9786 12.508 18.7933 12.508H11.8093C11.624 12.508 11.4463 12.4344 11.3153 12.3034C11.1843 12.1724 11.1107 11.9947 11.1107 11.8094V7.61869C11.1107 7.43339 11.1843 7.25568 11.3153 7.12466C11.4463 6.99363 11.624 6.92002 11.8093 6.92002H18.7933C18.9786 6.92002 19.1563 6.99363 19.2874 7.12466C19.4184 7.25568 19.492 7.43339 19.492 7.61869V11.8094Z" stroke="#191919" stroke-linecap="round" stroke-linejoin="round"/>
</svg>
