<svg width="32" height="32" viewBox="0 0 32 32" fill="none" xmlns="http://www.w3.org/2000/svg">
<rect x="0.5" y="0.5" width="31" height="31" rx="15.5" stroke="#1C3B8D"/>
<path fill-rule="evenodd" clip-rule="evenodd" d="M16 5C15.7133 4.99996 15.43 5.06155 15.1692 5.18059C14.9084 5.29963 14.6763 5.47333 14.4885 5.68994C14.3008 5.90654 14.1617 6.16098 14.0809 6.43601C14.0001 6.71104 13.9793 7.00024 14.02 7.284C12.5704 7.71149 11.298 8.59668 10.3932 9.80722C9.48835 11.0178 8.9996 12.4887 9 14V22H8C7.73478 22 7.48043 22.1054 7.29289 22.2929C7.10536 22.4804 7 22.7348 7 23C7 23.2652 7.10536 23.5196 7.29289 23.7071C7.48043 23.8946 7.73478 24 8 24H24C24.2652 24 24.5196 23.8946 24.7071 23.7071C24.8946 23.5196 25 23.2652 25 23C25 22.7348 24.8946 22.4804 24.7071 22.2929C24.5196 22.1054 24.2652 22 24 22H23V14C23.0004 12.4887 22.5117 11.0178 21.6068 9.80722C20.702 8.59668 19.4296 7.71149 17.98 7.284C17.9933 7.19067 18 7.096 18 7C18 6.46957 17.7893 5.96086 17.4142 5.58579C17.0391 5.21071 16.5304 5 16 5ZM18 26C18 26.2652 17.8946 26.5196 17.7071 26.7071C17.5196 26.8946 17.2652 27 17 27H15C14.7348 27 14.4804 26.8946 14.2929 26.7071C14.1054 26.5196 14 26.2652 14 26C14 25.7348 14.1054 25.4804 14.2929 25.2929C14.4804 25.1054 14.7348 25 15 25H17C17.2652 25 17.5196 25.1054 17.7071 25.2929C17.8946 25.4804 18 25.7348 18 26Z" fill="#1C3B8D"/>
</svg>
