<svg width="109" height="32" viewBox="0 0 109 32" fill="none" xmlns="http://www.w3.org/2000/svg">
<path d="M10.2697 15.9091C10.2697 16.9962 10.0708 17.9309 9.67312 18.7131C9.27539 19.492 8.73017 20.0919 8.03747 20.5128C7.34807 20.9304 6.56422 21.1392 5.6859 21.1392C4.80427 21.1392 4.0171 20.9304 3.3244 20.5128C2.635 20.0919 2.09144 19.4903 1.69371 18.7081C1.29599 17.9259 1.09712 16.9929 1.09712 15.9091C1.09712 14.822 1.29599 13.889 1.69371 13.1101C2.09144 12.3279 2.635 11.728 3.3244 11.3104C4.0171 10.8894 4.80427 10.679 5.6859 10.679C6.56422 10.679 7.34807 10.8894 8.03747 11.3104C8.73017 11.728 9.27539 12.3279 9.67312 13.1101C10.0708 13.889 10.2697 14.822 10.2697 15.9091ZM8.7484 15.9091C8.7484 15.0805 8.61417 14.3828 8.3457 13.8161C8.08055 13.246 7.71597 12.8151 7.25195 12.5234C6.79125 12.2285 6.26924 12.081 5.6859 12.081C5.09925 12.081 4.57558 12.2285 4.11488 12.5234C3.65418 12.8151 3.2896 13.246 3.02113 13.8161C2.75598 14.3828 2.6234 15.0805 2.6234 15.9091C2.6234 16.7377 2.75598 17.437 3.02113 18.0071C3.2896 18.5739 3.65418 19.0047 4.11488 19.2997C4.57558 19.5914 5.09925 19.7372 5.6859 19.7372C6.26924 19.7372 6.79125 19.5914 7.25195 19.2997C7.71597 19.0047 8.08055 18.5739 8.3457 18.0071C8.61417 17.437 8.7484 16.7377 8.7484 15.9091ZM12.0657 21V13.3636H13.5025V14.5767H13.582C13.7212 14.1657 13.9665 13.8426 14.3178 13.6072C14.6725 13.3686 15.0735 13.2493 15.521 13.2493C15.6138 13.2493 15.7231 13.2526 15.8491 13.2592C15.9783 13.2659 16.0794 13.2741 16.1523 13.2841V14.706C16.0927 14.6894 15.9866 14.6712 15.8342 14.6513C15.6817 14.6281 15.5292 14.6165 15.3768 14.6165C15.0255 14.6165 14.7122 14.6911 14.4371 14.8402C14.1654 14.986 13.9499 15.1899 13.7908 15.4517C13.6317 15.7102 13.5522 16.0052 13.5522 16.3366V21H12.0657ZM20.367 24.0227C19.7605 24.0227 19.2385 23.9432 18.801 23.7841C18.3668 23.625 18.0121 23.4145 17.737 23.1527C17.4619 22.8909 17.2565 22.6042 17.1206 22.2926L18.3983 21.7656C18.4877 21.9115 18.6071 22.0656 18.7562 22.228C18.9087 22.3937 19.1142 22.5346 19.3727 22.6506C19.6345 22.7666 19.9709 22.8246 20.3819 22.8246C20.9454 22.8246 21.411 22.687 21.7789 22.4119C22.1468 22.1402 22.3308 21.706 22.3308 21.1094V19.608H22.2363C22.1468 19.7704 22.0176 19.951 21.8485 20.1499C21.6828 20.3487 21.4541 20.5211 21.1625 20.6669C20.8708 20.8127 20.4913 20.8857 20.024 20.8857C19.4208 20.8857 18.8772 20.7448 18.3933 20.4631C17.9127 20.178 17.5315 19.7588 17.2498 19.2053C16.9714 18.6484 16.8322 17.964 16.8322 17.152C16.8322 16.34 16.9698 15.6439 17.2449 15.0639C17.5233 14.4839 17.9044 14.0398 18.3883 13.7315C18.8722 13.42 19.4208 13.2642 20.0339 13.2642C20.5079 13.2642 20.8907 13.3438 21.1824 13.5028C21.474 13.6586 21.7011 13.8409 21.8635 14.0497C22.0292 14.2585 22.1568 14.4425 22.2463 14.6016H22.3556V13.3636H23.8123V21.169C23.8123 21.8253 23.6599 22.3639 23.3549 22.7848C23.05 23.2057 22.6374 23.5173 22.117 23.7195C21.6 23.9216 21.0166 24.0227 20.367 24.0227ZM20.3521 19.6527C20.7797 19.6527 21.1409 19.5533 21.4359 19.3544C21.7342 19.1522 21.9596 18.8639 22.112 18.4893C22.2678 18.1115 22.3457 17.6591 22.3457 17.1321C22.3457 16.6184 22.2695 16.166 22.117 15.7749C21.9645 15.3838 21.7408 15.0788 21.4458 14.8601C21.1509 14.638 20.7863 14.527 20.3521 14.527C19.9047 14.527 19.5318 14.643 19.2335 14.875C18.9352 15.1037 18.7098 15.4152 18.5574 15.8097C18.4082 16.2041 18.3336 16.6449 18.3336 17.1321C18.3336 17.6326 18.4099 18.0717 18.5623 18.4496C18.7148 18.8274 18.9402 19.1224 19.2385 19.3345C19.5401 19.5466 19.9113 19.6527 20.3521 19.6527ZM28.0282 21.169C27.5443 21.169 27.1068 21.0795 26.7157 20.9006C26.3246 20.7183 26.0147 20.4548 25.786 20.1101C25.5607 19.7654 25.448 19.3428 25.448 18.8423C25.448 18.4115 25.5308 18.0568 25.6966 17.7784C25.8623 17.5 26.086 17.2796 26.3677 17.1172C26.6494 16.9548 26.9643 16.8321 27.3123 16.7493C27.6603 16.6664 28.015 16.6035 28.3762 16.5604C28.8336 16.5073 29.2048 16.4643 29.4899 16.4311C29.7749 16.3946 29.9821 16.3366 30.1113 16.2571C30.2406 16.1776 30.3052 16.0483 30.3052 15.8693V15.8345C30.3052 15.4003 30.1826 15.0639 29.9373 14.8253C29.6954 14.5866 29.3341 14.4673 28.8535 14.4673C28.353 14.4673 27.9586 14.5784 27.6703 14.8004C27.3852 15.0192 27.188 15.2628 27.0787 15.5312L25.6816 15.2131C25.8474 14.7491 26.0893 14.3745 26.4075 14.0895C26.729 13.8011 27.0985 13.5923 27.5162 13.4631C27.9338 13.3305 28.3729 13.2642 28.8336 13.2642C29.1386 13.2642 29.4617 13.3007 29.8031 13.3736C30.1478 13.4432 30.4693 13.5724 30.7676 13.7614C31.0692 13.9503 31.3161 14.2204 31.5083 14.5717C31.7006 14.9197 31.7967 15.3722 31.7967 15.929V21H30.345V19.956H30.2853C30.1892 20.1482 30.045 20.3371 29.8528 20.5227C29.6606 20.7083 29.4136 20.8625 29.112 20.9851C28.8104 21.1077 28.4492 21.169 28.0282 21.169ZM28.3514 19.9759C28.7624 19.9759 29.1137 19.8946 29.4054 19.7322C29.7003 19.5698 29.9241 19.3577 30.0765 19.0959C30.2323 18.8307 30.3102 18.5473 30.3102 18.2457V17.2614C30.2572 17.3144 30.1544 17.3641 30.002 17.4105C29.8528 17.4536 29.6821 17.4917 29.4899 17.5249C29.2976 17.5547 29.1104 17.5829 28.9281 17.6094C28.7458 17.6326 28.5933 17.6525 28.4707 17.669C28.1824 17.7055 27.9189 17.7668 27.6802 17.853C27.4449 17.9392 27.256 18.0634 27.1135 18.2259C26.9743 18.3849 26.9047 18.5971 26.9047 18.8622C26.9047 19.2301 27.0405 19.5085 27.3123 19.6974C27.5841 19.883 27.9305 19.9759 28.3514 19.9759ZM35.2631 16.4659V21H33.7766V13.3636H35.2035V14.6065H35.2979C35.4736 14.2022 35.7487 13.8774 36.1232 13.6321C36.5011 13.3868 36.9767 13.2642 37.5501 13.2642C38.0704 13.2642 38.5262 13.3736 38.9173 13.5923C39.3084 13.8078 39.6116 14.1293 39.8271 14.5568C40.0425 14.9844 40.1502 15.513 40.1502 16.1428V21H38.6637V16.3217C38.6637 15.7682 38.5195 15.3357 38.2312 15.0241C37.9428 14.7093 37.5468 14.5518 37.043 14.5518C36.6983 14.5518 36.3917 14.6264 36.1232 14.7756C35.8581 14.9247 35.6476 15.1435 35.4918 15.4318C35.3394 15.7169 35.2631 16.0616 35.2631 16.4659ZM42.2631 21V10.8182H43.7994V19.6776H48.413V21H42.2631ZM50.0462 21V13.3636H51.5327V21H50.0462ZM50.7969 12.1854C50.5384 12.1854 50.3163 12.0992 50.1307 11.9268C49.9484 11.7512 49.8572 11.5424 49.8572 11.3004C49.8572 11.0552 49.9484 10.8464 50.1307 10.674C50.3163 10.4983 50.5384 10.4105 50.7969 10.4105C51.0554 10.4105 51.2758 10.4983 51.4581 10.674C51.6437 10.8464 51.7365 11.0552 51.7365 11.3004C51.7365 11.5424 51.6437 11.7512 51.4581 11.9268C51.2758 12.0992 51.0554 12.1854 50.7969 12.1854ZM55.019 16.4659V21H53.5325V13.3636H54.9593V14.6065H55.0538C55.2295 14.2022 55.5046 13.8774 55.8791 13.6321C56.2569 13.3868 56.7325 13.2642 57.3059 13.2642C57.8263 13.2642 58.282 13.3736 58.6731 13.5923C59.0642 13.8078 59.3675 14.1293 59.5829 14.5568C59.7984 14.9844 59.9061 15.513 59.9061 16.1428V21H58.4196V16.3217C58.4196 15.7682 58.2754 15.3357 57.987 15.0241C57.6987 14.7093 57.3026 14.5518 56.7988 14.5518C56.4541 14.5518 56.1475 14.6264 55.8791 14.7756C55.6139 14.9247 55.4035 15.1435 55.2477 15.4318C55.0952 15.7169 55.019 16.0616 55.019 16.4659ZM63.2669 18.4098L63.2569 16.5952H63.5154L66.5581 13.3636H68.3379L64.8677 17.0426H64.6341L63.2669 18.4098ZM61.8997 21V10.8182H63.3862V21H61.8997ZM66.7221 21L63.9877 17.3707L65.0119 16.3317L68.5467 21H66.7221Z" fill="url(#paint0_linear_12_217)"/>
<g clip-path="url(#clip0_12_217)">
<mask id="path-2-inside-1_12_217" fill="white">
<path d="M77 16C77 7.16344 84.1634 0 93 0C101.837 0 109 7.16344 109 16C109 24.8366 101.837 32 93 32C84.1634 32 77 24.8366 77 16Z"/>
</mask>
<g clip-path="url(#clip1_12_217)">
<mask id="path-4-inside-2_12_217" fill="white">
<path d="M77 16C77 7.16344 84.1634 0 93 0C101.837 0 109 7.16344 109 16C109 24.8366 101.837 32 93 32C84.1634 32 77 24.8366 77 16Z"/>
</mask>
<g filter="url(#filter0_d_12_217)">
<rect x="79.2891" y="2.28906" width="27.4286" height="27.4286" rx="13.7143" fill="white"/>
<path d="M92.999 10.0893C88.8334 5.76265 83.7422 8.95531 83.7422 13.4569C83.7422 17.9585 87.4634 20.3569 90.1868 22.5045C91.1476 23.2607 92.0733 23.9744 92.999 23.9744" stroke="#2B7FFF" stroke-width="1.11081" stroke-linecap="round"/>
<path opacity="0.5" d="M93 10.0893C97.1656 5.76265 102.257 8.95531 102.257 13.4569C102.257 17.9585 98.5356 20.3569 95.8122 22.5045C94.8514 23.2607 93.9257 23.9744 93 23.9744" stroke="#00C951" stroke-width="1.11081" stroke-linecap="round"/>
</g>
</g>
<path d="M77 0H109H77ZM109 32H77H109ZM92.4286 32C83.592 32 76.4286 24.8366 76.4286 16C76.4286 7.16344 83.592 0 92.4286 0H93C84.479 0 77.5714 7.16344 77.5714 16C77.5714 24.8366 84.479 32 93 32H92.4286ZM109 0V32V0Z" fill="#2B7FFF" mask="url(#path-4-inside-2_12_217)"/>
</g>
<path d="M77 0H109H77ZM109 32H77H109ZM77 32V0V32ZM93.5714 0C102.408 0 109.571 7.16344 109.571 16C109.571 24.8366 102.408 32 93.5714 32H93C101.521 32 108.429 24.8366 108.429 16C108.429 7.16344 101.521 0 93 0H93.5714Z" fill="#00C951" mask="url(#path-2-inside-1_12_217)"/>
<defs>
<filter id="filter0_d_12_217" x="77.9176" y="0.917634" width="30.1725" height="30.1725" filterUnits="userSpaceOnUse" color-interpolation-filters="sRGB">
<feFlood flood-opacity="0" result="BackgroundImageFix"/>
<feColorMatrix in="SourceAlpha" type="matrix" values="0 0 0 0 0 0 0 0 0 0 0 0 0 0 0 0 0 0 127 0" result="hardAlpha"/>
<feOffset/>
<feGaussianBlur stdDeviation="0.685714"/>
<feComposite in2="hardAlpha" operator="out"/>
<feColorMatrix type="matrix" values="0 0 0 0 0.559615 0 0 0 0 0.477287 0 0 0 0 0.477287 0 0 0 0.15 0"/>
<feBlend mode="normal" in2="BackgroundImageFix" result="effect1_dropShadow_12_217"/>
<feBlend mode="normal" in="SourceGraphic" in2="effect1_dropShadow_12_217" result="shape"/>
</filter>
<linearGradient id="paint0_linear_12_217" x1="69" y1="16" x2="0" y2="16" gradientUnits="userSpaceOnUse">
<stop stop-color="#00C951"/>
<stop offset="1" stop-color="#2B7FFF"/>
</linearGradient>
<clipPath id="clip0_12_217">
<path d="M77 16C77 7.16344 84.1634 0 93 0C101.837 0 109 7.16344 109 16C109 24.8366 101.837 32 93 32C84.1634 32 77 24.8366 77 16Z" fill="white"/>
</clipPath>
<clipPath id="clip1_12_217">
<path d="M77 16C77 7.16344 84.1634 0 93 0C101.837 0 109 7.16344 109 16C109 24.8366 101.837 32 93 32C84.1634 32 77 24.8366 77 16Z" fill="white"/>
</clipPath>
</defs>
</svg>
