<svg width="22" height="27" viewBox="0 0 22 27" fill="none" xmlns="http://www.w3.org/2000/svg">
<path d="M21.3333 3C21.3333 2.60603 21.2557 2.21593 21.105 1.85195C20.9542 1.48797 20.7332 1.15726 20.4547 0.87868C20.1761 0.600104 19.8454 0.379126 19.4814 0.228361C19.1174 0.0775973 18.7273 0 18.3333 0H3L2.79467 0.00666682C2.03628 0.0586961 1.32592 0.396686 0.807159 0.952329C0.288394 1.50797 -9.33625e-05 2.23983 2.26649e-08 3V18H21.3333V3Z" fill="url(#paint0_linear_191_2960)"/>
<path d="M5.33334 18V13.6613C5.33334 12.7973 5.98934 12.088 6.82934 12.0027L7.00001 11.9947H14.3333C15.196 11.9947 15.9067 12.6507 15.9907 13.4907L16 13.6613V18H5.33334Z" fill="url(#paint1_linear_191_2960)"/>
<path d="M10.6667 3.99466C11.5507 3.99466 12.3986 4.34585 13.0237 4.97097C13.6488 5.59609 14 6.44394 14 7.32799C14 8.21205 13.6488 9.0599 13.0237 9.68502C12.3986 10.3101 11.5507 10.6613 10.6667 10.6613C9.78262 10.6613 8.93478 10.3101 8.30965 9.68502C7.68453 9.0599 7.33334 8.21205 7.33334 7.32799C7.33334 6.44394 7.68453 5.59609 8.30965 4.97097C8.93478 4.34585 9.78262 3.99466 10.6667 3.99466Z" fill="url(#paint2_linear_191_2960)"/>
<path d="M21.3333 17.3333V23.6733C21.3333 24.0673 21.2557 24.4574 21.105 24.8214C20.9542 25.1854 20.7332 25.5161 20.4547 25.7947C20.1761 26.0732 19.8454 26.2942 19.4814 26.445C19.1174 26.5957 18.7273 26.6733 18.3333 26.6733H3C2.20435 26.6733 1.44129 26.3573 0.87868 25.7947C0.316071 25.232 0 24.469 0 23.6733V17.3333H21.3333Z" fill="url(#paint3_linear_191_2960)"/>
<path d="M21.3333 17.3333V23.6733C21.3333 24.0673 21.2557 24.4574 21.105 24.8214C20.9542 25.1854 20.7332 25.5161 20.4547 25.7947C20.1761 26.0732 19.8454 26.2942 19.4814 26.445C19.1174 26.5957 18.7273 26.6733 18.3333 26.6733H3C2.20435 26.6733 1.44129 26.3573 0.87868 25.7947C0.316071 25.232 0 24.469 0 23.6733V17.3333H21.3333Z" fill="url(#paint4_linear_191_2960)" fill-opacity="0.7"/>
<path d="M5.00133 20.6667H16.3347C16.5878 20.6674 16.8312 20.7641 17.0159 20.9373C17.2005 21.1105 17.3126 21.3473 17.3295 21.5998C17.3464 21.8524 17.2669 22.102 17.107 22.2983C16.9471 22.4945 16.7188 22.6228 16.468 22.6573L16.3347 22.6667H5.00133C4.74808 22.6663 4.50442 22.5698 4.31954 22.3967C4.13466 22.2236 4.02234 21.9868 4.00524 21.7342C3.98815 21.4815 4.06756 21.2317 4.22745 21.0353C4.38733 20.8389 4.61578 20.7105 4.86666 20.676L5.00133 20.6667Z" fill="url(#paint5_linear_191_2960)"/>
<defs>
<linearGradient id="paint0_linear_191_2960" x1="7.61867" y1="9.31592e-08" x2="13.684" y2="17.7507" gradientUnits="userSpaceOnUse">
<stop stop-color="#B3E0FF"/>
<stop offset="1" stop-color="#8CD0FF"/>
</linearGradient>
<linearGradient id="paint1_linear_191_2960" x1="7.86934" y1="12.792" x2="10.004" y2="18.844" gradientUnits="userSpaceOnUse">
<stop offset="0.125" stop-color="#9C6CFE"/>
<stop offset="1" stop-color="#7A41DC"/>
</linearGradient>
<linearGradient id="paint2_linear_191_2960" x1="8.91868" y1="4.87999" x2="12.316" y2="10.3053" gradientUnits="userSpaceOnUse">
<stop offset="0.125" stop-color="#9C6CFE"/>
<stop offset="1" stop-color="#7A41DC"/>
</linearGradient>
<linearGradient id="paint3_linear_191_2960" x1="-5.33333" y1="-1.328" x2="21.0227" y2="26.9013" gradientUnits="userSpaceOnUse">
<stop stop-color="#36DFF1"/>
<stop offset="1" stop-color="#2764E7"/>
</linearGradient>
<linearGradient id="paint4_linear_191_2960" x1="10.6667" y1="8.772" x2="12.708" y2="31.108" gradientUnits="userSpaceOnUse">
<stop offset="0.619" stop-color="#FF6CE8" stop-opacity="0"/>
<stop offset="1" stop-color="#FF6CE8"/>
</linearGradient>
<linearGradient id="paint5_linear_191_2960" x1="6.56533" y1="20.82" x2="6.82266" y2="24.972" gradientUnits="userSpaceOnUse">
<stop stop-color="white"/>
<stop offset="1" stop-color="#B3E0FF"/>
</linearGradient>
</defs>
</svg>
