<svg width="32" height="32" viewBox="0 0 32 32" fill="none" xmlns="http://www.w3.org/2000/svg">
<path d="M20.076 24.528C20.844 24.818 21.802 25 23 25C24.196 25 25.154 24.82 25.92 24.53C28.996 23.366 28.996 20.45 28.996 20.45C28.996 19.096 27.898 18 26.546 18H19.45C18.096 18 17 19.096 17 20.45C17 20.45 17 23.364 20.076 24.53" fill="url(#paint0_linear_73_254)"/>
<path d="M20.076 24.528C20.844 24.818 21.802 25 23 25C24.196 25 25.154 24.82 25.92 24.53C28.996 23.366 28.996 20.45 28.996 20.45C28.996 19.096 27.898 18 26.546 18H19.45C18.096 18 17 19.096 17 20.45C17 20.45 17 23.364 20.076 24.53" fill="url(#paint1_radial_73_254)" fill-opacity="0.5"/>
<path d="M19 21C19 20.2044 18.6839 19.4413 18.1213 18.8787C17.5587 18.3161 16.7956 18 16 18H6C5.20435 18 4.44129 18.3161 3.87868 18.8787C3.31607 19.4413 3 20.2044 3 21V21.15C3 21.15 3 27 11 27C18.624 27 18.982 21.688 19 21.188V21Z" fill="url(#paint2_linear_73_254)"/>
<path d="M19 21C19 20.2044 18.6839 19.4413 18.1213 18.8787C17.5587 18.3161 16.7956 18 16 18H6C5.20435 18 4.44129 18.3161 3.87868 18.8787C3.31607 19.4413 3 20.2044 3 21V21.15C3 21.15 3 27 11 27C18.624 27 18.982 21.688 19 21.188V21Z" fill="url(#paint3_linear_73_254)"/>
<path d="M23 16C24.0609 16 25.0783 15.5786 25.8284 14.8284C26.5786 14.0783 27 13.0609 27 12C27 10.9391 26.5786 9.92172 25.8284 9.17157C25.0783 8.42143 24.0609 8 23 8C21.9391 8 20.9217 8.42143 20.1716 9.17157C19.4214 9.92172 19 10.9391 19 12C19 13.0609 19.4214 14.0783 20.1716 14.8284C20.9217 15.5786 21.9391 16 23 16Z" fill="url(#paint4_linear_73_254)"/>
<path d="M16 11C16 12.3261 15.4732 13.5979 14.5355 14.5355C13.5979 15.4732 12.3261 16 11 16C9.67392 16 8.40215 15.4732 7.46447 14.5355C6.52678 13.5979 6 12.3261 6 11C6 9.67392 6.52678 8.40215 7.46447 7.46447C8.40215 6.52678 9.67392 6 11 6C12.3261 6 13.5979 6.52678 14.5355 7.46447C15.4732 8.40215 16 9.67392 16 11Z" fill="url(#paint5_linear_73_254)"/>
<defs>
<linearGradient id="paint0_linear_73_254" x1="19.852" y1="18.93" x2="22.41" y2="25.926" gradientUnits="userSpaceOnUse">
<stop offset="0.125" stop-color="#9C6CFE"/>
<stop offset="1" stop-color="#7A41DC"/>
</linearGradient>
<radialGradient id="paint1_radial_73_254" cx="0" cy="0" r="1" gradientUnits="userSpaceOnUse" gradientTransform="translate(15.48 21.5) rotate(-7.36814) scale(7.96013 8.24829)">
<stop offset="0.392" stop-color="#3B148A"/>
<stop offset="1" stop-color="#3B148A" stop-opacity="0"/>
</radialGradient>
<linearGradient id="paint2_linear_73_254" x1="6.804" y1="19.196" x2="10" y2="28.268" gradientUnits="userSpaceOnUse">
<stop offset="0.125" stop-color="#BD96FF"/>
<stop offset="1" stop-color="#9C6CFE"/>
</linearGradient>
<linearGradient id="paint3_linear_73_254" x1="11" y1="16.928" x2="15.5" y2="31.878" gradientUnits="userSpaceOnUse">
<stop stop-color="#885EDB" stop-opacity="0"/>
<stop offset="1" stop-color="#E362F8"/>
</linearGradient>
<linearGradient id="paint4_linear_73_254" x1="20.902" y1="9.064" x2="24.98" y2="15.574" gradientUnits="userSpaceOnUse">
<stop offset="0.125" stop-color="#9C6CFE"/>
<stop offset="1" stop-color="#7A41DC"/>
</linearGradient>
<linearGradient id="paint5_linear_73_254" x1="8.378" y1="7.33" x2="13.474" y2="15.468" gradientUnits="userSpaceOnUse">
<stop offset="0.125" stop-color="#BD96FF"/>
<stop offset="1" stop-color="#9C6CFE"/>
</linearGradient>
</defs>
</svg>
