<svg width="32" height="32" viewBox="0 0 32 32" fill="none" xmlns="http://www.w3.org/2000/svg">
<g clip-path="url(#clip0_73_534)">
<path d="M16 31.9973C24.8367 31.9973 32 24.834 32 15.9973C32 7.16131 24.8367 -0.00268555 16 -0.00268555C7.16333 -0.00268555 0 7.16131 0 15.9973C0 24.834 7.16333 31.9973 16 31.9973Z" fill="#DEEEFF"/>
<path d="M24.9454 24.4894L20.808 15.18C20.7625 15.0771 20.688 14.9897 20.5937 14.9284C20.4993 14.8671 20.3892 14.8345 20.2767 14.8347H18.9094V13.228C18.528 13.3447 18.1387 13.4347 17.7454 13.5067V14.834H14.2547V13.5067C13.8617 13.4375 13.4733 13.3449 13.0914 13.2294V14.8354H11.724C11.6114 14.8351 11.5011 14.8675 11.4066 14.9289C11.3122 14.9902 11.2376 15.0777 11.192 15.1807L7.05469 24.49C7.0152 24.5786 6.99851 24.6757 7.00613 24.7724C7.01375 24.8691 7.04545 24.9623 7.09833 25.0436C7.15122 25.125 7.2236 25.1917 7.3089 25.2379C7.3942 25.2841 7.48969 25.3082 7.58669 25.308H24.4134C24.5102 25.3077 24.6054 25.2833 24.6904 25.237C24.7754 25.1907 24.8476 25.1239 24.9003 25.0428C24.953 24.9616 24.9847 24.8685 24.9925 24.772C25.0002 24.6755 24.9838 24.5786 24.9447 24.49" fill="#2E3ECD"/>
<path d="M7.27269 6.68872C7.17958 6.68873 7.08784 6.71107 7.00516 6.75388C6.92248 6.79668 6.85127 6.8587 6.79752 6.93472C6.74377 7.01074 6.70904 7.09855 6.69625 7.19077C6.68346 7.283 6.69299 7.37694 6.72402 7.46472C8.00202 11.0807 11.9467 13.6707 16 13.6707C20.0534 13.6707 23.998 11.0807 25.276 7.46472C25.3071 7.37694 25.3166 7.283 25.3038 7.19077C25.291 7.09855 25.2563 7.01074 25.2025 6.93472C25.1488 6.8587 25.0776 6.79668 24.9949 6.75388C24.9122 6.71107 24.8205 6.68873 24.7274 6.68872H7.27269Z" fill="#2E3ECD"/>
<path d="M20.0726 20.0707C20.0533 21.1381 19.6158 22.1552 18.8541 22.9032C18.0924 23.6512 17.0675 24.0703 16 24.0703C14.9324 24.0703 13.9075 23.6512 13.1459 22.9032C12.3842 22.1552 11.9466 21.1381 11.9273 20.0707C11.9466 19.0033 12.3842 17.9862 13.1459 17.2382C13.9075 16.4901 14.9324 16.071 16 16.071C17.0675 16.071 18.0924 16.4901 18.8541 17.2382C19.6158 17.9862 20.0533 19.0033 20.0726 20.0707Z" fill="#6BAFFF"/>
<path d="M16.8726 20.2647C16.8726 19.9847 16.386 18.2321 16.1393 17.3607C16.1308 17.3301 16.1125 17.3032 16.0872 17.284C16.0619 17.2648 16.0311 17.2544 15.9993 17.2544C15.9676 17.2544 15.9367 17.2648 15.9114 17.284C15.8861 17.3032 15.8678 17.3301 15.8593 17.3607C15.6126 18.2321 15.1266 19.9847 15.1266 20.2647C15.1266 20.6394 15.5173 20.9434 16 20.9434C16.482 20.9434 16.8726 20.6394 16.8726 20.2647Z" fill="#2E3ECD"/>
</g>
<defs>
<clipPath id="clip0_73_534">
<rect width="32" height="32" fill="white"/>
</clipPath>
</defs>
</svg>
