<svg width="32" height="32" viewBox="0 0 32 32" fill="none" xmlns="http://www.w3.org/2000/svg">
<path d="M24.4547 10.1114C25.2883 11.3069 25.8749 12.6875 26.1405 14.1792H29.3307V17.8156H26.1405C25.8749 19.3073 25.2883 20.6879 24.4547 21.8834L26.7111 24.1399L24.1399 26.7111L21.8834 24.4547C20.6879 25.2883 19.3073 25.8749 17.8156 26.1405V29.3307H14.1792V26.1405C12.6875 25.8749 11.3069 25.2883 10.1114 24.4547L7.85493 26.7111L5.28366 24.1399L7.54006 21.8834C6.70646 20.6879 6.11988 19.3073 5.85428 17.8156H2.66406V14.1792H5.85428C6.11988 12.6875 6.70646 11.3069 7.54006 10.1114L5.28366 7.85493L7.85493 5.28366L10.1114 7.54006C11.3069 6.70646 12.6875 6.11988 14.1792 5.85428V2.66406H17.8156V5.85428C19.3073 6.11988 20.6879 6.70646 21.8834 7.54006L24.1399 5.28366L26.7111 7.85493L24.4547 10.1114Z" fill="#2F88FF" stroke="black" stroke-width="2" stroke-linejoin="round"/>
<path d="M15.9974 19.3307C17.8383 19.3307 19.3307 17.8383 19.3307 15.9974C19.3307 14.1565 17.8383 12.6641 15.9974 12.6641C14.1565 12.6641 12.6641 14.1565 12.6641 15.9974C12.6641 17.8383 14.1565 19.3307 15.9974 19.3307Z" fill="#43CCF8" stroke="white" stroke-width="2" stroke-linejoin="round"/>
</svg>
