<svg width="32" height="32" viewBox="0 0 32 32" fill="none" xmlns="http://www.w3.org/2000/svg">
<g clip-path="url(#clip0_12_166)">
<path d="M31.8594 28.382C31.8596 28.8324 31.771 29.2785 31.5989 29.6947C31.4267 30.1109 31.1742 30.4892 30.8558 30.8078C30.5374 31.1265 30.1594 31.3793 29.7434 31.5518C29.3273 31.7244 28.8813 31.8133 28.4309 31.8135H3.47488C2.56527 31.813 1.69312 31.4512 1.05026 30.8076C0.407401 30.1641 0.0464774 29.2916 0.0468753 28.382V3.43C0.0468753 1.536 1.58188 0 3.47488 0H28.4309C29.3403 0.000397711 30.2124 0.361947 30.8553 1.00515C31.4982 1.64836 31.8594 2.52057 31.8594 3.43V28.382Z" fill="#E6E7E8"/>
<path d="M0.046875 5.52781H31.8619H0.046875ZM0.046875 5.27731H31.8619V5.77731H0.051875L0.046875 5.27731ZM0.046875 12.9218H31.8619H0.046875ZM0.046875 12.6718H31.8619V13.1718H0.051875L0.046875 12.6718ZM0.046875 20.3318H31.8619H0.046875ZM0.046875 20.0828H31.8619V20.5828H0.051875L0.046875 20.0828ZM0.046875 27.7278H31.8619H0.046875ZM0.046875 27.4753H31.8619V27.9753H0.051875L0.046875 27.4753ZM5.14387 31.8178V0.0078125V31.8178Z" fill="#939598"/>
<path d="M4.89062 0H5.39063V31.815H4.89062V0ZM12.5361 31.815V0.005V31.815ZM12.2841 0H12.7841V31.815H12.2841V0ZM19.9451 31.815V0.005V31.815ZM19.6961 0H20.1961V31.815H19.6961V0ZM27.3381 31.815V0.005V31.815ZM27.0861 0H27.5861V31.815H27.0861V0Z" fill="#939598"/>
<path d="M0 21.2064L8.6705 13.6664C8.5748 13.5094 8.48638 13.348 8.4055 13.1829C8.045 13.0714 7.6825 12.9994 7.3315 12.8594L0 19.2009V21.2109" fill="#EE4036"/>
<path d="M13.6889 21.3046C14.6674 21.4051 14.5629 21.3161 15.1764 20.7181L8.40642 12.9341C8.27382 12.7817 8.08611 12.6882 7.8846 12.6743C7.6831 12.6603 7.48429 12.7269 7.33192 12.8596C7.17956 12.9922 7.08611 13.1799 7.07214 13.3814C7.05817 13.5829 7.12482 13.7817 7.25742 13.9341L13.6714 21.3071C13.6768 21.3047 13.6826 21.3039 13.6889 21.3046ZM31.8554 13.2886L27.9789 8.83156C27.9134 8.75618 27.8336 8.69447 27.7442 8.64996C27.6547 8.60544 27.5574 8.57899 27.4578 8.57211C27.3581 8.56524 27.2581 8.57808 27.1634 8.6099C27.0687 8.64172 26.9812 8.6919 26.9059 8.75756C26.8303 8.82299 26.7683 8.90271 26.7235 8.99215C26.6787 9.08159 26.652 9.179 26.6449 9.27878C26.6379 9.37856 26.6506 9.47875 26.6823 9.57361C26.7141 9.66847 26.7642 9.75612 26.8299 9.83156L31.8549 15.6081L31.8554 13.2886Z" fill="#EE4036"/>
<path d="M15.0671 20.8215C14.6771 21.161 14.1381 21.1785 13.8621 20.8595C13.5866 20.543 13.6781 20.0115 14.0671 19.6725L26.6321 8.74196C27.0206 8.40396 27.5611 8.38646 27.8376 8.70296C28.1131 9.01946 28.0211 9.55296 27.6316 9.89096L15.0671 20.8215Z" fill="#EE4036"/>
</g>
<defs>
<clipPath id="clip0_12_166">
<rect width="32" height="32" fill="white"/>
</clipPath>
</defs>
</svg>
