<svg width="32" height="32" viewBox="0 0 32 32" fill="none" xmlns="http://www.w3.org/2000/svg">
<path d="M16 0C14.35 0 13 1.35 13 3C13 4.65 14.35 6 16 6C17.65 6 19 4.65 19 3C19 1.35 17.65 0 16 0ZM16 5.15C14.8 5.15 13.85 4.2 13.85 3C13.85 1.8 14.8 0.85 16 0.85C17.2 0.85 18.15 1.8 18.15 3C18.15 4.2 17.2 5.15 16 5.15Z" fill="#D0D0D0"/>
<path d="M15.25 4.29688H16.75V7.54688H15.25V4.29688Z" fill="#4E5C66"/>
<path d="M17.25 5.80313H14.75V2.95312C14.75 2.20312 17.25 2.20312 17.25 2.95312V5.80313Z" fill="#647A87"/>
<path d="M5.36719 10.3444L6.85169 8.85938L8.33669 10.3439L6.85269 11.8289L5.36719 10.3444Z" fill="#4E5C66"/>
<path d="M7.79844 8.79844L5.29844 11.2984L3.74844 9.74844C3.44844 9.44844 3.44844 8.94844 3.74844 8.64844L5.14844 7.24844C5.44844 6.94844 5.94844 6.94844 6.24844 7.24844L7.79844 8.79844Z" fill="#647A87"/>
<path d="M23.6719 10.3522L25.1569 8.86719L26.6419 10.3522L25.1569 11.8372L23.6719 10.3522Z" fill="#4E5C66"/>
<path d="M26.7031 11.2984L24.2031 8.79844L25.7531 7.24844C26.0531 6.94844 26.5531 6.94844 26.8531 7.24844L28.2531 8.64844C28.5531 8.94844 28.5531 9.44844 28.2531 9.74844L26.7031 11.2984Z" fill="#647A87"/>
<path d="M16 32C22.9036 32 28.5 26.4036 28.5 19.5C28.5 12.5964 22.9036 7 16 7C9.09644 7 3.5 12.5964 3.5 19.5C3.5 26.4036 9.09644 32 16 32Z" fill="#647A87"/>
<path d="M15.9984 30.3484C21.9907 30.3484 26.8484 25.4907 26.8484 19.4984C26.8484 13.5061 21.9907 8.64844 15.9984 8.64844C10.0061 8.64844 5.14844 13.5061 5.14844 19.4984C5.14844 25.4907 10.0061 30.3484 15.9984 30.3484Z" fill="#D2D3D5"/>
<path d="M16 29.5C21.5228 29.5 26 25.0228 26 19.5C26 13.9772 21.5228 9.5 16 9.5C10.4772 9.5 6 13.9772 6 19.5C6 25.0228 10.4772 29.5 16 29.5Z" fill="white"/>
<path d="M26 19.5C26 22.25 24.9 24.75 23.1 26.55L16 19.5V9.5C21.5 9.5 26 14 26 19.5Z" fill="#ED4C5C"/>
<path d="M21.7516 25.2016L16.6516 19.1516L15.6516 20.1516L21.7516 25.2016ZM15.6516 10.3516H16.3516V13.1516H15.6516V10.3516ZM15.6516 25.8516H16.3516V28.6516H15.6516V25.8516ZM6.85156 19.1516H9.65156V19.8516H6.85156V19.1516ZM22.3516 19.1516H25.1516V19.8516H22.3516V19.1516ZM11.0906 11.7331L11.6971 11.3831L12.3971 12.5956L11.7906 12.9456L11.0906 11.7331ZM7.86556 15.2331L8.21556 14.6271L9.42806 15.3271L9.07806 15.9336L7.86556 15.2331ZM7.88206 23.8076L9.09406 23.1066L9.44406 23.7126L8.23256 24.4136L7.88206 23.8076ZM11.1276 27.2896L11.8276 26.0771L12.4336 26.4271L11.7336 27.6396L11.1276 27.2896ZM19.5806 26.3646L20.1866 26.0146L20.8866 27.2271L20.2811 27.5771L19.5806 26.3646ZM22.5516 23.7166L22.9016 23.1101L24.1141 23.8106L23.7641 24.4171L22.5516 23.7166ZM22.5146 15.3156L23.7266 14.6156L24.0766 15.2216L22.8646 15.9216L22.5146 15.3156ZM19.5696 12.5766L20.2701 11.3646L20.8761 11.7146L20.1761 12.9271L19.5696 12.5766Z" fill="#3E4347"/>
<path d="M16.0016 20.9016C16.7748 20.9016 17.4016 20.2748 17.4016 19.5016C17.4016 18.7284 16.7748 18.1016 16.0016 18.1016C15.2284 18.1016 14.6016 18.7284 14.6016 19.5016C14.6016 20.2748 15.2284 20.9016 16.0016 20.9016Z" fill="#3E4347"/>
</svg>
