<svg width="32" height="32" viewBox="0 0 32 32" fill="none" xmlns="http://www.w3.org/2000/svg">
<path d="M16.6374 21.1413V3.88259C16.6374 3.20646 16.3688 2.55803 15.8907 2.07993C15.4126 1.60184 14.7642 1.33325 14.0881 1.33325C13.4119 1.33325 12.7635 1.60184 12.2854 2.07993C11.8073 2.55803 11.5387 3.20646 11.5387 3.88259V21.1413C10.5671 21.7024 9.80778 22.5685 9.37852 23.6052C8.94925 24.6418 8.87403 25.7912 9.16451 26.8749C9.455 27.9587 10.095 28.9164 10.9852 29.5994C11.8753 30.2824 12.966 30.6526 14.0881 30.6526C15.2101 30.6526 16.3008 30.2824 17.191 29.5994C18.0812 28.9164 18.7211 27.9587 19.0116 26.8749C19.3021 25.7912 19.2269 24.6418 18.7976 23.6052C18.3683 22.5685 17.609 21.7024 16.6374 21.1413Z" fill="#FFBFC5"/>
<path d="M14.088 26.9038C13.0661 26.9008 12.0688 26.5904 11.2256 26.0131C10.3824 25.4358 9.73237 24.6181 9.36 23.6665C9.04859 24.4403 8.93177 25.2787 9.01981 26.1082C9.10785 26.9377 9.39805 27.7329 9.86496 28.4241C10.3319 29.1153 10.9612 29.6814 11.6979 30.0727C12.4345 30.4641 13.2559 30.6687 14.09 30.6687C14.9241 30.6687 15.7455 30.4641 16.4821 30.0727C17.2188 29.6814 17.8481 29.1153 18.315 28.4241C18.782 27.7329 19.0722 26.9377 19.1602 26.1082C19.2482 25.2787 19.1314 24.4403 18.82 23.6665C18.4494 24.6201 17.7996 25.4396 16.9555 26.0177C16.1114 26.5958 15.1124 26.9056 14.0893 26.9065" fill="#FF808C"/>
<path d="M16.6374 21.1413V3.88259C16.6374 3.20646 16.3688 2.55803 15.8907 2.07993C15.4126 1.60184 14.7642 1.33325 14.0881 1.33325C13.4119 1.33325 12.7635 1.60184 12.2854 2.07993C11.8073 2.55803 11.5387 3.20646 11.5387 3.88259V21.1413C10.5671 21.7024 9.80778 22.5685 9.37852 23.6052C8.94925 24.6418 8.87403 25.7912 9.16451 26.8749C9.455 27.9587 10.095 28.9164 10.9852 29.5994C11.8753 30.2824 12.966 30.6526 14.0881 30.6526C15.2101 30.6526 16.3008 30.2824 17.191 29.5994C18.0812 28.9164 18.7211 27.9587 19.0116 26.8749C19.3021 25.7912 19.2269 24.6418 18.7976 23.6052C18.3683 22.5685 17.609 21.7024 16.6374 21.1413Z" stroke="#191919" stroke-linecap="round" stroke-linejoin="round"/>
<path d="M14.0881 26.8238C14.2588 26.8293 14.429 26.8005 14.5884 26.7389C14.7478 26.6774 14.8932 26.5844 15.0159 26.4656C15.1387 26.3467 15.2363 26.2044 15.3029 26.0471C15.3696 25.8898 15.4039 25.7207 15.4039 25.5498C15.4039 25.379 15.3696 25.2098 15.3029 25.0525C15.2363 24.8952 15.1387 24.7529 15.0159 24.634C14.8932 24.5152 14.7478 24.4222 14.5884 24.3607C14.429 24.2991 14.2588 24.2703 14.0881 24.2758C13.7573 24.2865 13.4437 24.4254 13.2135 24.6632C12.9833 24.9009 12.8546 25.2189 12.8546 25.5498C12.8546 25.8807 12.9833 26.1987 13.2135 26.4364C13.4437 26.6742 13.7573 26.8131 14.0881 26.8238Z" fill="#FF808C" stroke="#191919" stroke-linecap="round" stroke-linejoin="round"/>
<path d="M14.088 24.2746V3.88257M19.1867 3.88257H23.0107M19.1867 10.2546H20.4613M19.1867 16.6266H20.4613" stroke="#191919" stroke-linecap="round" stroke-linejoin="round"/>
</svg>
