<svg width="20" height="20" viewBox="0 0 20 20" fill="none" xmlns="http://www.w3.org/2000/svg">
<path fill-rule="evenodd" clip-rule="evenodd" d="M15.8 6.22998H13.8325V9.83623H9.24124V11.8037H13.8325V16.3937H9.24124V18.36H14.8162C15.0767 18.3597 15.3264 18.256 15.5106 18.0718C15.6948 17.8877 15.7984 17.638 15.7987 17.3775L15.8 6.22998Z" fill="#1E1E1E"/>
<path fill-rule="evenodd" clip-rule="evenodd" d="M18.75 2.295C18.75 1.0275 17.7225 0 16.455 0H6.61875C5.35125 0 4.32375 1.0275 4.32375 2.295V4.59C4.32375 5.19867 4.56554 5.78241 4.99594 6.21281C5.42633 6.64321 6.01008 6.885 6.61875 6.885H16.455C17.0637 6.885 17.6474 6.64321 18.0778 6.21281C18.5082 5.78241 18.75 5.19867 18.75 4.59V2.295ZM16.455 1.9675C16.4981 1.96717 16.5408 1.97541 16.5807 1.99175C16.6206 2.00809 16.6568 2.0322 16.6873 2.06268C16.7178 2.09316 16.7419 2.12939 16.7582 2.16928C16.7746 2.20916 16.7828 2.2519 16.7825 2.295V4.59C16.7825 4.77125 16.6362 4.9175 16.455 4.9175H6.61875C6.57565 4.91783 6.53291 4.90959 6.49303 4.89325C6.45314 4.87691 6.41691 4.8528 6.38643 4.82232C6.35595 4.79184 6.33184 4.75561 6.3155 4.71572C6.29916 4.67584 6.29092 4.6331 6.29125 4.59V2.295C6.29092 2.2519 6.29916 2.20916 6.3155 2.16928C6.33184 2.12939 6.35595 2.09316 6.38643 2.06268C6.41691 2.0322 6.45314 2.00809 6.49303 1.99175C6.53291 1.97541 6.57565 1.96717 6.61875 1.9675H16.455ZM10.225 10.4912C10.225 9.22375 9.1975 8.19625 7.93 8.19625H4.65125C3.38375 8.19625 2.35625 9.22375 2.35625 10.4912V11.1475C2.35625 11.7562 2.59804 12.3399 3.02844 12.7703C3.45883 13.2007 4.04258 13.4425 4.65125 13.4425H7.93C8.53867 13.4425 9.12241 13.2007 9.55281 12.7703C9.98321 12.3399 10.225 11.7562 10.225 11.1475V10.4912ZM7.93 10.1637C7.9732 10.1632 8.01608 10.1714 8.05611 10.1876C8.09614 10.2039 8.13252 10.228 8.16313 10.2585C8.19374 10.289 8.21796 10.3253 8.23438 10.3652C8.2508 10.4052 8.25908 10.448 8.25875 10.4912V11.1475C8.25875 11.3288 8.11125 11.475 7.93 11.475H4.65125C4.60815 11.4753 4.56541 11.4671 4.52553 11.4507C4.48564 11.4344 4.44941 11.4103 4.41893 11.3798C4.38845 11.3493 4.36434 11.3131 4.348 11.2732C4.33166 11.2333 4.32342 11.1906 4.32375 11.1475V10.4912C4.32342 10.4481 4.33166 10.4054 4.348 10.3655C4.36434 10.3256 4.38845 10.2894 4.41893 10.2589C4.44941 10.2285 4.48564 10.2043 4.52553 10.188C4.56541 10.1717 4.60815 10.1634 4.65125 10.1637H7.93ZM10.225 17.05C10.225 15.7812 9.1975 14.7538 7.93 14.7538H4.65125C3.38375 14.7538 2.35625 15.7812 2.35625 17.0487V17.705C2.35625 18.3137 2.59804 18.8974 3.02844 19.3278C3.45883 19.7582 4.04258 20 4.65125 20H7.93C8.53867 20 9.12241 19.7582 9.55281 19.3278C9.98321 18.8974 10.225 18.3137 10.225 17.705V17.05ZM7.93 16.7213C7.9732 16.7208 8.01608 16.7289 8.05611 16.7451C8.09614 16.7614 8.13252 16.7855 8.16313 16.816C8.19374 16.8465 8.21796 16.8828 8.23438 16.9227C8.2508 16.9627 8.25908 17.0055 8.25875 17.0487V17.705C8.25875 17.8862 8.11125 18.0325 7.93 18.0325H4.65125C4.60815 18.0328 4.56541 18.0246 4.52553 18.0082C4.48564 17.9919 4.44941 17.9678 4.41893 17.9373C4.38845 17.9068 4.36434 17.8706 4.348 17.8307C4.33166 17.7908 4.32342 17.7481 4.32375 17.705V17.0487C4.32342 17.0056 4.33166 16.9629 4.348 16.923C4.36434 16.8831 4.38845 16.8469 4.41893 16.8164C4.44941 16.786 4.48564 16.7618 4.52553 16.7455C4.56541 16.7292 4.60815 16.7209 4.65125 16.7213H7.93Z" fill="#1E1E1E"/>
</svg>
