<svg width="48" height="48" viewBox="0 0 48 48" fill="none" xmlns="http://www.w3.org/2000/svg">
<path d="M12 39.9999C10.9 39.9999 9.95867 39.6086 9.176 38.8259C8.39333 38.0432 8.00133 37.1012 8 35.9999V31.9999C8 31.4332 8.192 30.9586 8.576 30.5759C8.96 30.1932 9.43467 30.0012 10 29.9999C10.5653 29.9986 11.0407 30.1905 11.426 30.5759C11.8113 30.9612 12.0027 31.4359 12 31.9999V35.9999H36V31.9999C36 31.4332 36.192 30.9586 36.576 30.5759C36.96 30.1932 37.4347 30.0012 38 29.9999C38.5653 29.9986 39.0407 30.1905 39.426 30.5759C39.8113 30.9612 40.0027 31.4359 40 31.9999V35.9999C40 37.0999 39.6087 38.0419 38.826 38.8259C38.0433 39.6099 37.1013 40.0012 36 39.9999H12ZM22 15.6999L18.25 19.4499C17.85 19.8499 17.3753 20.0419 16.826 20.0259C16.2767 20.0099 15.8013 19.8012 15.4 19.3999C15.0333 18.9999 14.8413 18.5332 14.824 17.9999C14.8067 17.4665 14.9987 16.9999 15.4 16.5999L22.6 9.39988C22.8 9.19988 23.0167 9.05855 23.25 8.97588C23.4833 8.89322 23.7333 8.85122 24 8.84988C24.2667 8.84855 24.5167 8.89055 24.75 8.97588C24.9833 9.06122 25.2 9.20255 25.4 9.39988L32.6 16.5999C33 16.9999 33.192 17.4665 33.176 17.9999C33.16 18.5332 32.968 18.9999 32.6 19.3999C32.2 19.7999 31.7253 20.0085 31.176 20.0259C30.6267 20.0432 30.1513 19.8512 29.75 19.4499L26 15.6999V29.9999C26 30.5666 25.808 31.0419 25.424 31.4259C25.04 31.8099 24.5653 32.0012 24 31.9999C23.4347 31.9986 22.96 31.8066 22.576 31.4239C22.192 31.0412 22 30.5666 22 29.9999V15.6999Z" fill="#717182"/>
</svg>
